STARTFONT 2.3
FONT -FontForge-Monoton-Book-R-Normal--36-360-72-72-P-244-ISO10646-1
SIZE 36 72 72  4
FONTBOUNDINGBOX 68 57 -6 -15
COMMENT "Generated by fontforge, http://fontforge.sourceforge.net"
COMMENT "Copyright (c) 2011 by vernon adams. All rights reserved."
STARTPROPERTIES 41
FOUNDRY "FontForge"
FAMILY_NAME "Monoton"
WEIGHT_NAME "Book"
SLANT "R"
SETWIDTH_NAME "Normal"
ADD_STYLE_NAME ""
PIXEL_SIZE 36
POINT_SIZE 360
RESOLUTION_X 72
RESOLUTION_Y 72
SPACING "P"
AVERAGE_WIDTH 244
CHARSET_REGISTRY "ISO10646"
CHARSET_ENCODING "1"
FONTNAME_REGISTRY ""
CHARSET_COLLECTIONS "ISO8859-2 ISO8859-9 ISO8859-4 ISO10646-1"
BITS_PER_PIXEL 4
FONT_NAME "Monoton-Regular"
FACE_NAME "Monoton"
COPYRIGHT "Copyright (c) 2011 by vernon adams. All rights reserved."
FONT_VERSION "1.000"
FONT_ASCENT 29
FONT_DESCENT 7
UNDERLINE_POSITION -2
UNDERLINE_THICKNESS 1
X_HEIGHT 25
CAP_HEIGHT 29
DEFAULT_CHAR 1
RAW_ASCENT 799
RAW_DESCENT 200
NORM_SPACE 4
RELATIVE_WEIGHT 40
RELATIVE_SETWIDTH 50
SUPERSCRIPT_X 0
SUPERSCRIPT_Y 12
SUPERSCRIPT_SIZE 21
SUBSCRIPT_X 0
SUBSCRIPT_Y 2
SUBSCRIPT_SIZE 21
AVG_LOWERCASE_WIDTH 261
AVG_UPPERCASE_WIDTH 286
ENDPROPERTIES
CHARS 372
STARTCHAR glyph1.dup1
ENCODING 0
SWIDTH 108 0
DWIDTH 4 0
BBX 1 1 0 0
BITMAP
00
ENDCHAR
STARTCHAR uni0002
ENCODING 2
SWIDTH 108 0
DWIDTH 4 0
BBX 1 1 0 0
BITMAP
00
ENDCHAR
STARTCHAR uni0009
ENCODING 9
SWIDTH 108 0
DWIDTH 4 0
BBX 1 1 0 0
BITMAP
00
ENDCHAR
STARTCHAR uni000A
ENCODING 10
SWIDTH 108 0
DWIDTH 4 0
BBX 1 1 0 0
BITMAP
00
ENDCHAR
STARTCHAR uni000D
ENCODING 13
SWIDTH 108 0
DWIDTH 4 0
BBX 1 1 0 0
BITMAP
00
ENDCHAR
STARTCHAR space
ENCODING 32
SWIDTH 108 0
DWIDTH 4 0
BBX 1 1 0 0
BITMAP
00
ENDCHAR
STARTCHAR exclam
ENCODING 33
SWIDTH 336 0
DWIDTH 12 0
BBX 10 32 1 -2
BITMAP
1101102011
5E0C74F0B8
5E0C74F0B8
5E0C74F0B8
5E0C74F0B8
5E0C74F0B8
5E0C74F0B8
5E0C74F0B8
5E0C74F0B8
5E0C74F0B8
5E0C74F0B8
5E0C74F0B8
5E0C74F0B8
5E0C74F0B8
5E0C74F0B8
5E0C74F0B8
5E0C74F0B8
5E0C74F0B8
5E0C74F0B8
5E0C74F0B8
5E0C74F0B8
5E0C74F0B8
2605326053
0000000000
0111111110
5FFFFFFFF8
1333333332
3888888884
4BBBBBBBB6
0000000000
5FFFFFFFF8
1444444442
ENDCHAR
STARTCHAR quotedbl
ENCODING 34
SWIDTH 538 0
DWIDTH 19 0
BBX 17 13 1 17
BITMAP
110201100011011110
8B0F47C0006D0D65E0
8B0F47C0006D0D65E0
8B0F47C0006D0D65E0
8B0F47C0006D0D65E0
8B0F47C0006D0D65E0
8B0F47C0006D0D65E0
8B0F47C0006D0D65E0
8B0F47C0006D0D65E0
8B0F47C0006D0D65E0
8B0F47C0006D0D65E0
8B0F47C0006D0D65E0
230412400024042240
ENDCHAR
STARTCHAR numbersign
ENCODING 35
SWIDTH 1014 0
DWIDTH 37 0
BBX 36 34 0 -3
BITMAP
000000000000250430610000034052260000
0000000000008C0D64F100000B92F37C0000
000000000000C82F38C000000F55E0B90000
000000000001F46E0B8000004F19B0E50000
000000000004F1AA0F4000008C0D73F10000
000000000008C0D64F100000B92F37C00000
000000BBBB5C82F28C6BBBB3F55E0B98BBB8
00000188883F46E0B8688885F19A0E578884
00000233334F1AA1F5333328C0D73F233330
00000BFFFC8C0D64F5FFFF8B92F37C7FFFF1
0000011110C82F28C011111F56E0B9011110
00003AAAA3F46E0B88AAAA4F19A0E5AAAA50
0000499995F1AA1F4999978C0D73F3999930
0000000008C0D64F100000B92F37C0000000
000000000C82F28C000001F56E0B80000000
000000001F46E0C8000004F19A0E50000000
000000004F1AA1F4000008C0D74F10000000
000000008C0E64F100000B92F37C00000000
00000000C82F28C000001F56E0B800000000
00000001F46E0C8000004F19A0E500000000
00000004F1AA1F4000008C0D64F100000000
00344438C0E64F244442B92F37C244440000
00EFFF8C82F28C7FFFF5F56E0B8AFFFC0000
0000001F46D0C8000004F19A0E5000000000
05BBBB5F1AA1F5BBBB98C0D64F3BBBB30000
0588878C0E64F288885B82F37C3888810000
033331C82F28C233331F56E0B82333200000
3FFFF5F46D0C8CFFFF5F19A0F5EFFF800000
011115F1AA1F4111118C0D64F11111000000
000008C0E64F100000C82F37C00000000000
00000C82F28C000001F56E0B800000000000
00001F46D0C8000004F19A0F400000000000
00004F1AA1F4000008C0D64F100000000000
000012011020000001102112000000000000
ENDCHAR
STARTCHAR dollar
ENCODING 36
SWIDTH 686 0
DWIDTH 25 0
BBX 23 41 1 -6
BITMAP
000000001200220000000000
000000006D009A0000000000
000000006D009A0000000000
000000006D009A0000000000
000000001245432000000000
0000017CFFFEEFFFC7200000
00007EE8410000258DFA3000
000AF7127ABCCB96204AF800
00AE31AFD97778ADFC604E80
05F42EC40144431028ED3100
0D91DA05CFFFFFFD82197000
4F28D18F83000136BF800000
8C0D63F516ABBA8513200000
A92F28C0BD9888AD80000000
B83F1A91F300000000000000
B83F1AA1F500000000000000
AA1F37D08FFFFEC940000000
6D0C81E80244457BFC400000
2F36E25FC87775302AF60000
0BA0BC128BCCCEFE607F5000
03F51CE720000027EA08E100
008F507DFFEEEC822E80D800
0008FA20245557CE34F37E00
00004CFC8766520AD0B92F30
00000038BCDDEF52F47C0E60
00000000000008C0D65E0C70
00000010000007C0D65E0C80
000001CEBA99BF61F46D0D60
0000530479AA830AD0B91F40
0000AFB7421126CE34F36E10
00B8128CFFFFFE922E90D900
214DE82002332017EA09E100
CD316CFEBA989CFD608F4000
19FA402589ABA8403BF50000
003AFD963210237BFC300000
000027BEFFFFFFD940000000
000000000244310000000000
000000006D009A0000000000
000000006D009A0000000000
000000006D009A0000000000
000000001300220000000000
ENDCHAR
STARTCHAR percent
ENCODING 37
SWIDTH 1504 0
DWIDTH 54 0
BBX 53 34 1 -3
BITMAP
000000002454200000000000000000000000000000000000000000
0000017DFFEEFD8100000000000101101000000000000000000000
00005ED7200026CE70000000008C0D74F100000000000000000000
0008F8038BCB9406FA00000000B82F37C000000000000000000000
007E41AFC878BFB23E90000001F56E0B8000000000000000000000
04F62DC3034302BE34F5000004F1AA1F4000000000000000000000
0C90CB15DFFFE60AD18D000008C0E64F1000000000000000000000
4F27E16F82017F71D81E50000C82F28C0000000000000000000000
8B0E63F607B914F35F1A90001F46E0C80000000000000000000000
C74F19B0BD8CC0AA1F56D0005F1AA1F40000000000000000000000
E56D0D64F201E55E0C74F0008B0E64F00000000023310000000000
F47C0E55E000D64F0B83F100C73F28B0000004AEFFFFC710000000
D56E0C73F403F46D0D64E001F47D0C700002BFA521137DE7000000
C83F28D08FCEA0C91F47C005E0B91F30004EB2159AA8306FA10000
7C0D81E9047507E27E0B8009B0E55E0003F806EEA99CFB23DA0000
2F35F34EC535AF52E72F300D73F29B001DA09E7012202BE33F6000
0AC09D22AEFFB32CB0BB002F37D0D7008D18E32AFFFD609E27E100
02E81AE7101005EC17F3005E0B92F301E54F43EC4227E80CA0D700
005F806EFCABEF806F60009A0E55E005E0BA0DA049814F53F28C00
0005EB2058985119F60000D74F19A009A1F46E17FADD18C0D74F10
00003BFA632359EC400002F37C0D600B83F1AA1F601D73F1A91F20
00000049EFFFEA50000006E0B82F200C74F0B83F100A92F29A0F30
000000000021000000000AA1F46E000B83F1AA1F500D73F1A91F20
000000000000000000000E64F1AA0009A1F46E17FACD18C0D73F10
000000000000000000002F28C0E60005E0BA0DA059813F53F37C00
000000000000000000006D0C82F20001E54F43EB4127E90CA0D700
00000000000000000000AA1F46D000008D18E32AFFFD609E27E100
00000000000000000000E64F1A9000001EA0AE6013202BE43F7000
00000000000000000003F28B0E50000003F806EEA89CFB23DA0000
00000000000000000007D0C73F200000004EB2169BA8306EA10000
0000000000000000000B91F47D0000000003CF9410136CE7000000
0000000000000000000E55E0B9000000000005AEFFFFD810000000
0000000000000000003F19B0E50000000000000023310000000000
000000000000000000370641810000000000000000000000000000
ENDCHAR
STARTCHAR ampersand
ENCODING 38
SWIDTH 1029 0
DWIDTH 37 0
BBX 36 30 1 0
BITMAP
000000000012222222200020110201100000
00000039DFFFFFFFFFF304F0B83F1A900000
00001BFB64322222222004F0B83F1A900000
0004EC3047899999999204F0B83F1A900000
003F905DFCBAAAAAAAA204F0B83F1A900000
01D909F810011111111004F0B83F1A900000
09C09E318DFFFFFFFFF304F0B83F1A900000
2F44F43DD6433333333104F0B83F1A900000
6D0C91DA04788888888204F0B83F1A900000
AA1F47E18FCBBBBBBBB204F0B83F1A900000
B83F1A91F4000000000004F0B83F1A900000
B83F1A92F3000000000004F0B83F1A900000
AA1F38C0CD888888888885F0B83F1A968881
6E0B82F518BBBBBBBBBBB6F0B83F1A98BBB1
1E64E26F82000000000004F0B83F1A900000
07D0BB06FFFFFFFFFFFFF6F0B83F1A9BFFF1
0D64E26EB6444444444445F0B83F1A934440
5E0C83F706888888888885F0B83F1A968881
AA2F38C0CEBBBBBBBBBBB6F0B83F1A98BBB1
B83F1A92F3000000000004F0B83F1A900000
B83F1A91F5000000000003F1A92F29B00000
9A1F46E09FDDDDDDDDDD62F29B0E63FDDD00
6E0BA1EA03666666666630E65F19D1266600
1F54F43ED75555555555209B0D81CE855500
0AD18E418CEEEEEEEEEE703F34F507CEEE00
02FA08F9200000000000000AC16F92000000
005F904CFECCCCCCCCCC6001DB13CFECCC00
0006EC4025777777777730002DD502577700
00003BFD8644444444442000019FD8544400
00000038CEFFFFFFFFFF700000027BEFFF00
ENDCHAR
STARTCHAR quotesingle
ENCODING 39
SWIDTH 257 0
DWIDTH 9 0
BBX 7 13 1 17
BITMAP
11020110
8B0F47C0
8B0F47C0
8B0F47C0
8B0F47C0
8B0F47C0
8B0F47C0
8B0F47C0
8B0F47C0
8B0F47C0
8B0F47C0
8B0F47C0
23041240
ENDCHAR
STARTCHAR parenleft
ENCODING 40
SWIDTH 410 0
DWIDTH 15 0
BBX 13 34 1 -3
BITMAP
00000000135640
0000004BFFED80
00002BFA510000
0004EB216ACD80
002E906EEA7640
00CB09F7114530
06E17E31AFFE90
0D82F62DB30000
2F28C0BA04AC70
6D0D73F25F9740
8B0F47C0D70000
9A2F38A0F40000
A92F29A1F30000
A92F29A1F30000
A92F29A1F30000
A92F29A1F30000
A92F29A1F30000
A92F29A1F30000
A92F29A1F30000
A92F29A1F30000
A92F29A1F30000
A92F29A1F30000
A92F29A0F30000
8B1F47C0D60000
7D0D74F17E7530
3F29C0C906CE90
0D72F43E910000
07E17E23CFDC70
01D90AE5036740
003F707FC75420
0005FA128CEF90
00003DE7200000
0000006DFECB70
00000000267850
ENDCHAR
STARTCHAR parenright
ENCODING 41
SWIDTH 408 0
DWIDTH 15 0
BBX 13 34 1 -3
BITMAP
56530000000000
BDEFE920000000
00016BF9100000
BDC9504DC20000
567BFD41CC1000
454019F61D9000
CEFE806F44F300
0005DB09D0B900
AC921D81F56E00
67BE25E1B91F30
000AA0F47C0E50
0007C0E56D0D60
0006D0D65E0C70
0006D0D65E0C70
0006D0D65E0C70
0006D0D65E0C70
0006D0D65E0C70
0006D0D65E0C70
0006D0D65E0C70
0006D0D65E0C70
0006D0D65E0C70
0006D0D65E0C70
0007C0D66E0D60
0009A0F47D0E50
458F34F1AA1F40
CEB40C91E55E00
0002BD18D0AA00
ACDFA14F43F400
676207F70CB000
3458DE50AD1000
CFEC712CE30000
000039FB100000
9BCEFC40000000
78751000000000
ENDCHAR
STARTCHAR asterisk
ENCODING 42
SWIDTH 664 0
DWIDTH 24 0
BBX 22 23 1 3
BITMAP
0000000150331510000000
00000003F1A92F20000000
00000003F1A92F20000000
00071003F1A92F20017000
002DD503F1A92F206ED200
01318EC6F1A92F6CE70310
07F912AFF1A92FFA22AF60
105DE604C1A92C307EC401
BC407ED400A9005DE604DA
19FA219FA2A93BF812BF91
003CF813CFEEFB219FB300
0000BFB00BFF901CFB0000
005DE604DEDDEC307ED400
3BF912BF91A92AFA219FB2
AB218FB310A9004CE703B9
106ED505D1A92D506ED501
07E813CFF1A92FFB318F60
01219FA5F1A92F4BF91200
003EC403F1A92F204DE200
00050003F1A92F20005000
00000003F1A92F20000000
00000003F1A92F20000000
0000000130220300000000
ENDCHAR
STARTCHAR plus
ENCODING 43
SWIDTH 601 0
DWIDTH 22 0
BBX 20 17 1 6
BITMAP
000005A0B44B0A500000
000006D0D65E0C700000
000006D0D65E0C700000
000006D0D65E0C700000
000006D0D65E0C700000
7BBBBDD0D65E0CDBBBB4
58888BD0D65E0CB88883
233338D0D65E0C833331
AFFFFFD0D65E0CFFFFF5
111117D0D65E0C711110
7AAAACD0D65E0CCAAAA3
69999BD0D65E0CC99993
000006D0D65E0C700000
000006D0D65E0C700000
000006D0D65E0C700000
000006D0D65E0C700000
00000480944908400000
ENDCHAR
STARTCHAR comma
ENCODING 44
SWIDTH 252 0
DWIDTH 9 0
BBX 7 12 1 -5
BITMAP
33051340
9A1F38B0
9A1F38B0
9A1F38B0
9A1F38B0
771F38B0
002F28B0
008E0A90
7EF50D70
46207E10
247BF500
9ED92000
ENDCHAR
STARTCHAR hyphen
ENCODING 45
SWIDTH 473 0
DWIDTH 17 0
BBX 15 7 1 11
BITMAP
5BBBBBBBBBBBBB50
3888888888888840
1333333333333310
6FFFFFFFFFFFFF80
0111111111111110
4AAAAAAAAAAAAA50
4999999999999950
ENDCHAR
STARTCHAR period
ENCODING 46
SWIDTH 255 0
DWIDTH 9 0
BBX 7 7 1 0
BITMAP
35555540
8EEEEEB0
00000000
7CCCCC90
47777750
24444430
9FFFFFB0
ENDCHAR
STARTCHAR slash
ENCODING 47
SWIDTH 447 0
DWIDTH 16 0
BBX 16 34 0 -4
BITMAP
0000000001011010
000000005E0B91F3
000000009B0E55E0
00000000D73F29B0
00000001F37D0C70
00000005E0B91F30
00000009B0E55E00
0000000D73F29B00
0000001F37D0C700
0000005E0B91F300
0000009B0E55E000
000000D73F29B000
000001F37D0D7000
000005E0B91F3000
000009B0E55E0000
00000D73F29B0000
00001F37D0D70000
00005E0B91F30000
00009B0E55E00000
0000D73F19B00000
0001F37D0D700000
0005E0B91F300000
0009B0E55E000000
000D73F19B000000
001F37D0D7000000
005E0B91F3000000
009B0E55E0000000
00D73F19B0000000
02F37D0D70000000
05E0B91F30000000
09B0E55E00000000
0D73F19A00000000
2F37D0D700000000
2604406200000000
ENDCHAR
STARTCHAR zero
ENCODING 48
SWIDTH 843 0
DWIDTH 30 0
BBX 29 33 1 -2
BITMAP
000000000001455430000000000000
0000000038DFFEEEFFB50000000000
0000002AFC73000025AFD500000000
000005ED4038BCCB9612AF90000000
00006F905DFC9778AEE814EB100000
0004F71AF9202443105DD33DA00000
001E91BE318DFFFFEA31AE43F60000
009D19D23DD720015AF809E27E1000
03F44F43E9138BBA505E90CB0D9000
09C0D91D908FC88AEC24F53F46E100
0E64F28D18E400001BD18E0BA1E500
4F29A0E63F40000000C91E54F1BA00
7D0D64F1AB000000004F19A1F47D00
AA1F38C0E5000000000E56E0C74F10
B83F1A92F2000000000B83F1A92F20
C74F0B83F1000000000A92F29A1F30
D65E0C74F00000000009A1F38B0F40
C74F0B83F1000000000A92F29A1F30
B93F1A92F3000000000C83F1A92F20
9A1F37C0E6000000000E56D0C74F00
7D0D74F19B000000005E1AA1F47D00
3F29B0D72F50000001D81F55E0B900
0E74F27E17F600002CC19D0BA1F500
08D0C90CA07FDA9BFB15F43F37E000
02F54F52EA1279A8406F71DA0E8000
009D18E32CE842136CE60AD18E1000
001DA0AE406CFFFFD921BE34F50000
0003F808FA301231017EC24E900000
00004FA13BFDA98ACFE705FA000000
000003DE60269ABA7403BF80000000
00000018FD84200136BFC300000000
0000000027CFFFFFFD940000000000
000000000000234310000000000000
ENDCHAR
STARTCHAR one
ENCODING 49
SWIDTH 426 0
DWIDTH 15 0
BBX 13 30 1 0
BITMAP
22222222222210
FFFFFFFFFFFFC0
22222222222220
99999999999970
AAAAAAAAAAAA80
11111111111110
FFFFFFFFFFFFC0
3334F5AC4F69C0
0001F38B0F48C0
0001F38B0F48C0
0001F38B0F48C0
0001F38B0F48C0
0001F38B0F48C0
0001F38B0F48C0
0001F38B0F48C0
0001F38B0F48C0
0001F38B0F48C0
0001F38B0F48C0
0001F38B0F48C0
0001F38B0F48C0
0001F38B0F48C0
0001F38B0F48C0
0001F38B0F48C0
0001F38B0F48C0
0001F38B0F48C0
0001F38B0F48C0
0001F38B0F48C0
0001F38B0F48C0
0001F38B0F48C0
0001F38B0F48C0
ENDCHAR
STARTCHAR two
ENCODING 50
SWIDTH 583 0
DWIDTH 21 0
BBX 19 31 1 0
BITMAP
00013555431000000000
7BEFFEEEEFFD94000000
C96310000136BFB30000
0269BCDDCA8403BF5000
7FFB987779CFE608F400
2300234431029F90AC00
08BEFFFEFFC704F62F40
0A742000037EB08D0A90
01479BCCB822E72F37C0
07FDA9878BE28C0E65E0
0110000000D55D0D65E0
0000000001E38B1F56D0
000000000AB1E56E1AA0
000000005E29B1D82F50
00000002E55E29D1AD00
0000001C92E54F44F400
0000009D1BA1D91DA000
000005E38D1AD19E1000
00002E64F36F35F40000
0000CA1E72E71E800000
0009D1BB1CA0BC000000
005E37E19D17E2000000
02E64F45F34F40000000
0CA1D81D71D700000000
35555555555555555300
9EEEEEEEEEEEEEEEE700
00000000000000000000
8CCCCCCCCCCCCCCCC600
47777777777777777400
34444444444444444200
AFFFFFFFFFFFFFFFF800
ENDCHAR
STARTCHAR three
ENCODING 51
SWIDTH 612 0
DWIDTH 22 0
BBX 20 33 1 -2
BITMAP
00012455543000000000
7BDFFFEEEEFEB5000000
CA64200000149ED40000
01579BCCCB96119F8000
7FFDA97778AEF805F700
2400123444105DD16F40
07ADFFFFFFFB31CC19C0
0B963210014AF61E82F3
00368ABBBA606F36E0B8
08FCA98889EC0B91F38B
01100000002F47C0E56D
00000000000F47C0E56D
00004EEEEDCA5891F38C
00001555567BEE84D0B9
00002666653116DD42F4
00004DDDDEFEA31AF6A0
000000000014AF709E20
00004DDDDCA504E80CB0
0000266667AFD32E53F3
000025555411AE27D0C8
00004EEEEFF80C92F38B
00000000005F37C0E56D
02200000002F47C0E56D
07FECBA99BEB0B91F37C
0014689AA8407F36E0B9
0DB85432125BF51E72F4
058BEFFFFFE921CB0AC0
3520001232017EC17F40
6EFECB9989CFE706F700
003579AAB98402BF7000
EB8642110136AFC40000
59BEFFFFFFFEA4000000
00001233431000000000
ENDCHAR
STARTCHAR four
ENCODING 52
SWIDTH 622 0
DWIDTH 22 0
BBX 21 30 1 0
BITMAP
0000000011010010120000
00000004F35F18D0AC0000
0000000BB0C91E72F60000
0000003F44F27E18E00000
000000AC0BA0D81E700000
000002F63F35F27E100000
000008D0AB0CA0D9000000
00001E72F44F35F2000000
00007E19C0BB0CA0000000
0000E81F63F43F40000000
0006F18D0AC0AC00000000
000D91E72F52F500000000
005F27E18D09D001010000
00CA0D81E71E704F0B8000
04F36F27E17E104F0B8000
0BB0D90E80D9004F0B8000
3F55F26F25F2004F0B8000
9C0BA0C90CA0004F0B8000
5666666666666666666620
BDDDDDDDDDDDDDDDDDDD60
0000000000000000000000
BDDDDDDDDDDDDDDDDDDD50
5666666666666666666630
4555555555555555555520
CEEEEEEEEEEEEEEEEEEE60
0000000000000026053000
000000000000004F0B8000
000000000000004F0B8000
000000000000004F0B8000
000000000000004F0B8000
ENDCHAR
STARTCHAR five
ENCODING 53
SWIDTH 691 0
DWIDTH 25 0
BBX 24 32 0 -2
BITMAP
002222222222222222222000
00FFFFFFFFFFFFFFFFFFF300
002222222222222222222000
009999999999999999999200
00AAAAAAAAAAAAAAAAAAA200
001111111111111111111000
00FFFFFFFFFFFFFFFFFFF300
00F69C3F7333333333333100
00F48C0F4000000000000000
00F48C0F4000000000000000
00F48C0F4234553200000000
00F48C0F4DFEDDFFC8100000
00F48C0F421000037DE70000
00F48C0F49BCDCA7206EB000
00F48C0F4876568CFA12EA00
00F48C0F435676302BE23F60
00F48C0F4DECCCFD609D18E1
00F48C0F41000017E90C91E5
00F48C0F4AEFFEA23F54E1AA
00724607264335BD19A0F47C
000000000000001F46D0D66E
000000010000004F37C0E56D
0000001DEBA9ACF90C82F38B
00000621589A97219E27D0C8
00001BFA6321248DD33F63F2
001C7049DFFFFFC714E90CA0
0305ED7201232003AF809E20
1DC217EFDA989AEFB319E400
01BF920369AAA86105DD3000
0004BFC843111259EE810000
0000038CFFFFFFEB71000000
000000000234320000000000
ENDCHAR
STARTCHAR six
ENCODING 54
SWIDTH 781 0
DWIDTH 28 0
BBX 27 33 1 -2
BITMAP
0000000000134554200000000000
000000028CFFFEFFFEA600000000
000002AFC731000126AEE7100000
00005EB3037ACCCA85117DD30000
0006F606DFC97778BEFA31AE2000
005F51BF82023443004AF8020000
01E71CD318DFFFFFFC614B200000
08D0AD15ED73000148ED20000000
1E63F44F8038BCBA731400000000
4F19B0D909FC9889BD2000000000
8C0E65F18E300000000000000000
AA1F38B0E6002345310000000000
B92F2AA1F3AEFFEDFFC810000000
B83F1A92F2751000037DF8000000
B83F1A92F237ABCCB8305EC10000
B83F1A92F2DC97667BFC31DC1000
B83F1A92F21035664119E51D9000
B83F1A92F2AFFDCCEE916E35F300
B83F1A92F274000004DC18C0C800
B83F1A92F248CEFEC51D91F47D00
B83F1A92F3DA64338F46E0B83F10
A91F38B0F50000000B83F1A92F20
8B0E55E09D2000002D73F1A92F20
5F0AA1E81AFCA9ABFC19C0D74F00
1F54F35F70269A97306F44F28C00
09C0AC15ED8421237CE51DA1E600
01E71CD316BEFFFFD822CC18E100
006F51AF94002221028EB15F5000
0007F804BFEB999ADFD506F70000
00005EC501589AA97204BE600000
0000019ED953101248CFA2000000
000000016AEFFFFFFC8200000000
0000000000012332000000000000
ENDCHAR
STARTCHAR seven
ENCODING 55
SWIDTH 631 0
DWIDTH 23 0
BBX 21 30 1 0
BITMAP
2222222222102011021120
FFFFFFFFFFC5E0B92F38C0
222222222229B0E56E0B80
99999999993D73F19A0F50
AAAAAAAAAA3F37D0D74F10
11111111115E0B92F37C00
FFFFFFFFF99B0E55E0B900
3333333332C73F29B0E500
0000000001F37D0D74F100
0000000005E0B91F37C000
0000000008B0E55E0B9000
000000000C73F29B0E5000
000000001F47D0C73F1000
000000004F0A91F47D0000
000000008B0E65E0B90000
00000000C83F29B0E50000
00000001F46D0C73F20000
00000004F1AA1F47D00000
00000008C0E65F0B900000
0000000C82F28B0E500000
0000001F46E0C83F200000
0000004F1AA1F47D000000
0000008C0E64F1A9000000
000000B82F28C0E6000000
000000F46E0C83F2000000
000004F1AA1F46D0000000
000007C0D64F1AA0000000
00000B82F38C0E60000000
00000E56E0C82F20000000
00004F19A1F46E00000000
ENDCHAR
STARTCHAR eight
ENCODING 56
SWIDTH 808 0
DWIDTH 29 0
BBX 27 33 1 -2
BITMAP
0000000013566665430000000000
0000016CFFEDDDDDEFEB50000000
00005DE9410000000148ED400000
0008F8126ACDDDDCBA6119F80000
008F419FD97666667ADF814F8000
04F52DD5014555554105DD25F400
0CA0CC14BFFEEEEEFFB41BC18D00
3F27E16F9300000014AF71D91E40
8C0D73F616ACCCCCA615F45E1A90
A92F28C0BE9777779DC1AA1F47C0
B83F1A92F300000001F46D0D65E0
A92F29A0F710000000C46D0D65E0
9B1E56E15EFFFFFFEDB7681F47D0
5E1AA0CC21344444569DFA5D0AA0
1E62F51BFB87777765205CE61F50
08E16F5049BCCCCCDEFC408F7B00
01DB05EC510000000039F907F300
095EB229EFFEEEEEDB712DA0BC00
2F43CE810345555569EE42E62F40
7D0B57EFC87666665219E26E0B90
AA1F37849BCDDDDDEFA0B91F47C0
B83F1A92F200000003F46C0D65E0
B83F1A92F400000001F46D0D65E0
9A1F37D0AEB99999AEC1AA0F46D0
6D0C81E9048AAAAA9615F45F1AA0
2F35F34EC621111124AF70D91E50
0AB0AD229EFFFFFFFFB41BD18E10
02E80BE7102333332105DD25F500
005F706DFCA888889AEF914E9000
0005EC20489BBBBBA96118F90000
00002BFB631000000249EE600000
00000039DFFFFFFFFFFB61000000
0000000001344444420000000000
ENDCHAR
STARTCHAR nine
ENCODING 57
SWIDTH 782 0
DWIDTH 28 0
BBX 26 33 1 -2
BITMAP
00000000013554310000000000
00000029DFFEEEFFD930000000
00002BFC730000136BFC400000
0006EB3038ABCBA74029F90000
006F705DFC97779CFD704EB000
03F61BE71024442016DD32DA00
0CA0BD229EFFFFFE9319E33F40
4F18E15EC6200025AF809D19D0
AB1E53F7049BBB9503E91D82F4
D74F1AA0BEA878ADD34F37D0C8
E56D0D65F2000000AD0B82F28B
E57D0D65E10000012F38B0F47D
D65E0AA1CD7556AE1F56D0E56E
AA1E54F617BDDB830E56D0D65E
4F28D16FA30001491E56D0D65E
0D90BB13AFFEEFEB1E56D0D65E
03F61BE6113543020E56D0D65E
006F706DEB8789CF1E56D0D65E
0006EB30389BA9620E56D0D65E
00002AFC731012591E56D0D65E
00000028CFFFFFEA1F47C0E56D
00000000002321004F19B0F37C
0000000010000004DA0D74F19A
00000001CEBA9ADF908E19B0D7
000000531479A97208F52F53F2
000001AFB6421248DE51CB0BA0
0001C8039DFFFFFC812CD15E20
00314ED72012320039FB24F600
00CD317DFEB989ADFC506E8000
001AFA30268ABA96204BE60000
00004BFC953211248DFA200000
00000038CFFFFFFFB720000000
00000000002343200000000000
ENDCHAR
STARTCHAR colon
ENCODING 58
SWIDTH 262 0
DWIDTH 9 0
BBX 7 17 1 5
BITMAP
38888870
5BBBBBA0
00000000
6FFFFFD0
24444440
37777760
5CCCCCB0
00000000
00000000
00000000
26666650
6DDDDDC0
00000000
5DDDDDC0
36666660
25555540
6EEEEED0
ENDCHAR
STARTCHAR semicolon
ENCODING 59
SWIDTH 261 0
DWIDTH 9 0
BBX 7 22 1 0
BITMAP
38888870
5BBBBBA0
00000000
6FFFFFD0
24444440
37777760
5CCCCCB0
00000000
00000000
00000000
25052250
6D0D65E0
6D0D65E0
6D0D65E0
6D0D65E0
490D65E0
000E56D0
005F27C0
5EF70B90
36205F40
257BF700
6ED93000
ENDCHAR
STARTCHAR less
ENCODING 60
SWIDTH 670 0
DWIDTH 24 0
BBX 22 27 1 1
BITMAP
0000000000000000000058
0000000000000000028EF8
0000000000000005BFD710
00000000000028EEA4039B
00000000005BFC6116CFB5
000000028EE93039EE8203
000016CFC6116CFB5017DC
0039EE9304AFE8204AFD82
5CFC6117DFB5027DFA4026
A8204AFD8205BFD7205BFA
017DFB5028DFA4038EE930
8FD8205BFD7116CFC61000
74028EFA4039EE93000000
05BFC7116CFC6100000000
BE93039EE9308EA4000000
4116CFB5278205BFD71000
39EE823117DFB5027DFA40
BF9006EE93039EE8204AFB
4BFD7116CFC6116CFB5015
0028DFA4038EE93039EE82
000004AFD7105BFC6116CC
000000017DFA4028EE9302
00000000004AFD7205BFD6
00000000000017DFB5028A
0000000000000004AFE820
0000000000000000017DF9
0000000000000000000037
ENDCHAR
STARTCHAR equal
ENCODING 61
SWIDTH 473 0
DWIDTH 17 0
BBX 15 17 1 5
BITMAP
3888888888888840
5BBBBBBBBBBBBB60
0000000000000000
6FFFFFFFFFFFFF80
2444444444444420
3777777777777740
5CCCCCCCCCCCCC60
0000000000000000
0000000000000000
0000000000000000
3666666666666630
5DDDDDDDDDDDDD60
0000000000000000
6DDDDDDDDDDDDD70
2666666666666630
2555555555555530
6EEEEEEEEEEEEE70
ENDCHAR
STARTCHAR greater
ENCODING 62
SWIDTH 670 0
DWIDTH 24 0
BBX 22 27 1 1
BITMAP
6610000000000000000000
6EE9300000000000000000
005BFC6100000000000000
9A4028EE93000000000000
3AFD8205BFC71000000000
2017DFB5028EFA40000000
9E8204AFE8205BFD710000
16CFC6117DFB5027DFA400
54039EE93049EE8204AFD7
7FD7116CFC6116CF9007FE
028EFA4028EE930238EE93
00005BFD7105726CFC6116
00000028D9139EE9304AFD
0000000016CFC6117DFB50
00000039EE9304AFD8205A
00016CFB5017DFB5028DF9
039EE8204AFD7205BFD710
8FB5027DFA4028EEA4039D
4205BFD7105BFC6116CFC5
28EFA4028EE93039EE8200
9D7105BFC6116CFB500000
1039EE93039EE820000000
4CFC6117DFB50000000000
89304AFE82000000000000
017DFB5000000000000000
7FD8200000000000000000
5500000000000000000000
ENDCHAR
STARTCHAR question
ENCODING 63
SWIDTH 693 0
DWIDTH 25 0
BBX 24 31 0 0
BITMAP
000000002455531000000000
000005AEFFFEEFFC82000000
0006DEA631000037CFA20000
02CE71148ABCBA8303CE5000
1DB129EEB98779CFD507F500
0207FB50034442028FA07F20
001A506BFFFFFFE812DA0BB0
00001CE94200026CE42E72F3
0000041279BBA9408E26E0C8
0000001DC9878AEB0B91F38B
000000000000002F47C0E56D
000000000000001F46C0E66D
00004123041445CE1AA1F47C
0001F38B0F4CEC923F45E1A9
0001F38B0F400017E90C91F5
0001F38B0F4DDEFD609D18E1
0001F38B0F4554302BE33E60
0001F38B0F46779CFA12DA00
0001F38B0F4CCB97206EB100
0001F38B0F4000137DE70000
0001F38B0F4EFFFFC8100000
0001F38B0F43332100000000
0001F38B0F40000000000000
000161340610000000000000
000455555550000000000000
000BEEEEEED0000000000000
000000000000000000000000
000ACCCCCCB0000000000000
000577777760000000000000
000344444440000000000000
000CFFFFFFE0000000000000
ENDCHAR
STARTCHAR at
ENCODING 64
SWIDTH 1076 0
DWIDTH 39 0
BBX 37 35 1 -3
BITMAP
00000000000001468998752000000000000000
000000000006BFFDBAAACEFD83000000000000
0000000006DE941001110026BFB30000000000
00000004DE8116ADFFFFEC9402AF9100000000
0000006FA118EEA6433357BFE712CD30000000
000009F607ED6004688763017DE608E5000000
00008E31BE604AEFCBBBDFE9206EA15F500000
0005F51DD22BFA400000015BFA12CC16E30000
002E70BC15EB2000000000003BE41CC08D1000
00AC09D25F7000169BBA8400007F41D91D8000
03F43F44F70008EEA889BEE70006E34F45E100
0AA0BA0D9001CE601332016ED1009C0AC0C700
1F43F27E100CD22AFFFFFA31CC101D72F36D00
5E08B0D7007E24EC51125BF71D8006D0B92F20
9B0D73F101E72E9049A9406F45E101F37C0D60
B80F47D005F1AC09FB9AEB0BA1F400D74F0B80
D62F29A008B0E54F50002F57C0E600B83F1A90
E53F1A9009A1F38B00000D66D0D600A92F29A0
D62F29B009A1F38C00000D66D0D600A92F29A0
C71F37C007C0D63F60000D66D0D600A92F29A0
A90D64F103F28D14DEDD5D66D0D600A92F29A0
8D0AA0E600CA1CC302441D65E0C800D73F1A90
4F25F19D003E718FC9993B83F26FCDE27D0C70
0E80D82E7004E911578838C0CB037612E71F40
08E26E27F4002BEA644423F42DD7448EA09D00
01E90CB0AE400038BDED509E218DFFC605F400
007F42E90AF810000000000AE71000019F7000
000CE24F906ED730000000007EFCAACFD40000
0002DC14EC218DFEDCCCDE7000489974000000
00003ED32BF920256776652000000000000000
000002DE605CFC865455676000000000000000
0000001AFC4038BDEFEEEDA000000000000000
000000004BFC73000000000000000000000000
000000000049EFEDCBCCDEF200000000000000
00000000000002577877664100000000000000
ENDCHAR
STARTCHAR A
ENCODING 65
SWIDTH 936 0
DWIDTH 34 0
BBX 33 30 0 0
BITMAP
0000000000002102011011000000000000
000000000002FB0E63F27D000000000000
000000000008EF28C0C82F400000000000
00000000000E6D72F36E0BA00000000000
00000000005E17D0B91E55F10000000000
0000000000B912F46E19B0E70000000000
0000000002F465AA1E64F28D0000000000
0000000008D0C84F19C0D82F4000000000
000000000E73F20D73F37D0BA000000000
000000005F19B067D0C91F45E100000000
00000000BA1E54E2F46E1AA0E600000000
00000002F46E0AA0BA1E64F28C00000000
00000008D0C91F425F19B0D72F30000000
0000000D73F37D0B2D73F27D0B90000000
0000004F19C0D82F38D0C81F45E1000000
000000AA1E64F28C02F46E0AA0E6000000
000001F45E1AB0E700BA1E54F19C000000
000007D0B91F55F1005E19B0D73F300000
00000D72F36E0BA0000E63F27D0C900000
00004F28C0C82F400008C0D82F46E10000
0000AB0E63F28D6CCCC5F37E0AA1E60000
0001F55E19B0D7577773B91F55F19C0000
0007E0B91E54F34444446E1AB0D73F3000
000D82F36E0AA9FFFFFF6E64F28D0C9000
004F28C0C91F4000000008C0D82F36E000
00AB0E63F37D5BBBBBBBB5F37D0B91E500
01F55F19C0D75888888883C91F55E19B00
07E0BA1E64F200000000006E1AA0E63F20
0C82F46E1AB000000000001E64F28C0C80
3F27D0C91F50000000000009C0D72F37E0
ENDCHAR
STARTCHAR B
ENCODING 66
SWIDTH 862 0
DWIDTH 31 0
BBX 29 30 1 0
BITMAP
122222222222222222100000000000
5FFFFFFFFFFFFFFFFFFFD940000000
5E2222222222222222346BFB200000
5E079999999999999987402CE40000
5E0CCAAAAAAAAAAAAABCFD608F3000
5E0C701111111111110017FA09E200
5E0C74FFFFFFFFFFFFFE913E90CA00
5E0C74F3333333333346CE33F54F20
5E0C74F06888888888740AE19C0D70
5E0C74F0CDBBBBBBBBCF90D73F29A0
5E0C74F0C80000000003F29B0F47C0
5E0C74F0C80000000002F28B0F47C0
5E0C74F0C8688888888DD0B82F29A0
5E0C74F0C89BBBBBBBB824F27C0D60
5E0C74F0C800000000028F72E45E10
5E0C74F0C8CFFFFFFFFFF70AB0D800
5E0C74F0C83444444446BF61E56E10
5E0C74F0C8788888888616F37D0D60
5E0C74F0C89BBBBBBBBEC0C92F29A0
5E0C74F0C80000000002F38B0F47C0
5E0C74F0C80000000004F29A1F48B0
5E0C74F0C8ADDDDDDDDFA0D73F1AA0
5E0C74F0C8566666666309E19B0E70
5E0C74F0C84555555557DE33F45F20
5E0C74F0C8BEEEEEEEEC813E80DB00
5E0C74F0C8000000000028F909F200
5E0C74F0C8ACCCCCCCCEFC509F6000
5E0C74F0C86777777775204CF60000
5E0C74F0C834444444468DFB300000
5E0C74F0C8CFFFFFFFFEC830000000
ENDCHAR
STARTCHAR C
ENCODING 67
SWIDTH 852 0
DWIDTH 31 0
BBX 29 33 1 -2
BITMAP
000000000000035554200000000000
00000000016BFFEEEFFEA500000000
000000017EE841000026AFD5000000
0000004ED60269BCCB85018FB20000
000007F814BFEA8778BFE812CE3000
00009E519FB4013442016DE509E400
0006F42DD406CFFFFFEA307F909E20
003F62DB14DE8410025BF914E90B90
00CA0CC07FA116ABA9404DD23F7100
05F28E16F608ED989BFD41BD153000
0C81F63F71CE50000019F61C600000
3F28D0BB0BD2000000005F40000000
7C0D83F36E20000000000410000000
B82F38C0D800000000000000000000
D65F0B82F200000000000000000000
F46D0D65E000000000000000000000
F47C0E56D000000000000000000000
F46D0D65E000000000000000000000
D65F0B82F200000000000000000000
B92F38C0C800000000000000000000
7D0D82F35F30000000000610000000
3F37D1AC0AD2000000007F41000000
0C91E72E80AE7100003BE51D600000
04F27E25F806EEB9ACFB22CC164000
00BB0BD15FB2158A97205EC15F5210
003E71DC23CFA521237CF805F80C90
0005F51CE504AEFFFFD8219F70AE10
00007F608FC6102321027ED41BE300
000006F9129EFCA89ADFD714DD2000
0000003DE71158ABA97303AFA10000
000000006DEA63101247CFB4000000
00000000005AEFFFFFFC8300000000
000000000000013432000000000000
ENDCHAR
STARTCHAR D
ENCODING 68
SWIDTH 886 0
DWIDTH 32 0
BBX 30 30 1 0
BITMAP
122222222222222221000000000000
5FFFFFFFFFFFFFFFFFFC7200000000
5E222222222222222358DF91000000
5E07999999999999986205ED300000
5E0CCAAAAAAAAAAAABDFC41AF40000
5E0C7011111111111003AF809F3000
5E0C74FFFFFFFFFFFFC704EA0AD100
5E0C74F333333333348ED23E81D900
5E0C74F0688888888621BD25F35F20
5E0C74F0CDBBBBBBBDF71BC0AC0D90
5E0C74F0C8000000005F62F63F37E0
5E0C74F0C80000000007E19D0C82F4
5E0C74F0C80000000000D73F38C0D7
5E0C74F0C800000000009B0E65F0BA
5E0C74F0C800000000006D0D83F29B
5E0C74F0C800000000005E0B82F28B
5E0C74F0C800000000006D0C83F19B
5E0C74F0C800000000009B0E55F0B9
5E0C74F0C80000000001E63F28C0D7
5E0C74F0C80000000008E19C0C83F3
5E0C74F0C8000000007F52F53F37E0
5E0C74F0CEDDDDDDDEE61CB0BB0D80
5E0C74F0566666666512CD16F36E10
5E0C74F555555555569EB14F71E800
5E0C74EEEEEEEEEEEDB506F90BC000
5E0C7000000000000004BF70AE2000
5E0CDCCCCCCCCCCCCDFFA22BE30000
5E06777777777777764117EC200000
5E44444444444444446AEE70000000
5FFFFFFFFFFFFFFFFFDA6100000000
ENDCHAR
STARTCHAR E
ENCODING 69
SWIDTH 706 0
DWIDTH 25 0
BBX 23 30 1 0
BITMAP
110110201222222222222220
5E0C74F0CFFFFFFFFFFFFFE0
5E0C74F0C922222222222220
5E0C74F0CC99999999999980
5E0C74F0CDAAAAAAAAAAAAA0
5E0C74F0C811111111111110
5E0C74F0CFFFFFFFFFFFFFE0
5E0C74F0C933333333333330
5E0C74F0C800000000000000
5E0C74F0C800000000000000
5E0C74F0C800000000000000
5E0C74F0C800000000000000
5E0C74F0CDBBBBBB40000000
5E0C74F0CC88888830000000
5E0C74F0C933333310000000
5E0C74F0CFFFFFFF60000000
5E0C74F0C811111100000000
5E0C74F0CCAAAAAA40000000
5E0C74F0CC99999940000000
5E0C74F0C800000000000000
5E0C74F0C800000000000000
5E0C74F0C800000000000000
5E0C74F0C800000000000000
5E0C74F0CA55555555555550
5E0C74F0CFEEEEEEEEEEEED0
5E0C74F0C800000000000000
5E0C74F0CECCCCCCCCCCCCB0
5E0C74F0CB77777777777770
5E0C74F0CA44444444444440
5E0C74F0CFFFFFFFFFFFFFE0
ENDCHAR
STARTCHAR F
ENCODING 70
SWIDTH 683 0
DWIDTH 25 0
BBX 23 30 1 0
BITMAP
110110201222222222222200
5E0C74F0CFFFFFFFFFFFFF40
5E0C74F0C922222222222210
5E0C74F0CC99999999999920
5E0C74F0CDAAAAAAAAAAAA20
5E0C74F0C811111111111100
5E0C74F0CFFFFFFFFFFFFF40
5E0C74F0C933333333333310
5E0C74F0C800000000000000
5E0C74F0C800000000000000
5E0C74F0C800000000000000
5E0C74F0C800000000000000
5E0C74F0C800000000000000
5E0C74F0CB77777777777400
5E0C74F0CECCCCCCCCCCC800
5E0C74F0C800000000000000
5E0C74F0CEEEEEEEEEEEE900
5E0C74F0CA55555555555300
5E0C74F0CA66666666666400
5E0C74F0CEDDDDDDDDDDD800
5E0C74F0C800000000000000
5E0C74F0C800000000000000
5E0C74F0C800000000000000
5E0C74F0C800000000000000
5E0C74F0C800000000000000
5E0C74F0C800000000000000
5E0C74F0C800000000000000
5E0C74F0C800000000000000
5E0C74F0C800000000000000
5E0C74F0C800000000000000
ENDCHAR
STARTCHAR G
ENCODING 71
SWIDTH 908 0
DWIDTH 33 0
BBX 31 33 1 -2
BITMAP
00000000000003555420000000000000
00000000016BFFEEEFFEA50000000000
000000017EE841000026AFD500000000
0000004ED60269BCCB85018FB2000000
000007F814BFEA8778BFE812CE300000
00009E519FB4013442016DE509E40000
0006F42DD406CFFFFFEA307F909E2000
003F62DB14DE8410025BF914E90B9000
00CA0CC07FA116ABA9404DD23F710000
05F28E16F608ED989BFD41BD15300000
0C81F63F71CE50000019F61C60000000
3F28D0BB0BD2000000005F4000000000
7C0D83F36E2000000000041000000000
B82F38C0D80000000000000000000000
D65F0C82F20000000000000000000000
F46D0D65E00000000000022030220310
F47C0E56D000000000000A92F29A1F30
F46D0D65E000000000000A92F29A1F30
D65E0B83F200000000000A92F29A1F30
B82F28B0E600000000000A92F29A1F30
8C0D63F27D10000000000A92F29A1F30
4F28C0C91DB1000000000A92F29A1F30
0D82F44F42DD500000027E92F29A1F30
06E19D17E418EEB99ADFDD92F29A1F30
00D91DB08F81158AA9630A92F29A1F30
005F52EA14DE95211258DF92F29A1F30
0008E32DD405AEFFFFFB7B92F29A1F30
0000AE419FB5001331014C92F29A1F30
000008F803AFEB989ACFFF92F29A1F30
0000005ED60158ABA9851A92F29A1F30
000000018EE953101247BE92F29A1F30
00000000016BEFFFFFFDA61000000000
00000000000002343310000000000000
ENDCHAR
STARTCHAR H
ENCODING 72
SWIDTH 901 0
DWIDTH 32 0
BBX 30 30 1 0
BITMAP
110110201100000000000201102011
5E0C74F0C800000000002F29A1F38B
5E0C74F0C800000000002F29A1F38B
5E0C74F0C800000000002F29A1F38B
5E0C74F0C800000000002F29A1F38B
5E0C74F0C800000000002F29A1F38B
5E0C74F0C800000000002F29A1F38B
5E0C74F0C800000000002F29A1F38B
5E0C74F0C800000000002F29A1F38B
5E0C74F0C800000000002F29A1F38B
5E0C74F0C800000000002F29A1F38B
5E0C74F0C800000000002F29A1F38B
5E0C74F0CDBBBBBBBBBBBF29A1F38B
5E0C74F0CC88888888889F29A1F38B
5E0C74F0C933333333334F29A1F38B
5E0C74F0CFFFFFFFFFFFFF29A1F38B
5E0C74F0C811111111112F29A1F38B
5E0C74F0CDAAAAAAAAAABF29A1F38B
5E0C74F0CC9999999999AF29A1F38B
5E0C74F0C800000000002F29A1F38B
5E0C74F0C800000000002F29A1F38B
5E0C74F0C800000000002F29A1F38B
5E0C74F0C800000000002F29A1F38B
5E0C74F0C800000000002F29A1F38B
5E0C74F0C800000000002F29A1F38B
5E0C74F0C800000000002F29A1F38B
5E0C74F0C800000000002F29A1F38B
5E0C74F0C800000000002F29A1F38B
5E0C74F0C800000000002F29A1F38B
5E0C74F0C800000000002F29A1F38B
ENDCHAR
STARTCHAR I
ENCODING 73
SWIDTH 338 0
DWIDTH 12 0
BBX 10 30 1 0
BITMAP
1101102011
5E0C74F0C8
5E0C74F0C8
5E0C74F0C8
5E0C74F0C8
5E0C74F0C8
5E0C74F0C8
5E0C74F0C8
5E0C74F0C8
5E0C74F0C8
5E0C74F0C8
5E0C74F0C8
5E0C74F0C8
5E0C74F0C8
5E0C74F0C8
5E0C74F0C8
5E0C74F0C8
5E0C74F0C8
5E0C74F0C8
5E0C74F0C8
5E0C74F0C8
5E0C74F0C8
5E0C74F0C8
5E0C74F0C8
5E0C74F0C8
5E0C74F0C8
5E0C74F0C8
5E0C74F0C8
5E0C74F0C8
5E0C74F0C8
ENDCHAR
STARTCHAR J
ENCODING 74
SWIDTH 434 0
DWIDTH 16 0
BBX 15 32 0 -2
BITMAP
0000011020110200
00000C74F0B83F10
00000C74F0B83F10
00000C74F0B83F10
00000C74F0B83F10
00000C74F0B83F10
00000C74F0B83F10
00000C74F0B83F10
00000C74F0B83F10
00000C74F0B83F10
00000C74F0B83F10
00000C74F0B83F10
00000C74F0B83F10
00000C74F0B83F10
00000C74F0B83F10
00000C74F0B83F10
00000C74F0B83F10
00000C74F0B83F10
00000C74F0B83F10
00000C74F0B83F10
00000E55E0C74F00
00006F28B0E56D00
299BF71E63F29B00
2AA941BD0AB0E600
01125CD24F36E100
3FFFE914E71D8000
0332017F90AD1000
1889BEE509E30000
2BBB9513CE300000
000126BFA2000000
3FFFFE9300000000
1443200000000000
ENDCHAR
STARTCHAR K
ENCODING 75
SWIDTH 815 0
DWIDTH 29 0
BBX 28 30 1 0
BITMAP
1101102011000000012011011011
5E0C74F0C800000009C0C91E72F4
5E0C74F0C80000002F45F27D0AB0
5E0C74F0C8000000AB0C91E63F40
5E0C74F0C8000003F45F28D0AB00
5E0C74F0C800000AB0C81E63F300
5E0C74F0C800003F35E18D0AB000
5E0C74F0C80000BB0D81E63F3000
5E0C74F0C80003F36E18D0BA0000
5E0C74F0C8000BA0D81E53F30000
5E0C74F0C8004F36E19C0BA00000
5E0C74F0C800BA0D72F54F200000
5E0C74F0C804F26E19C0BA000000
5E0C74F0C80C90D72F54F2000000
5E0C74F0C84F27E19C0C90000000
5E0C74F0C8AC0C90E72F40000000
5E0C74F0C83F36E18D0BA0000000
5E0C74F0C80BA0D81E53F3000000
5E0C74F0C803F35E18D0BB000000
5E0C74F0C800AB0D81E63F300000
5E0C74F0C8003F35F28D0AB00000
5E0C74F0C8000AB0C91E63F40000
5E0C74F0C80002F45F27D0AB0000
5E0C74F0C80000AB0C91E62F4000
5E0C74F0C800002F44F27E1AC000
5E0C74F0C8000009C0C91E72F400
5E0C74F0C8000002F44F27E19C00
5E0C74F0C80000009C0BA1E72F40
5E0C74F0C80000002F54F26E19C0
5E0C74F0C800000009C0BA0D72F5
ENDCHAR
STARTCHAR L
ENCODING 76
SWIDTH 604 0
DWIDTH 22 0
BBX 20 30 1 0
BITMAP
11011020110000000000
5E0C74F0C80000000000
5E0C74F0C80000000000
5E0C74F0C80000000000
5E0C74F0C80000000000
5E0C74F0C80000000000
5E0C74F0C80000000000
5E0C74F0C80000000000
5E0C74F0C80000000000
5E0C74F0C80000000000
5E0C74F0C80000000000
5E0C74F0C80000000000
5E0C74F0C80000000000
5E0C74F0C80000000000
5E0C74F0C80000000000
5E0C74F0C80000000000
5E0C74F0C80000000000
5E0C74F0C80000000000
5E0C74F0C80000000000
5E0C74F0C80000000000
5E0C74F0C80000000000
5E0C74F0C80000000000
5E0C74F0C80000000000
5E0C74F0CA5555555553
5E0C74F0CFEEEEEEEEE9
5E0C74F0C80000000000
5E0C74F0CECCCCCCCCC7
5E0C74F0CB7777777774
5E0C74F0CA4444444442
5E0C74F0CFFFFFFFFFF9
ENDCHAR
STARTCHAR M
ENCODING 77
SWIDTH 920 0
DWIDTH 33 0
BBX 31 30 1 0
BITMAP
12012011000000000000000110110210
5F63F45F200000000000001E63F45F70
5FD0AC0CA00000000000009D0AB0DF70
5EE72F54F3000000000002F53F36FE70
5E7E19C0BA00000000000AC0BA0D8C70
5E1D72F53F30000000003F44F26E1C70
5E06E18D0AB000000000AB0C91E70C70
5E01D81E63F400000003F35F27E20C70
5E085E27E1AC0000000BA0D91E790C70
5E0C3C91E72F5000004F36E18D3E0C70
5E0C75F27E19D00000C90D81E65E0C70
5E0C70CA0D82E60005F26E19D05E0C70
5E0C724F36E18D000D91E72F535E0C70
5E0C745BB0D91E606E17D19C565E0C70
5E0C74D3F35F27E1D81E62F4C65E0C70
5E0C74F0AB0C91E7818D0AB0D65E0C70
5E0C74F02F44F27E11E53F30D65E0C70
5E0C74F039C0BA0D86C0BA40D65E0C70
5E0C74F0A2F53F36E244F3B0D65E0C70
5E0C74F0C68D0BB0D90CA6D0D65E0C70
5E0C74F0C81E63F45F6F26D0D65E0C70
5E0C74F0C808D0AC0CF906D0D65E0C70
5E0C74F0C8016226136106D0D65E0C70
5E0C74F0C8000000000006D0D65E0C70
5E0C74F0C8000000000006D0D65E0C70
5E0C74F0C8000000000006D0D65E0C70
5E0C74F0C8000000000006D0D65E0C70
5E0C74F0C8000000000006D0D65E0C70
5E0C74F0C8000000000006D0D65E0C70
5E0C74F0C8000000000006D0D65E0C70
ENDCHAR
STARTCHAR N
ENCODING 78
SWIDTH 877 0
DWIDTH 32 0
BBX 29 30 1 0
BITMAP
120120120120000000002011011110
5F81E71E72E600000000E56D0D65E0
5FF26E26E27E10000000E56D0D65E0
5EBB0CA0CA0CA0000000E56D0D65E0
5E2F53F43F53F4000000E56D0D65E0
5E08E18D19D19D000000E56D0D65E0
5E01D91D81E81E700000E56D0D65E0
5E085F35F25F36E20000E56D0D65E0
5E0C4AC0BB0BB0CB0000E56D0D65E0
5E0C72E62F62F63F5000E56D0D65E0
5E0C707E17E18E18D100E56D0D65E0
5E0C743CA0D91D91D800E56D0D65E0
5E0C74B3F44F34F35F30E56D0D65E0
5E0C74F09D0AC0AC0BC0E56D0D65E0
5E0C74F01E71E72E72E6956D0D65E0
5E0C74F056E26E27E27E236D0D65E0
5E0C74F0B3BB0CA0CA0D906D0D65E0
5E0C74F0C83F53F43F44F46D0D65E0
5E0C74F0C808D19D19D1AC3C0D65E0
5E0C74F0C801D81E81E81E760D65E0
5E0C74F0C8005F35F26F26E20D65E0
5E0C74F0C8000AC0BB0BB0CA0D65E0
5E0C74F0C80002E62F63F53F5A65E0
5E0C74F0C800007E17E18E19D355E0
5E0C74F0C800000C90D91D91E805E0
5E0C74F0C8000004F34F35F35F25E0
5E0C74F0C80000009C0AC0AC0BB5E0
5E0C74F0C80000001E71E72E62FBE0
5E0C74F0C800000006E26E27E18FE0
5E0C74F0C800000000CA0CA0DA1DE0
ENDCHAR
STARTCHAR O
ENCODING 79
SWIDTH 933 0
DWIDTH 34 0
BBX 32 33 1 -2
BITMAP
00000000000013555420000000000000
00000000016BFFEEEFFE940000000000
000000017EE841000026AFC400000000
0000004ED60269BCCB85029FB1000000
000007F814BFEA8779BFE812CD300000
00009E519FB4013442016DE60AE30000
0006F42DD406CFFFFFEA307F909D2000
003F62DB14DE8410025BFA14E90BC000
00CA0CC07FA116ABB9403DD23F71E600
05F28E16F608ED988BFD41BD26F27D00
0C81F63F71CE50000019F71DB0CA1E60
3F28D0BB0BD2000000005F53F54F28C0
7C0D83F36E200000000007E19C0D73F1
B82F38C0D8000000000000D73F29B0E5
D65F0B82F20000000000008B0E65E0C7
F46D0D65E00000000000005E0C84F0A9
F47C0E56D00000000000004F0B83F1A9
F46D0D65E00000000000005E0C74F0A9
D65F0B82F20000000000008B0E56E0C7
B92F38C0C8000000000001E63F29B0E5
7D0D82F35F300000000009D09C0E74F1
3F37D1AC0AD2000000007F43F45F29B0
0C91E72E80AE7000002AF51DA0D91E60
04F27E25F806EEB9ACFB32CD17E28D00
00BB0BD15FB2158A97305EC24F52F500
003E71DC23CFA521237CF815F81CB000
0005F51CE505AEFFFFD8219F70AD1000
00007F608FC6102321038ED41BE20000
000006F9129EFCA89BDFD704DC200000
0000003DE71158ABA97303BF91000000
000000006DEA63100247CFB300000000
00000000005AEFFFFFFC830000000000
00000000000001343200000000000000
ENDCHAR
STARTCHAR P
ENCODING 80
SWIDTH 850 0
DWIDTH 31 0
BBX 29 30 1 0
BITMAP
122222222222222222100000000000
5FFFFFFFFFFFFFFFFFFEB610000000
5E2222222222222222359EE5000000
5E079999999999999986118F900000
5E0CCAAAAAAAAAAAAABEF914EA0000
5E0C70111111111111004DD33F7000
5E0C74FFFFFFFFFFFFFB41AE16F200
5E0C74F3333333333359F80BB0C900
5E0C74F06888888888614F62F45E10
5E0C74F0CDBBBBBBBBED27E1AA1F40
5E0C74F0C8000000000BA1F46D0D60
5E0C74F0C80000000006D0D65E0C70
5E0C74F0C80000000008C0E56D0D60
5E0C74F0C8255555557E73F29B0F50
5E0C74F0C87EEEEEEED80BB0E74F10
5E0C74F0C80000000002AE27E19C00
5E0C74F0C86CCCCCCCDFC23F62F600
5E0C74F0C8477777776306E90BD000
5E0C74F0C82444444457DF609F4000
5E0C74F0C88FFFFFFFFC821BF60000
5E0C74F0C8000000000038EE400000
5E0C74F0C86BBBBBBBCEFD71000000
5E0C74F0C848888888763000000000
5E0C74F0C800000000000000000000
5E0C74F0C800000000000000000000
5E0C74F0C800000000000000000000
5E0C74F0C800000000000000000000
5E0C74F0C800000000000000000000
5E0C74F0C800000000000000000000
5E0C74F0C800000000000000000000
ENDCHAR
STARTCHAR Q
ENCODING 81
SWIDTH 937 0
DWIDTH 34 0
BBX 32 35 1 -4
BITMAP
00000000000013555420000000000000
00000000016BFFEEEFFE940000000000
000000017EE841000026AFC400000000
0000004ED60269BCCB85029FB1000000
000007F814BFEA8779BFE812CD300000
00009E519FB4013442016DE60AE30000
0006F42DD406CFFFFFEA307F909D2000
003F62DB14DE8410025BFA14E90BC000
00CA0CC07FA116ABB9403DD23F71E600
05F28E16F608ED988BFD41BD26F27D00
0C81F63F71CE50000019F71DB0CA1E60
3F28D0BB0BD2000000005F53F54F28C0
7C0D83F36E200000000007E19C0D73F1
B82F38C0D8000000000000D73F29B0E5
D65F0B82F20000000000008B0E65E0C7
F46D0D65E00000000000005E0C84F0A9
F47C0E56D00000000000004F0B83F1A9
F46D0D65E00000000007505E0C74F0A9
D65F0B82F20000000418E18B0E56E0C7
B92F38C0C80000010D90D4E63F29B0E5
7D0D82F35F30001E44F419D09C0E74F1
3F37D1AC0AD20009D0847F43F45F29B0
0C91E72E80AE7001922AF51DA0D91E60
04F27E25F806EEB9ACFB32CD17E28D00
00BB0BD15FB2158A97305EC24F52F500
003E71DC23CFA521237CF815F81CB000
0005F51CE505AEFFFFD8219F70AD1000
00007F608FC6102321038ED41BE20000
000006F9129EFCA89BDFD704DC320000
0000003DE71158ABA97303BF919C0000
000000006DEA63100247CFB3762E7000
00000000005AEFFFFFFC83726E27E000
0000000000000134320000CB0CA02000
00000000000000000000003F53600000
00000000000000000000000890000000
ENDCHAR
STARTCHAR R
ENCODING 82
SWIDTH 843 0
DWIDTH 30 0
BBX 29 30 1 0
BITMAP
122222222222222222100000000000
5FFFFFFFFFFFFFFFFFFEB610000000
5E2222222222222222359EE5000000
5E079999999999999986118F800000
5E0CCAAAAAAAAAAAAABEF914E90000
5E0C70111111111111004CD33F6000
5E0C74FFFFFFFFFFFFFB41AD16E100
5E0C74F3333333333359F80CB0C800
5E0C74F06888888888614F53F36D00
5E0C74F0CDBBBBBBBBED17D0C82F20
5E0C74F0C8000000000C82F29B0F40
5E0C74F0C80000000009A1F38B0F40
5E0C74F0C8000000003D73F19A1F30
5E0C74F0C8CFFFFFFFFC19C0D64F10
5E0C74F0C834444444206F44F28D00
5E0C74F0C8677777778CF51D91E700
5E0C74F0C89CCCCCCCB822CC09E100
5E0C74F0C800000000038EB16F6000
5E0C74F0C8BEEEEEEEFFD607F90000
5E0C74F0C8455555554203BF800000
5E0C74F0C85666666679CFF7000000
5E0C74F0C8ADDDDFDEECF5BA000000
5E0C74F0C800000E66D0E66F100000
5E0C74F0C8000009B2F39B1F500000
5E0C74F0C8000005F1C84F2AB00000
5E0C74F0C8000000E57D0E75F10000
5E0C74F0C8000000AA2F39C0E60000
5E0C74F0C80000005E0C83F29B0000
5E0C74F0C80000001F57D0D74F1000
5E0C74F0C80000000B92F38C0E6000
ENDCHAR
STARTCHAR S
ENCODING 83
SWIDTH 682 0
DWIDTH 25 0
BBX 24 33 0 -2
BITMAP
000000000145554200000000
00000028DFFFEFFFEB710000
000008FD8410001259DE9200
0001CE6037ACCCB95205BF60
000BD22BFC97778BEFB506E6
007E24EB30244430039EC220
01E72E806DFFFFFFC722A500
06E0AC0AE72000137CF60000
0AA1F45F317ABBA840410000
0D74F0A90DD8789AE6000000
0E65E0D73F10000000000000
0D65E0C82F30000000000000
0C83F19B0AFFFFDC83000000
09B0E63F60244458CFB30000
05F18D17FB87765203BE5000
00D81DB139BCCDEFD508F300
005F32DD620000028F80AD00
000AE318EFFEEDC814E61E60
0000AF810345567DD26E19C0
000005DFB8666521CB0D74F1
000000048BCDDEF44F19A1F4
00000000000000AA1F47C0E5
000000010000009A0F47C0E5
0000001DDBA99CF43F28B0F4
00000621579A9821CB0D73F2
00001BFB6421136DD26E28D0
001C7039CFFFFFD814E71E70
0305ED72002331018F80BD00
1DC217DFEB9889CFD509E300
01BF930268ABBA7404CE4000
0004BFC953201247CFA20000
0000038CEFFFFFFD93000000
000000000234431000000000
ENDCHAR
STARTCHAR T
ENCODING 84
SWIDTH 591 0
DWIDTH 21 0
BBX 20 30 1 0
BITMAP
12222222222222222220
EFFFFFFFFFFFFFFFFFF1
22222222222222222220
89999999999999999991
AAAAAAAAAAAAAAAAAAA1
11111111111111111110
EFFFFFFFFFFFFFFFFFF1
33333D87E3D96F333330
00000D65E0C74F000000
00000D65E0C74F000000
00000D65E0C74F000000
00000D65E0C74F000000
00000D65E0C74F000000
00000D65E0C74F000000
00000D65E0C74F000000
00000D65E0C74F000000
00000D65E0C74F000000
00000D65E0C74F000000
00000D65E0C74F000000
00000D65E0C74F000000
00000D65E0C74F000000
00000D65E0C74F000000
00000D65E0C74F000000
00000D65E0C74F000000
00000D65E0C74F000000
00000D65E0C74F000000
00000D65E0C74F000000
00000D65E0C74F000000
00000D65E0C74F000000
00000D65E0C74F000000
ENDCHAR
STARTCHAR U
ENCODING 85
SWIDTH 905 0
DWIDTH 33 0
BBX 30 32 1 -2
BITMAP
110201102000000000000111101102
8B0F47C0E500000000000D65E0C74F
8B0F47C0E500000000000D65E0C74F
8B0F47C0E500000000000D65E0C74F
8B0F47C0E500000000000D65E0C74F
8B0F47C0E500000000000D65E0C74F
8B0F47C0E500000000000D65E0C74F
8B0F47C0E500000000000D65E0C74F
8B0F47C0E500000000000D65E0C74F
8B0F47C0E500000000000D65E0C74F
8B0F47C0E500000000000D65E0C74F
8B0F47C0E500000000000D65E0C74F
8B0F47C0E500000000000D65E0C74F
8B0F47C0E500000000000D65E0C74F
8B0F47C0E500000000000D65E0C74F
8B0F47C0E500000000000D65E0C74F
8B0F47C0E500000000000D65E0C74F
8B0F47C0E500000000000E55D0D64E
7C0D55E0C800000000001F37C0E56D
5E0B82F37D10000000008D0B82F38C
2F37D0C91DA000000004F53F36D0C8
0C82F44F43EC3000017F81CA0D82F4
07E19C09E32BFCA9BEE50AE26E18D0
01E81E90AF70379A8502CE33E62F60
006F33E807ED732125AFB23E90BC00
000AE24EA117CFFFFEA406EA09E200
0001CD22CE8201231015CE608F4000
00001BE505CFDA989CEE812BE40000
0000008FC40269AB984018FC200000
00000003BFD84200136AFD60000000
00000000028CFFFFFFEA5000000000
000000000000023431000000000000
ENDCHAR
STARTCHAR V
ENCODING 86
SWIDTH 940 0
DWIDTH 34 0
BBX 33 30 0 0
BITMAP
1201101102000000000000012011011020
2F46E1AB0E60000000000009C0D82F46E0
0BA1E64F28C000000000000E64F28D0C80
05F19B0D72F300000000005E1AB0D73F30
00E73F27D0B90000000000B91F55F19C00
008D0C82F45E1000000002F36E0BA1E600
002F36E0AA0E6000000008C0C82F46E100
000B91E54F19C00000000E63F27D0C9000
0005E19B0D73F30000005E19B0D73F3000
0000E63F28D0C9000000B91E54F19C0000
00008C0C82F46E100002F36E0AA0E60000
00002F37E0BA1E600008D0C81F45E10000
00000B91F55F19B0000E73F27D0B900000
000005E1AB0E73F2005F19C0D72F300000
000000E64F28C0C800BA1E64F28C000000
0000009C0D82F36E02F46E1AB0E6000000
0000003F37D0B91E57D0C91F55E1000000
0000000C91F45E192D73F37D0B90000000
00000006E1AA0E614F19C0D82F40000000
00000001E54F18C0AA0E64F28D00000000
000000009B0D72E2F45E1AB0D700000000
000000003F27D057D0B91E55F100000000
000000000C82F40D72F36E0BA000000000
0000000006E0A94F28C0C82F4000000000
0000000001E545AB0E63F27D0000000000
00000000009B01F55E19B0D70000000000
00000000003F27D0B91E54F10000000000
00000000000C8D82F46E0AA00000000000
000000000006EF28D0C81F400000000000
000000000001EB0D73F27D000000000000
ENDCHAR
STARTCHAR W
ENCODING 87
SWIDTH 1161 0
DWIDTH 42 0
BBX 41 30 0 0
BITMAP
020110201100000011020110200000002011011020
2F37C0D64F100001F46D0C82F7000004F1AA1F46D0
0D73F19A0F500004F1AA1F46FC000008C0D65E0AA0
09B0E55E0B900008B0E65E0ADF10000C82F29B0E60
05F0A91F37D0000C73F29B0E6E50001F46D0D73F20
01F46D0C73F2001F37D0D73F1AA0005E0A91F37D00
00C82F28B0E6005E0B92F37F36E0009B0E55E0B900
008C0D64F0AA009B0E56E0BF72F300D73F19A0F500
004F19A1F46E00D74F1AA1FDC0C802F37C0D64F100
001F55E0B82F32F38C0E64F5F18C06E0B82F28C000
000B91F37C0D76E0C83F28C0E54F1AA1F46D0C8000
0007D0C73F198AA1F47D0CD0BA0E6E64F1A91F4000
0003F28B0E554E65E0B91FF36E0ADF28B0E55E0000
0000E64E0B913F28B0E55ED72F36FD0C73F19B0000
0000AA1F47D07D0C73F19B9C0D82F91F37C0D70000
00006E0B83F1B91F37C0D75F18C0F55E0B82F30000
00002F37C0E3E55E0B82F91F54F5F19A1F46E00000
00000D74F194F19A1F46FD0BA0EDC0D64F1AA00000
000009B0E418C0D64F1ACF37E0AF82F28C0E600000
000005E0B80C82F28B0E6E72F36F46D0C83F200000
000001F47C1F46D0C73F29B0D85F0A91F47D000000
000000C83D5E0A91F37D05F19C9B0E55E0B9000000
0000008C089B0E55E0B901F54FE73F19B0E5000000
0000005F11D73F19B0E500B90EF37C0D74F1000000
0000001F42F37C0D74F1007E0BE0B82F38C0000000
0000000C86E0B82F38C0002F3AA0E46E0C80000000
00000008CAA1F46E0C80000D7E64F1AA1F40000000
00000004FE64F1AA1F400008DF28C0E64F10000000
00000000EF28B0E65F000004FD0C83F28B00000000
00000000BD0C73F29B000000E91F47D0C700000000
ENDCHAR
STARTCHAR X
ENCODING 88
SWIDTH 876 0
DWIDTH 32 0
BBX 31 30 0 0
BITMAP
12012012012000000000200200200200
2E62E62E62F600000009D0AC0AC0AC00
07E27E17E17E1000004F44F34F34F300
00CA0CA0CA0CA00000D90D90D91D9000
003F53F43F43F40008E18E18E18D1000
0008D19D19D19D102F53F53F53F50000
0001D91D81D81E80BB0CB0CB0CA00000
00005F35F35F35B6E26E26E27E200000
00000AC0AC0AC03E72E72E72E6000000
000002E72E72E4AC0AC0AC0AC0000000
0000006E26E245F35F35F35F30000000
0000000CB0CA1D91D81D81E800000000
00000003F5388D19D18D19D100000000
000000008E13F53F43F43F4000000000
000000001D4CA0CA0CA0CA0000000000
00000000027E27E17E17E31000000000
0000000002E62E62E62E6A9000000000
000000000BC0BC0BC0BB04F300000000
000000005F35F35F35F3B0AC00000000
00000001E81E81E81E81E71E70000000
00000009D19D09D09D425F26F2000000
0000003F44F43F44F4AB0BB0BB000000
000000CA0D90D90D922F62F62F600000
000007E18E17E18E3E17E17E17E10000
00002F62F62F62F50CA0DA0CA0D90000
0000BB0BB0BB0BB003F44F43F44F4000
0006F26F26F26F20009D19D19D19D000
001E71E71E71E700001D81E81E81E800
00AD0AC0AC0AC0000005F35F35F35F30
04F44F34F34F30000000AC0BC0BC0BC0
ENDCHAR
STARTCHAR Y
ENCODING 89
SWIDTH 789 0
DWIDTH 28 0
BBX 28 30 0 0
BITMAP
1101102011000000000201102011
2F29A1E38C000000005D0C74E1B8
09A2F38B1E40000000C74E1B83E1
02F29A1F38B0000005E1C74E1B80
00A92F29A1E400000C74E1B83F20
003F1A92F38B00004E1B83F2A900
000B83F29A1E4000B83F1A92F200
0004E1A92F38B003F1A92F29A000
0000C73F1AA1F40A92F29A2F3000
00005E1B83F29B2F29A2F38B0000
00000C74E1A9289A2F38B1E40000
000005D0C83F22F39B1E38B00000
000000D65E1B89A1E38B1E400000
0000006D0C744E38B1E47C000000
0000000D55E18B1E47C0E5000000
00000007C0D5E47C0E56D0000000
00000001E447C0E56D0D60000000
000000007B1E56D0D65D00000000
000000001EAD0D65D0C700000000
0000000008F65D0C75E100000000
0000000003F1A92F29A000000000
0000000003F1A92F29A000000000
0000000003F1A92F29A000000000
0000000003F1A92F29A000000000
0000000003F1A92F29A000000000
0000000003F1A92F29A000000000
0000000003F1A92F29A000000000
0000000003F1A92F29A000000000
0000000003F1A92F29A000000000
0000000003F1A92F29A000000000
ENDCHAR
STARTCHAR Z
ENCODING 90
SWIDTH 854 0
DWIDTH 31 0
BBX 29 30 1 0
BITMAP
122222222222222222222222222200
9FFFFFFFFFFFFFFFFFFFFFFFFFFF40
12222222222222222222222226ED20
5999999999999999999998219F9100
6AAAAAAAAAAAAAAAAAAA924DD41940
0111111111111111110018F914DC20
9FFFFFFFFFFFFFFFE703DD419F8000
2333333333333333208F914DD31A40
58888888888886003DD419F805EC20
7BBBBBBBBBBB8108F914DD319F8000
00000000000003CD419F814DD31A40
0000000000008FA14DD419F805EC20
00000000003CE518F914DD31AF7000
0000000007FA13DD419F815EC30000
00000003CE508F914DD41AF7000000
0000007FA13DD419F915EC30000000
00002CE508F914DD41AF8000000000
0007FA13CD419F914EC30000000000
02CE508F914DD419F8000000000000
5FA13CE519F914DC30000000000000
8507FA13DD419F8000000000000000
03CE508F914DD304CDDDDDDDDDDD30
6FA13DD419F8002666666666666620
8508FA14DD30455555555555555510
03DE519F812BEEEEEEEEEEEEEEEE40
6FA14DD30000000000000000000000
8519F916CCCCCCCCCCCCCCCCCCCC30
04DD40477777777777777777777720
6FC544444444444444444444444410
9FFFFFFFFFFFFFFFFFFFFFFFFFFF40
ENDCHAR
STARTCHAR bracketleft
ENCODING 91
SWIDTH 320 0
DWIDTH 12 0
BBX 10 34 1 -3
BITMAP
2666666663
5FDDDDDDD7
5E00000000
5E0ADDDDD7
5E0CA66663
5E0C715552
5E0C74FEE7
5E0C74F000
5E0C74F000
5E0C74F000
5E0C74F000
5E0C74F000
5E0C74F000
5E0C74F000
5E0C74F000
5E0C74F000
5E0C74F000
5E0C74F000
5E0C74F000
5E0C74F000
5E0C74F000
5E0C74F000
5E0C74F000
5E0C74F000
5E0C74F000
5E0C74F000
5E0C74F000
5E0C74FCC6
5E0C727774
5E0C944442
5E0CFFFFF8
5E00000000
5FBBBBBBB6
3888888884
ENDCHAR
STARTCHAR backslash
ENCODING 92
SWIDTH 448 0
DWIDTH 16 0
BBX 16 34 0 -4
BITMAP
0101101000000000
2F37D0D700000000
0D73F19B00000000
09B0E55E00000000
05E0B91F30000000
01F37D0D70000000
00D73F19B0000000
009B0E55E0000000
005E0B91F3000000
001F37D0D7000000
000D73F19B000000
0009B0E55E000000
0005E0B91F300000
0001F37D0D700000
0000D73F19B00000
00009B0E55E00000
00005E0B91F30000
00001F37D0C70000
00000D73F19B0000
000009B0E55E0000
000005E0B91F4000
000001F37D0C7000
000000D73F19B000
0000009B0E55E000
0000005E0B91F400
0000001F37D0C700
0000000C73F19B00
00000009B0E55E00
00000005E0B91F40
00000001F47D0C70
00000000C73F19B0
000000009B0E55E0
000000005E0B91F4
0000000016135053
ENDCHAR
STARTCHAR bracketright
ENCODING 93
SWIDTH 319 0
DWIDTH 12 0
BBX 9 34 1 -3
BITMAP
5666666650
DDDDDDDED0
00000006D0
CDDDDD56D0
66666E56D0
55540E56D0
EEFC0E56D0
007C0E56D0
007C0E56D0
007C0E56D0
007C0E56D0
007C0E56D0
007C0E56D0
007C0E56D0
007C0E56D0
007C0E56D0
007C0E56D0
007C0E56D0
007C0E56D0
007C0E56D0
007C0E56D0
007C0E56D0
007C0E56D0
007C0E56D0
007C0E56D0
007C0E56D0
007C0E56D0
CCDC0E56D0
77760E56D0
44444E56D0
EFFFFF56D0
00000006D0
BBBBBBBDD0
8888888870
ENDCHAR
STARTCHAR asciicircum
ENCODING 94
SWIDTH 475 0
DWIDTH 17 0
BBX 15 15 1 11
BITMAP
0000025033000000
00000CF36E000000
00003FD91E500000
00008C5E1AB00000
0000E61E64F20000
0005E129C0D80000
000B91D3F37D0000
002F37E0C91F4000
008C0C806E0AA000
00E63F201E54F100
05E19B0009B0D700
0BA1E50003F27D00
2F46E00000D82F40
7D0C9000007E0BA0
7519200000192480
ENDCHAR
STARTCHAR underscore
ENCODING 95
SWIDTH 511 0
DWIDTH 18 0
BBX 16 7 1 -7
BITMAP
6FFFFFFFFFFFFFFC
2444444444444443
3777777777777775
5CCCCCCCCCCCCCC9
0000000000000000
6EEEEEEEEEEEEEEB
2555555555555554
ENDCHAR
STARTCHAR grave
ENCODING 96
SWIDTH 472 0
DWIDTH 17 0
BBX 15 9 1 25
BITMAP
008D500000000000
0118ED6000000000
9E8118ED60000000
06DE9217ED710000
0005DF9217EE7100
000005CF9217EE50
00000005CFA21610
0000000004CF6000
0000000000030000
ENDCHAR
STARTCHAR a
ENCODING 97
SWIDTH 832 0
DWIDTH 30 0
BBX 28 27 1 -1
BITMAP
0000000027BDFFEDB73000000000
0000002AFD9644458CFC50000000
000008FB401567753028EC200000
0001AE604BFECCCEFD812BE40000
000AE32BF930000027DE609E3000
008E33EC217BDFEC8307F90AD100
02F52EA06ED96558CFA13E81D900
0AB0CC08F702566303DD24F44F20
2F45E26F41AFEDDFD51BC09C0C80
7D0C81E71DD400029F61E72F37D0
B91F37D0AD10000006F27D0C82F2
D65E0B82F400000000C82F38B0E5
F46C0D65E0000000008C0E56D0D6
F47C0E56D0000000006D0D65E0C7
E56D0D65E0000000006D0D65E0C7
D74F0B92F3000000006D0D65E0C7
AA1F46E0AC100000006D0D65E0C7
6E0AA1E71DC40000466D0D65E0C7
1E63F36F519EECDFE66D0D65E0C7
08D19C17F9114553026D0D65E0C7
01E91CC14CFB8679DA6D0D65E0C7
004F71BE5048ACB9516D0D65E0C7
0006F807ED841013776D0D65E0C7
00005EB217CFFFFFC56D0D65E0C7
000003BF93002321026D0D65E0C7
00000005BFEB989AEA6D0D65E0C7
0000000001589A98410000000000
ENDCHAR
STARTCHAR b
ENCODING 98
SWIDTH 720 0
DWIDTH 26 0
BBX 24 26 1 0
BITMAP
255555555555555542000000
5FEEEEEEEEEEEEEEFFC50000
5E00000000000000038FA100
5E0ACCCCCCCCCCCCB713DB00
5E0CB777777777779DE42E70
5E0C714444444444209E35E1
5E0C74FFFFFFFFFFF90BB0E6
5E0C74F0000000004E54F1A9
5E0C74F0000000000A92F29A
5E0C74F0000000003E64F0A9
5E0C74F3FFFFFFFFFA0AB0E7
5E0C74F133333333207E35F2
5E0C74F1777777789DE41DA0
5E0C74F2BBBBBBBCDFB14F50
5E0C74F00000000003CC09D0
5E0C74F3FFFFFFFFC41D82F4
5E0C74F1444444448F36E0C8
5E0C74F0000000000B82F19A
5E0C74F0000000000C83F1AA
5E0C74F177777777AF36E0C8
5E0C74F2CCCCCCCCA31D82F5
5E0C74F00000000005DC09D0
5E0C74F2EEEEEEEEFF916F50
5E0C74F1555555554118F800
5E0C74F1666666667AEE6000
5E0C74F2DDDDDDDDCA610000
ENDCHAR
STARTCHAR c
ENCODING 99
SWIDTH 736 0
DWIDTH 27 0
BBX 25 29 1 -2
BITMAP
00000000002578875100000000
000000017DFECBBCEFC6000000
0000006DE8300000039ED40000
00001AE7127CEFFEB711AF8000
0001CD229FD854459DF804EA00
000BC14EC4036775105ED23E70
008E25F805DFDCCEFB31BE2310
02F43F709F9200004BF70A6000
0AB0CA0BD318CEEB605F700000
2F36E17E23ED7558EC14200000
7D0C82F52E9000001C80000000
B92F37D0BB0000000000000000
D65E0B82F30000000000000000
F56D0E65E00000000000000000
F47C0E56D00000000000000000
F56D0D65E00000000000000000
D74F1A91F50000000000000000
AA1E56E19D1000000310000000
6E1AA0D81CD300005E80000000
1E53F34F51AFC9ADF808500000
08D0AD17F7038A9721AE320000
01E71DB15ED731249EC32D7000
005F42DC218DFFFFB605EB0630
0008E41BF920132003AF907F50
00008F605CFDA98ADFB319F600
000006FC40279AB96205EE4000
00000029FD84210248DF910000
0000000028CFFFFFFC71000000
00000000000134420000000000
ENDCHAR
STARTCHAR d
ENCODING 100
SWIDTH 833 0
DWIDTH 30 0
BBX 28 26 1 0
BITMAP
2555555555555554310000000000
5FEEEEEEEEEEEEEFFFD820000000
5E00000000000000137CF9100000
5E0ACCCCCCCCCCCBA7305DD30000
5E0CB777777777789CFC31AE3000
5E0C714444444443202AF60AE200
5E0C74FFFFFFFFFFFD607F70CB00
5E0C74F00000000137EC15F42F50
5E0C74F08BBBBBBA822CC19E19C0
5E0C74F0CC888889CE51D81E63F3
5E0C74F0C800000008E25F19C0D7
5E0C74F0C800000000BA0E55F0AA
5E0C74F0C8000000006E0C82F28B
5E0C74F0C8000000005E0B92F28C
5E0C74F0C8000000007D0C73F29B
5E0C74F0C800000001D81F46E0B9
5E0C74F0C80000002CD18D0BA0E5
5E0C74F0CEDDDDDDFC24F52F45F1
5E0C74F056666666305E90CB0BA0
5E0C74F5555555557CF709E15F20
5E0C74EEEEEEEEEEC821BE42E800
5E0C700000000000027ED22DB000
5E0CDCCCCCCCCCCCEFD714DB1000
5E0677777777777763029F900000
5E4444444444444458CFB3000000
5FFFFFFFFFFFFFFFDB7300000000
ENDCHAR
STARTCHAR e
ENCODING 101
SWIDTH 666 0
DWIDTH 24 0
BBX 22 26 1 0
BITMAP
2404215045555555555553
5E0C74F0CFEEEEEEEEEEE9
5E0C74F0C8000000000000
5E0C74F0CDCCCCCCCCCCC7
5E0C74F0CB777777777774
5E0C74F0C9444444444442
5E0C74F0CFFFFFFFFFFFF9
5E0C74F0C8000000000000
5E0C74F0C8000000000000
5E0C74F0C8000000000000
5E0C74F0CEDDDDDDDDDDB0
5E0C74F0CB666666666660
5E0C74F0CA555555555540
5E0C74F0CFEEEEEEEEEED0
5E0C74F0C8000000000000
5E0C74F0CDCCCCCCCCCCB0
5E0C74F0CB777777777770
5E0C74F0C8000000000000
5E0C74F0C8000000000000
5E0C74F0CA555555555553
5E0C74F0CFEEEEEEEEEEE9
5E0C74F0C8000000000000
5E0C74F0CECCCCCCCCCCC7
5E0C74F0CB777777777774
5E0C74F0CA444444444442
5E0C74F0CFFFFFFFFFFFF9
ENDCHAR
STARTCHAR f
ENCODING 102
SWIDTH 625 0
DWIDTH 23 0
BBX 21 26 1 0
BITMAP
2404215045555555555510
5E0C74F0CFEEEEEEEEEE40
5E0C74F0C8000000000000
5E0C74F0CDCCCCCCCCCC40
5E0C74F0CB777777777720
5E0C74F0C9444444444410
5E0C74F0CFFFFFFFFFFF50
5E0C74F0C8000000000000
5E0C74F0C8000000000000
5E0C74F0C8000000000000
5E0C74F0C8222222222100
5E0C74F0CFFFFFFFFFF700
5E0C74F0C9222222222100
5E0C74F0CC999999999400
5E0C74F0CDAAAAAAAAA500
5E0C74F0C8111111111000
5E0C74F0CFFFFFFFFFF700
5E0C74F0C9333333333100
5E0C74F0C8000000000000
5E0C74F0C8000000000000
5E0C74F0C8000000000000
5E0C74F0C8000000000000
5E0C74F0C8000000000000
5E0C74F0C8000000000000
5E0C74F0C8000000000000
5E0C74F0C8000000000000
ENDCHAR
STARTCHAR g
ENCODING 103
SWIDTH 827 0
DWIDTH 30 0
BBX 28 29 1 -2
BITMAP
0000000000257887510000000000
000000017DFECBBCEFC600000000
0000006DE8300000039ED4000000
00001AE7127CEFFEB711AF800000
0001CD229FD854459DF804EA0000
000BC14EC4036775105ED23E7000
008E25F805DFDCCEFB31BE231000
02F43F709F9200004BF70A600000
0AB0CA0BD318CEEB605F70000000
2F36E17E23ED7558EC1420000000
7D0C82F52E9000001C8000000000
B92F37D0BB000000000000000000
D65E0B82F3000000000000000000
F56D0E65E0000000000000000000
F47C0E56D000000000790C36A0C4
F56D0D65E0000000008B0F48C0F4
D74F1A91F5000000008B0F48C0F4
AA1E56E19D100000009B0F48C0F4
6E1AA0D81CD3000017FB0F48C0F4
1E53F34F51AFC9ABFDCB0F48C0F4
08D0AD17F7038AA8409B0F48C0F4
01E71DB15ED731137CFB0F48C0F4
005F42DC218DFFFFD9AB0F48C0F4
0008E41BF920133103BB0F48C0F4
00008F605CFDA99ADFFB0F48C0F4
000006FC40279AA9628B0F48C0F4
00000029FD84211249EB0F48C0F4
0000000028CFFFFFFC7100000000
0000000000013442000000000000
ENDCHAR
STARTCHAR h
ENCODING 104
SWIDTH 830 0
DWIDTH 30 0
BBX 28 26 1 0
BITMAP
2404215042000000003305133051
5E0C74F0C8000000009A1F38B0F4
5E0C74F0C8000000009A1F38B0F4
5E0C74F0C8000000009A1F38B0F4
5E0C74F0C8000000009A1F38B0F4
5E0C74F0C8000000009A1F38B0F4
5E0C74F0C8000000009A1F38B0F4
5E0C74F0C8000000009A1F38B0F4
5E0C74F0C8000000009A1F38B0F4
5E0C74F0CB77777777CA1F38B0F4
5E0C74F0CECCCCCCCCEA1F38B0F4
5E0C74F0C8000000009A1F38B0F4
5E0C74F0CEEEEEEEEEFA1F38B0F4
5E0C74F0CA55555555BA1F38B0F4
5E0C74F0CA66666666CA1F38B0F4
5E0C74F0CEDDDDDDDDEA1F38B0F4
5E0C74F0C8000000009A1F38B0F4
5E0C74F0C8000000009A1F38B0F4
5E0C74F0C8000000009A1F38B0F4
5E0C74F0C8000000009A1F38B0F4
5E0C74F0C8000000009A1F38B0F4
5E0C74F0C8000000009A1F38B0F4
5E0C74F0C8000000009A1F38B0F4
5E0C74F0C8000000009A1F38B0F4
5E0C74F0C8000000009A1F38B0F4
5E0C74F0C8000000009A1F38B0F4
ENDCHAR
STARTCHAR i
ENCODING 105
SWIDTH 337 0
DWIDTH 12 0
BBX 10 26 1 0
BITMAP
2404215042
5E0C74F0C8
5E0C74F0C8
5E0C74F0C8
5E0C74F0C8
5E0C74F0C8
5E0C74F0C8
5E0C74F0C8
5E0C74F0C8
5E0C74F0C8
5E0C74F0C8
5E0C74F0C8
5E0C74F0C8
5E0C74F0C8
5E0C74F0C8
5E0C74F0C8
5E0C74F0C8
5E0C74F0C8
5E0C74F0C8
5E0C74F0C8
5E0C74F0C8
5E0C74F0C8
5E0C74F0C8
5E0C74F0C8
5E0C74F0C8
5E0C74F0C8
ENDCHAR
STARTCHAR j
ENCODING 106
SWIDTH 393 0
DWIDTH 14 0
BBX 13 30 0 -4
BITMAP
00015032150330
0004F0B83F1A90
0004F0B83F1A90
0004F0B83F1A90
0004F0B83F1A90
0004F0B83F1A90
0004F0B83F1A90
0004F0B83F1A90
0004F0B83F1A90
0004F0B83F1A90
0004F0B83F1A90
0004F0B83F1A90
0004F0B83F1A90
0004F0B83F1A90
0004F0B83F1A90
0004F0B83F1A90
0004F0B83F1A90
0004F0B83F1A90
0005F0B83F1A90
0009C0D65F0C70
038F44F28C0E50
3FD51DA0D74F10
0203DC17E19B00
19CFA15F43F400
2A8307F71CA000
0137DE51BD1000
3FFD812CD20000
131029FB100000
18ADFC50000000
2B972000000000
ENDCHAR
STARTCHAR k
ENCODING 107
SWIDTH 801 0
DWIDTH 29 0
BBX 28 26 1 0
BITMAP
2404215042000000043042051151
5E0C74F0C80000002F44F27E19C0
5E0C74F0C8000000AB0C91E63F40
5E0C74F0C8000003F36E18D0BA00
5E0C74F0C800000C91D72F44F200
5E0C74F0C800005E27D0AB0C9000
5E0C74F0C80000D81E53F36E1000
5E0C74F0C80007E19C0BA1D70000
5E0C74F0C8001E62F45F27D00000
5E0C74F0C8008D0BB0D81E500000
5E0C74F0C802F54F26E19C000000
5E0C74F0C80AB0C91E72F4000000
5E0C74F0C83F35E18D0AB0000000
5E0C74F0C89C0BA0E71F50000000
5E0C74F0C83F45F27D1AB0000000
5E0C74F0C809C0BA0D72F5000000
5E0C74F0C801E53F35E18D000000
5E0C74F0C8007D0AB0C91E600000
5E0C74F0C8001D72F54F26E10000
5E0C74F0C80006E18D0BB0D80000
5E0C74F0C80000C91E62F45F2000
5E0C74F0C800004F26E19C0CA000
5E0C74F0C800000BA0D81E53F300
5E0C74F0C8000003F45F27D0AB00
5E0C74F0C80000009C0CA1D72F40
5E0C74F0C80000001E53F36E18D0
ENDCHAR
STARTCHAR l
ENCODING 108
SWIDTH 583 0
DWIDTH 21 0
BBX 19 26 1 0
BITMAP
24042150420000000000
5E0C74F0C80000000000
5E0C74F0C80000000000
5E0C74F0C80000000000
5E0C74F0C80000000000
5E0C74F0C80000000000
5E0C74F0C80000000000
5E0C74F0C80000000000
5E0C74F0C80000000000
5E0C74F0C80000000000
5E0C74F0C80000000000
5E0C74F0C80000000000
5E0C74F0C80000000000
5E0C74F0C80000000000
5E0C74F0C80000000000
5E0C74F0C80000000000
5E0C74F0C80000000000
5E0C74F0C80000000000
5E0C74F0C80000000000
5E0C74F0CA5555555540
5E0C74F0CFEEEEEEEEC0
5E0C74F0C80000000000
5E0C74F0CECCCCCCCCA0
5E0C74F0CB7777777760
5E0C74F0CA4444444430
5E0C74F0CFFFFFFFFFC0
ENDCHAR
STARTCHAR m
ENCODING 109
SWIDTH 1167 0
DWIDTH 42 0
BBX 40 27 1 0
BITMAP
0000000004688863100000014688764000000000
0000004AFFCBBCDFEA3004AFFDBBBDFEA3000000
00002BF9400000027DFAAFA510000014AFB10000
0004EB216ADFFED9506EF505ADFFFDA502BE3000
003E806EE964446AFD43DEDEA64446AEE509E300
00D90AE70157764118F72EE1146775117F90AC00
07D18E32AFECCCFF815F55FBEEDCCEFA23E71E60
0D63F42EC4000005DC17E1BE5000004CD25F27C0
3F19B0CA06CEFEB41C90E66F6BEFEB50BB0C82F2
6D0D74F18E85459F54F19A1FF85458E72F37C0E5
8B0F46C0E7000009B0F47C0E8000008D0D55E0C7
9A1F38B0F4000007C0E56D0D6000005E0C74F0B8
9A1F38B0F4000007C0E56D0D6000005E0C74F0B8
9A1F38B0F4000007C0E56D0D6000005E0C74F0B8
9A1F38B0F4000007C0E56D0D6000005E0C74F0B8
9A1F38B0F4000007C0E56D0D6000005E0C74F0B8
9A1F38B0F4000007C0E56D0D6000005E0C74F0B8
9A1F38B0F4000007C0E56D0D6000005E0C74F0B8
9A1F38B0F4000007C0E56D0D6000005E0C74F0B8
9A1F38B0F4000007C0E56D0D6000005E0C74F0B8
9A1F38B0F4000007C0E56D0D6000005E0C74F0B8
9A1F38B0F4000007C0E56D0D6000005E0C74F0B8
9A1F38B0F4000007C0E56D0D6000005E0C74F0B8
9A1F38B0F4000007C0E56D0D6000005E0C74F0B8
9A1F38B0F4000007C0E56D0D6000005E0C74F0B8
9A1F38B0F4000007C0E56D0D6000005E0C74F0B8
9A1F38B0F4000007C0E56D0D6000005E0C74F0B8
ENDCHAR
STARTCHAR n
ENCODING 110
SWIDTH 787 0
DWIDTH 28 0
BBX 26 26 1 0
BITMAP
25115115125100000003315133
5F91D81D81E80000000A92F29A
5FF35F25F26F2000000A92F29A
5EBB0BB0CB0CA000000A92F29A
5E2F53F43F44F400000A92F29A
5E09D19D09D0AC00000A92F29A
5E03E71E71E72E60000A92F29A
5E096E27E17E18E1000A92F29A
5E0C5CA0D90D91D8000A92F29A
5E0C74F34F35F35F200A92F29A
5E0C70AC0BB0BB0CB00A92F29A
5E0C743F62F53F53F40A92F29A
5E0C7498E18D19D19D0A92F29A
5E0C74E1D81E81E81E7992F29A
5E0C74F05F26E26E27E392F29A
5E0C74F00CA0CA0DA0D932F29A
5E0C74F003F44F44F45F32F29A
5E0C74F0009C0AC0AC0BB2F29A
5E0C74F0001E62E62F63F5C29A
5E0C74F00007E18E18E19D429A
5E0C74F00000D91D81E81E809A
5E0C74F000005F25F26F26E29A
5E0C74F000000BB0BB0CB0DA9A
5E0C74F0000003F53F43F44FCA
5E0C74F00000009D09D0AD0AFA
5E0C74F00000001E71E72E72FA
ENDCHAR
STARTCHAR o
ENCODING 111
SWIDTH 833 0
DWIDTH 30 0
BBX 28 29 1 -2
BITMAP
0000000000257887510000000000
000000017DFECBBDEFB500000000
0000006DE8300000049EC4000000
00001AE7127CEFFDB6129F800000
0001CD229FD854469EE714EA0000
000BC14EC4036775206DD23E8000
008E25F805DFDCCEFB31BE34F500
02F43F709F9200003AF60AD18D00
0AB0CA0BD318CEEB605F71D91E70
2F36E17E23ED7558EC25F44F27D0
7D0C82F52E9000001CC19D0C82F4
B92F37D0BB00000001D81F47D0C8
D65E0B82F3000000006E0B83F1AA
F56D0E65E0000000002F29A1F38C
F47C0E56D0000000001F38B0F47C
F56D0D65E0000000003F19A1F29B
D74F1A91F5000000008C0D74F1A9
AA1E56E19D10000003F53F28C0E6
6E1AA0D81CD300005E90CB0D73F2
1E53F34F51AFC9ADF809E27E19C0
08D0AD17F7038A9721AE43E62F40
01E71DB15ED731248ED22DA0AB00
005F42DC218DFFFFC604EB17E200
0008E41BF920133103AF906F5000
00008F605CFDA99AEFB309F60000
000006FC40279AA96106DE300000
00000029FD84211249EE81000000
0000000028CFFFFFFC7100000000
0000000000013442000000000000
ENDCHAR
STARTCHAR p
ENCODING 112
SWIDTH 781 0
DWIDTH 28 0
BBX 26 26 1 0
BITMAP
25555555555555554200000000
5FEEEEEEEEEEEEEEFFD9200000
5E00000000000000026CF80000
5E0ACCCCCCCCCCCCB9405EB100
5E0CB777777777778BFC32DA00
5E0C714444444444302AE43E60
5E0C74FFFFFFFFFFFE709E26E1
5E0C74F00000000017EA0BB0D6
5E0C74F08BBBBBBB923F64F29B
5E0C74F0CC888888BE19B0E56D
5E0C74F0C80000000E56D0D65E
5E0C74F0C8477777AF28C0E56D
5E0C74F0C86CCCCCB51D73F28B
5E0C74F0C800000014DC1AC0D7
5E0C74F0C87EEEEEFFA16F35F3
5E0C74F0C83555554118F62EA0
5E0C74F0C836666679EE41CE20
5E0C74F0C87DDDDDCA613DE300
5E0C74F0C8000000014AFC2000
5E0C74F0C87DDDDDEFFC500000
5E0C74F0C83666665410000000
5E0C74F0C80000000000000000
5E0C74F0C80000000000000000
5E0C74F0C80000000000000000
5E0C74F0C80000000000000000
5E0C74F0C80000000000000000
ENDCHAR
STARTCHAR q
ENCODING 113
SWIDTH 788 0
DWIDTH 28 0
BBX 26 30 1 -4
BITMAP
00000000023555555555555553
00000028DFFEEEEEEEEEEEEEFB
000018FC62000000000000008B
0002CE4038ACCCCCCCCCCCC28B
001DC13CFB877777777778F38B
00CC06FA20244444444421F38B
07E26F607EFFFFFFFFFFA1F38B
1E62F71CE62000000009A1F38B
6E0AB0BD239BBBBBBB19A1F38B
A91F45E25FB888889F29A1F38B
D65E0B92F60000002F29A1F38B
F47C0E56E00000002F29A1F38B
F47C0E56D00000002F29A1F38B
E65E0C74F10000002F29A1F38B
C82F29B0DB4222223F29A1F38B
8D0D82F53CFFFFFF4F29A1F38B
4F36E17F601222223F29A1F38B
0DB0CC16EDA999994F29A1F38B
05F61DC2169AAAAA4F29A1F38B
009F41BF942111112F29A1F38B
000BF704BFFFFFFF4F29A1F38B
00009FC5002333333F29A1F38B
000003BFEB9888883F29A1F38B
0000000269ABBBBB4F29A1F38B
00000000000000002F29A1F38B
00000000000000002F29A1F38B
00000000000000002F29A1F38B
00000000000000002F29A1F38B
00000000000000002F29A1F38B
00000000000000002C1781C278
ENDCHAR
STARTCHAR r
ENCODING 114
SWIDTH 831 0
DWIDTH 30 0
BBX 28 26 1 0
BITMAP
2555555555555555554200000000
5FEEEEEEEEEEEEEEEEFFD8200000
5E0000000000000000026CF70000
5E0ACCCCCCCCCCCCCCB9405EA000
5E0CB77777777777778BFC22E900
5E0C71444444444444302BE33F50
5E0C74FFFFFFFFFFFFFE60AE18D0
5E0C74F0000000000027F90D91F4
5E0C74F08BBBBBBBBB924F45E0B8
5E0C74F0CC88888888CE0A92F38A
5E0C74F0C8000000002F29A1F38B
5E0C74F0C879999999CD0B92F29B
5E0C74F0C88AAAAAAA824F46E0C8
5E0C74F0C81111111138F90D82F5
5E0C74F0C8CFFFFFFFFD60AD19E0
5E0C74F0C823333333202BE34F70
5E0C74F0C8788888889CFB23EB00
5E0C74F0C88BBBBBBBA8306FC100
5E0C74F0C800000000137DF91000
5E0C74F0C8CFFFFFFFFFEDB00000
5E0C74F0C83444D97E3D74F20000
5E0C74F0C800008C1E58D0D80000
5E0C74F0C800002F39B2F48D0000
5E0C74F0C800000C94F2BA2F4000
5E0C74F0C8000006E0D75F1BA000
5E0C74F0C8000001F57D0D75F100
ENDCHAR
STARTCHAR s
ENCODING 115
SWIDTH 683 0
DWIDTH 25 0
BBX 24 27 0 -1
BITMAP
000000047BDEEEDB85100000
000006DFB9655678CFFA3000
0002CE7102566543004BFA10
002DC129EFEDDDEFEB503CE4
00BC16FB6200000259EE6073
05F26F5059CDDDC96117F700
0AA1E62CEA76667ADFA22000
0C74F0AB1000000003A50000
0D65E0C70000000000000000
0C74F19D3000000000000000
09B0E71AFEDDDCCA84000000
04F25F7014666779CFE70000
00CC15EE96555442017EC100
002DC216ADEEEFFFE922DC10
0002CE94100000026CE41E80
000005BFFDCCCCB8407F26E0
000000014677778AEA0B91F4
00000000000000003F46D0D6
00000100000000000E55E0C7
00001DC6100000029E19B0E5
0006318DFECBBCDFC33E54F1
001AF9202578875205E90BA0
1C805CFC96433469DE709E20
04EC5037BDFFFFDB612AE400
0019ED740001100049EC3000
000017DFFDCAABCFFB500000
000000015789987410000000
ENDCHAR
STARTCHAR t
ENCODING 116
SWIDTH 588 0
DWIDTH 21 0
BBX 20 26 1 0
BITMAP
45555555555555555550
DEEEEEEEEEEEEEEEEEE1
00000000000000000000
BCCCCCCCCCCCCCCCCCC1
77777777777777777770
44444444444444444440
EFFFFFFFFFFFFFFFFFF1
00000422404215000000
00000D65E0C74F000000
00000D65E0C74F000000
00000D65E0C74F000000
00000D65E0C74F000000
00000D65E0C74F000000
00000D65E0C74F000000
00000D65E0C74F000000
00000D65E0C74F000000
00000D65E0C74F000000
00000D65E0C74F000000
00000D65E0C74F000000
00000D65E0C74F000000
00000D65E0C74F000000
00000D65E0C74F000000
00000D65E0C74F000000
00000D65E0C74F000000
00000D65E0C74F000000
00000D65E0C74F000000
ENDCHAR
STARTCHAR u
ENCODING 117
SWIDTH 795 0
DWIDTH 29 0
BBX 27 28 1 -2
BITMAP
3305124051000000042150331500
8B0F48C0F40000000B83F1A92F20
8B0F48C0F40000000B83F1A92F20
8B0F48C0F40000000B83F1A92F20
8B0F48C0F40000000B83F1A92F20
8B0F48C0F40000000B83F1A92F20
8B0F48C0F40000000B83F1A92F20
8B0F48C0F40000000B83F1A92F20
8B0F48C0F40000000B83F1A92F20
8B0F48C0F40000000B83F1A92F20
8B0F48C0F40000000B83F1A92F20
8B0F48C0F40000000B83F1A92F20
8B0F48C0F40000000B83F1A92F20
8B0F48C0F40000000B83F1A92F20
8B0F47C0F40000000B83F1A92F20
8B0F47D0D60000000D74F0B83F10
6D0D64F19C0000004F27C0D65E00
4F19B0E72EA10004E90D72F38C00
0E64F27E33DEA9CF909E19C0D700
09C0CB0AE3069A8309F43F54F200
02E52E809FA52137DE41E90C9000
007E24F914BFFFFD814DC08E1000
000BC13DD500231028F916F40000
0001CD319FEB989CFD507F600000
00001AF81159ABA7304CE4000000
0000005DE95210137CF920000000
000000005AEFFFFFC82000000000
0000000000013421000000000000
ENDCHAR
STARTCHAR v
ENCODING 118
SWIDTH 855 0
DWIDTH 31 0
BBX 31 26 0 0
BITMAP
15034042151000000000250330421510
1F55F19C0D7000000000AB0E63F27D00
0AB0E63F27D000000001F55F19B0D700
04F28C0C81F400000007E0BA1E54F200
00D82F36E0AA0000000D82F46E0AA000
007D0B91E54F1000003F28D0C81F4000
001F45E19B0D7000009B0E73F27D0000
000AA0E63F28D00001E55F19C0D80000
0004F28C0D82F40006E0BA0E64F20000
0000D72F37E0BA000C82F45E1AB00000
00007D0B91F55F103F28D0B91F500000
00001F46E1AB0E709B0D72F37E000000
00000AA1E64F28C1E54F18C0D8000000
000004F19C0D8296E0AA0E64F2000000
000000D73F37D01C91F45E19B0000000
0000008D0C91F43F37D0B91E50000000
0000002F46E0A79C0D72F36E00000000
0000000BA1E542E64F28C0C800000000
00000005F19B06E1AB0E63F200000000
00000000E73F2B91F55E19B000000000
000000008D0A2F37D0B91E5000000000
000000002F408C0D82F36E0000000000
000000000B90E64F28D0C90000000000
0000000005E6E1AB0D73F30000000000
0000000000EE91F54F19C00000000000
00000000008F36E0AA1E600000000000
ENDCHAR
STARTCHAR w
ENCODING 119
SWIDTH 1129 0
DWIDTH 41 0
BBX 39 27 1 -1
BITMAP
3305124051000015133051330000032150331510
8B0F48C0F400002F29A1F38B00000B83F1A92F20
8B0F48C0F400002F29A1F38B00000B83F1A92F20
8B0F48C0F400002F29A1F38B00000B83F1A92F20
8B0F48C0F400002F29A1F38B00000B83F1A92F20
8B0F48C0F400002F29A1F38B00000B83F1A92F20
8B0F48C0F400002F29A1F38B00000B83F1A92F20
8B0F48C0F400002F29A1F38B00000B83F1A92F20
8B0F48C0F400002F29A1F38B00000B83F1A92F20
8B0F48C0F400002F29A1F38B00000B83F1A92F20
8B0F48C0F400002F29A1F38B00000B83F1A92F20
8B0F48C0F400002F29A1F38B00000B83F1A92F20
8B0F48C0F400002F29A1F38B00000B83F1A92F20
8B0F48C0F400002F29A1F38B00000B83F1A92F20
8B0F48C0F400002F29A1F38B00000B83F1A92F20
8B0F48C0F400002F29A1F38B00000B83F1A92F20
8B0F47C0D600004F1A92F29C00000D74F0B83F10
6D0D65E19D4224CB0D74F1AF73238F27D0D74F00
4F1AA1E709EFFFA15F28C0EBDFFFC41D82F37C00
0E64F35F81011017F71E65F6012003CC19D0C800
09C0BC14DFB99BEE60BC1CEFDB9ADFA15F44F200
01E71CD3048AA8512BD29F4269A97207F61D9000
006F519FB632136AFB27FFE8421248DE50BD1000
0007F8039EFFFFEA41AFB17CFFFFFC712CD20000
00005ED6101221017EEBF93002320039FB100000
0000017EFCA989CFE9204CFEB989ADFB50000000
00000000379ABA85100000269ABA962000000000
ENDCHAR
STARTCHAR x
ENCODING 120
SWIDTH 790 0
DWIDTH 28 0
BBX 28 26 0 0
BITMAP
1520520530430000151152052043
0CB0AD08E17F2000AD09E17E25F4
03F61E81DA0CC005F43F52E71D90
008E16F34F43F61E90CB0BC09D10
000DA0BC0AD1889E17E25F34F500
0004F52F61E914F52F71E80DA000
00009D17E25F2DA0BC0AD18E2000
00001E90CB058E26F34F43F60000
000005F33F53F61E81DA0CC00000
000000BD095CC0AD08E16F200000
0000002E806F25F43F52E7000000
00000006E2E71D90CB0BD0000000
000000004BD09E17E25F30000000
000000005F33F52E71E900000000
00000001E90DA0BC09D560000000
00000009D18E26F34F57E2000000
0000004F52F61E81DA30DB000000
000001DA0CC0AD08E3F34F500000
000008E16F34F43F60BD09E10000
00003F62E81D90CB762E71D90000
0000CB0AD09E17F28E17F25F4000
0007F25F43F52E751DA0CB0AD000
002E71E90CB0BC4F34F43F61E800
00BC09D17E26F30BC09D18E26F30
05F34F52F61E9002F71E80DA0BC0
1E80DA0BC0AD10007E25F34F52F6
ENDCHAR
STARTCHAR y
ENCODING 121
SWIDTH 733 0
DWIDTH 26 0
BBX 26 26 0 0
BITMAP
24042150330000000512305124
1E47C1D55D1000006D0D65E1C7
08B1E56D0C800000D65E1C74E1
01E47D0D73F20005E0C74E1B80
008B0D65E1AA000C74E1B83F10
001E46D0C82F404E1B83E1A900
0007C0D64F28C0B83E1A92F200
0001E45E1BA1D4E1A92F29A000
00007C0D73F32A93F2A92F2000
00001E45E1AB3F2A92F29A0000
000007C0C829A92F29A1F30000
000001E54E12F29A1F38B00000
0000007C0C89A1F38B1E400000
0000001E545F38B1E47C000000
00000007C08B1E47C1E5000000
00000001E6E47C1E57C0000000
000000007FB1E47C0D50000000
000000000F56D0D65E00000000
000000000E56D0D65E00000000
000000000E56D0D65E00000000
000000000E56D0D65E00000000
000000000E56D0D65E00000000
000000000E56D0D65E00000000
000000000E56D0D65E00000000
000000000E56D0D65E00000000
000000000E56D0D65E00000000
ENDCHAR
STARTCHAR z
ENCODING 122
SWIDTH 714 0
DWIDTH 26 0
BBX 24 26 1 0
BITMAP
244444444444404303303400
8FFFFFFFFFFFA4F43F61E817
0000000000001DA0CB0AD088
6CCCCCCCCCC68E16F24F43F3
488888888874F62E80DA0C80
24444444441CC0AD08E16D10
8FFFFFFFFC7F34F42F62E500
0000000002E81DA0BC0AB000
000000000AD18E16F34E2000
000000004F43F61E81D70000
00000001DA0CB09D18D00000
00000008E16F24F43F400000
0000003F61E80DA0CA000000
000000CC0AD18E16E1000000
000006F34F42F61E60000000
00001E81DA0BC0AC00000000
0000AD18E16F34F300000000
0004F42F61E80D9000000000
001DA0BC09D18E1000000000
008E26F34F42F54555555552
03F61E80DA0BB2EEEEEEEEE6
0CC0AD17E26F200000000000
6F34F42F61E85CCCCCCCCCC5
E80DA0BC0AD1677777777773
D18E15F34F43444444444442
52F61E80DA2EFFFFFFFFFFF6
ENDCHAR
STARTCHAR braceleft
ENCODING 123
SWIDTH 396 0
DWIDTH 14 0
BBX 13 39 1 -8
BITMAP
00000000346620
0000007DFEDD40
00002CE7200000
0001DC128CDD40
0009D15FC76620
002F44F6035520
007D0C90AFEE50
00A92F36E20000
00C74F0A900000
00C74F0B800000
00C74F0B800000
00C74F0B800000
00C74F0B800000
00C74F0B800000
00C74F0B800000
00C74F0B800000
00746E0C700000
DDB7360E500000
668CF72E100000
55305E92000000
EEFC23F5000000
002AD18D000000
CB60D82F300000
78F37D0D600000
00D65E0C700000
00C74F0B800000
00C74F0B800000
00C74F0B800000
00C74F0B800000
00C74F0B800000
00C74F0A800000
00B82F28D10000
008C0D71DEBB40
003F36E3168830
000BB09F943310
0002E905CFFF50
00004EC4001100
000002AFEBAA30
00000001689930
ENDCHAR
STARTCHAR bar
ENCODING 124
SWIDTH 266 0
DWIDTH 10 0
BBX 7 34 1 -4
BITMAP
11011020
5E0C74F0
5E0C74F0
5E0C74F0
5E0C74F0
5E0C74F0
5E0C74F0
5E0C74F0
5E0C74F0
5E0C74F0
5E0C74F0
5E0C74F0
5E0C74F0
5E0C74F0
5E0C74F0
5E0C74F0
5E0C74F0
5E0C74F0
5E0C74F0
5E0C74F0
5E0C74F0
5E0C74F0
5E0C74F0
5E0C74F0
5E0C74F0
5E0C74F0
5E0C74F0
5E0C74F0
5E0C74F0
5E0C74F0
5E0C74F0
5E0C74F0
5E0C74F0
4B0A53C0
ENDCHAR
STARTCHAR braceright
ENCODING 125
SWIDTH 396 0
DWIDTH 14 0
BBX 13 39 1 -8
BITMAP
66531000000000
DDEFE920000000
00015CE4000000
DDCA408F300000
667AFA09D10000
55413E81E60000
EEFD24F28C0000
001BB0D64F0000
0004F0B83F1000
0003F1A92F2000
0003F1A92F2000
0003F1A92F2000
0003F1A92F2000
0003F1A92F2000
0003F1A92F2000
0002F29B0E8410
0000E65E25DF50
00009B0CC20000
00002F52CFCB40
000007E5047820
0000A47FB64310
0000E5239DFF50
0002F29A161100
0003F1A92F2000
0003F1A92F2000
0003F1A92F2000
0003F1A92F2000
0003F1A92F2000
0003F1A92F2000
0003F1A92F2000
0004F0B83F2000
0009C0D74F0000
BBCF43F37C0000
88721CB0D80000
3347DC17E10000
FFFD715F500000
110029F7000000
AABCFC40000000
99863000000000
ENDCHAR
STARTCHAR asciitilde
ENCODING 126
SWIDTH 665 0
DWIDTH 24 0
BBX 22 7 1 20
BITMAP
0003789999999994009247
01BFDBAAAAAAAAA503F28A
0BD20011111111112AD0A9
3F31AEFFFFFFFFFFFD31E5
7C0BD53333333333201AD0
991F4038888888888AED30
862B104BBBBBBBBBB96100
ENDCHAR
STARTCHAR uni00A0
ENCODING 160
SWIDTH 108 0
DWIDTH 4 0
BBX 1 1 0 0
BITMAP
00
ENDCHAR
STARTCHAR exclamdown
ENCODING 161
SWIDTH 336 0
DWIDTH 12 0
BBX 10 32 1 -2
BITMAP
1101102011
5E0C74F0B8
5E0C74F0B8
5E0C74F0B8
5E0C74F0B8
5E0C74F0B8
5E0C74F0B8
5E0C74F0B8
5E0C74F0B8
5E0C74F0B8
5E0C74F0B8
5E0C74F0B8
5E0C74F0B8
5E0C74F0B8
5E0C74F0B8
5E0C74F0B8
5E0C74F0B8
5E0C74F0B8
5E0C74F0B8
5E0C74F0B8
5E0C74F0B8
5E0C74F0B8
2605326053
0000000000
0111111110
5FFFFFFFF8
1333333332
3888888884
4BBBBBBBB6
0000000000
5FFFFFFFF8
1444444442
ENDCHAR
STARTCHAR cent
ENCODING 162
SWIDTH 708 0
DWIDTH 26 0
BBX 24 37 1 -4
BITMAP
000000000033004200000000
00000000009A00C700000000
00000000009A00C700000000
00000000009A00C700000000
000000000087008500000000
00000000159BCCB951000000
00000019FEB8778BEFA20000
000007EC5102443005BF8000
0000AF604AEFFFFFB506EC20
000AE32BFA5100159FC31CD2
007E33EB216ABB9512BF51C7
02F52E906EEA88AEE607F500
0AC0CB08F70133117EB16400
2F45F26F41AFFFFA22D80000
7E0B91E62DC4114BE4100000
B91F37D0BC10000086000000
D74F0B82F300000000000000
E56D0D65E000000000000000
E56D0D65E000000000000000
D74F0B83F200000000000000
B92F38C0CA00000053000000
7D0C82F53EA10018F7000000
2F36E18E23DFDDFD51B70000
0BB0DA0BE40466403CD23100
03F43F709FB7557CFA14E700
009E25F9139DEEC9307F8095
000CC13DE72000016DE60AE3
0001CD317DFDCBDFE813CE30
00000AF920367763028FC200
0000004CFC754357BFD60000
0000000049CFFFEC94000000
000000000054106400000000
00000000009A00C700000000
00000000009A00C700000000
00000000009A00C700000000
00000000009A00C700000000
000000000011001100000000
ENDCHAR
STARTCHAR sterling
ENCODING 163
SWIDTH 689 0
DWIDTH 25 0
BBX 23 31 1 0
BITMAP
000000000345553100000000
0000006BFFFEEFFFD8300000
00004DF9520000148BFB5000
0007F91169BCCBA73029EA10
006F608EEA8778ADFD712CC0
02E71CE50134431017DE5010
0AC0AD13BFFFFFFE9407A000
1F54F34FA4100125AFB00000
4F1AA1E805ABBB9612300000
7D0D65E18E9888ACC0000000
8B0F47C0D600000000000000
8B0F47C0E500000000000000
8B0F47C0E500000000000000
8B0F47C0E511111111100000
8B0F47C0E5EFFFFFFFF70000
8B0F47C0E533333333310000
8B0F47C0E588888888830000
8B0F47C0E5BBBBBBBBB50000
8B0F47C0E500000000000000
8B0F47C0E5FFFFFFFFF70000
8B0F47C0E544444444420000
8B0F47C0E500000000000000
8B0F47C0E500000000000000
8B0F47C0E500000000000000
8B0F47C0E855555555520000
8B0F47C0EEEEEEEEEEE60000
8B0F47C0E500000000000000
8B0F47C0EDCCCCCCCCC50000
8B0F47C0EA77777777730000
8B0F47C0E744444444420000
8B0F47C0EFFFFFFFFFF70000
ENDCHAR
STARTCHAR currency
ENCODING 164
SWIDTH 715 0
DWIDTH 26 0
BBX 24 29 1 -1
BITMAP
000010000000000000100000
0000C8000000000000C90000
00834F500000000009E15500
10AD17E3000000006F43E711
D71DB0AD10000003F61DA0BA
5F42E71968ACBA7770BD18E2
08E25D5CFC9789DFB5D25F50
00BC18F910243203BE52E800
001B8E518EFFFFD608F6A000
0003F52CD620038EA09D1000
000AB0CC10000002E81E7000
001F45E1000000004F27C000
005E0B90000000000C73F100
007C0E500000000009B0F400
008B0F400000000007C0E500
008B0F400000000008B0F400
007C0D60000000000AA1F300
004F19B0000000001E65F000
000E63F4000000008E1AB000
0008D18E40000007F53F4000
0004DA08FC7668DE51DA3000
007E3EA138CDDB712CD4F400
04F626DD72000038EB609E20
2E90CC18DFEDDEFC61E80CC0
CC09E26D13566523E34F52E9
625F43E700000000AD17E344
00C71DA0000000001DB0A900
0010BD100000000002E71000
000062000000000000530000
ENDCHAR
STARTCHAR yen
ENCODING 165
SWIDTH 796 0
DWIDTH 29 0
BBX 28 30 0 0
BITMAP
0201102011000000000201101111
1E56C0D65D000000003E1A92F29A
07C1E56D0D60000000A92F29A2F3
01E47C0E56D0000002F29A2F39A0
008B1E47C0D600000A92F29A1E30
001F38B1E56D00002F29A1E38B00
0009A1E47C0D60009A1E38B1E400
0002F28B1E56D001F38B1E47C000
0000A92F38C0D608B1E47C0E5000
00002F29A1E46D1E47C1E56D0000
00000A92F38B197C1E56D0D60000
000003E1AA1F41E56D0D65D00000
000000B83F29A7C0D56D0C600000
0000004E1A925D56D0D65E100000
0000000C73F26D0D65E1C7000000
00000005E1B6D65E0C74E1000000
00000000C636E0C74E1B80000000
000000005D0C74E1B83E10000000
000000000DAE1B83E1A900000000
0000000006F83E1A92F200000000
0000000001F38B0F47C000000000
0000ADDDD4F38B0F47C8DDDD6000
0000566663F38B0F47C466663000
0000455552F38B0F47C355552000
0000BEEEE5F38B0F47C9EEEE6000
0000000001F38B0F47C000000000
0000000001F38B0F47C000000000
0000000001F38B0F47C000000000
0000000001F38B0F47C000000000
0000000001F38B0F47C000000000
ENDCHAR
STARTCHAR brokenbar
ENCODING 166
SWIDTH 263 0
DWIDTH 10 0
BBX 7 34 1 -4
BITMAP
11011110
6D0D65E0
6D0D65E0
6D0D65E0
6D0D65E0
6D0D65E0
6D0D65E0
6D0D65E0
6D0D65E0
6D0D65E0
6D0D65E0
6D0D65E0
6D0D65E0
6D0D65E0
5A0B54B0
00000000
00000000
00000000
00000000
12021120
6D0D65E0
6D0D65E0
6D0D65E0
6D0D65E0
6D0D65E0
6D0D65E0
6D0D65E0
6D0D65E0
6D0D65E0
6D0D65E0
6D0D65E0
6D0D65E0
6D0D65E0
5A0B54B0
ENDCHAR
STARTCHAR section
ENCODING 167
SWIDTH 108 0
DWIDTH 4 0
BBX 1 1 0 0
BITMAP
00
ENDCHAR
STARTCHAR dieresis
ENCODING 168
SWIDTH 556 0
DWIDTH 20 0
BBX 18 5 1 26
BITMAP
460824600006428054
8B0F47C0000B83F1A9
8B0F47C0000B83F1A9
8B0F47C0000B83F1A9
350623500005316044
ENDCHAR
STARTCHAR copyright
ENCODING 169
SWIDTH 869 0
DWIDTH 31 0
BBX 30 30 1 1
BITMAP
000000000001355541000000000000
0000000016BFFFFFFFD82000000000
00000006EFFD97678BFFF910000000
000002CFF92000000016DFE5000000
00004EFB20000000000017FF800000
0003EF80000025764100004EF70000
001DF700006DFFFFFFA30003EF5000
00AFA0002BFFC8679DFF90005FE100
03FE1002EFC30000005DFB000AF800
0BF7001CFA1000000001CD2002FE10
2FE0008FC00000000000110000AF60
6FA001FF3000000000000000005FB0
AF6006FB0000000000000000001FE0
CF300AF70000000000000000000EF2
DF200BF50000000000000000000CF3
DF100CF40000000000000000000CF3
CF300AF60000000000000000000DF2
AF4008F90000000000000000000EF0
7F8003FE1000000000000000003FC0
3FD000BF9000000000000000008F80
0DF4003EF60000000000890000DF30
06FC0005FF8000000019FE2007FB00
00DF60006EFD731248EFD3002EF300
004FE30003CFFFFFFFF91000CF9000
0007FD3000038BCB9610001BFB0000
00009FE500000000000002CFC10000
000006FFB300000000018FFA100000
0000003CFFC8421236BFFE60000000
000000005CFFFFFFFFFD7100000000
0000000000268ABA97300000000000
ENDCHAR
STARTCHAR ordfeminine
ENCODING 170
SWIDTH 833 0
DWIDTH 30 0
BBX 28 27 1 -1
BITMAP
0000000016ADFFFDC84000000000
00000018EEA744457BFE71000000
000005ED600467763017ED300000
00008F803AEFDCCDFE9219F60000
0007F519FA40000016CF806F5000
005F51CE406ADEED9405EC17F300
00D90CC14DE96557BFC22DB0AC00
07E18E25F911566402BE42E72F50
0E72F53F708FEDDFE709E26E19C0
4F18C0CA0BE600017EA0BA0D73F2
8C0D64F27E30000003F54F28B0E5
A92F28B0E7000000009C0E65E0B8
C73F0A92F2000000004F0B83F1A9
C74F0B83F1000000003F1A92F29A
B83F1A92F2000000003F1A92F29A
AA1F38C0D6000000003F1A92F29A
7D0D73F27E200000003F1A92F29A
3F27D0CA0BE61000373F1A92F29A
0C91E63F807EEDCEE83F1A92F29A
05F26E24EB203554123F1A92F29A
00BC09D32BFC8678CD3F1A92F29A
002EA09F7137ABBA623F1A92F29A
0003EA15EE842012693F1A92F29A
00003DD406BEFFFFD73F1A92F29A
000001AFB5002321023F1A92F29A
00000003AEEB989ADD3F1A92F29A
0000000001479AA8510000000000
ENDCHAR
STARTCHAR guillemotleft
ENCODING 171
SWIDTH 911 0
DWIDTH 33 0
BBX 31 18 1 4
BITMAP
0000000000016C400000000000005B50
00000000039EE91000000000038EE920
00000016CFB5011000000016CFC61120
000039EE8204AF40000039EE9304AF50
016CFB5017DFB500016CFC6117DFB500
7EE8204AFD8205306EE9304AFE820430
65027DFA4028EE3065017DFB5028DF40
05BFD7105BFC610004AFD8205BFD7100
9FA4028EE93000008FA4028EE9400000
4116CFC6278200003105BFC626830000
29EE933116CFC61028EE933116CFC610
9FA105EE93039E408FB105DFA4028E50
3AFD7205BFD711103AFD8205BFD71010
0017DFB5028DFA200017CFB5027DFA20
000004AFD8205B400000039EE8204A50
000000017DFB5000000000016CFB5000
000000000039EE30000000000039EE40
00000000000016300000000000001640
ENDCHAR
STARTCHAR logicalnot
ENCODING 172
SWIDTH 718 0
DWIDTH 26 0
BBX 24 12 1 7
BITMAP
7FFFFFFFFFFFFFFFFF37B0E4
24444444444444445F48C0F4
37777777777777777F48C0F4
6CCCCCCCCCCCCCCCCF48C0F4
00000000000000000F48C0F4
7EEEEEEEEEEEEEEEEF48C0F4
25555555555555555F48C0F4
00000000000000000F48C0F4
00000000000000000F48C0F4
00000000000000000F48C0F4
00000000000000000F48C0F4
000000000000000006135062
ENDCHAR
STARTCHAR registered
ENCODING 174
SWIDTH 869 0
DWIDTH 31 0
BBX 30 30 1 1
BITMAP
000000000001355541000000000000
0000000016BFFFFFFFD82000000000
00000006EFFD97678BFFF910000000
000002CFF92000000016DFE5000000
00004EFB20000000000017FF800000
0003EF80000000000000004EF70000
001DF7000000000000000003EF5000
00AFA0001BBBBBBBB95000005FE100
03FE10002FFFFFFFFFFC10000AF800
0BF700002FE2222235DFB00002FE10
2FE000002FE00000001EF40000AF60
6FA000002FE000000009F700005FB0
AF6000002FE000000009F800001FE0
CF3000002FE00000001EF400000EF2
DF2000002FE2222225DFC000000CF3
DF1000002FFFFFFFFFFB1000000CF3
CF3000002FFBBBBDFD500000000DF2
AF4000002FE00003FF100000000EF0
7F8000002FE00000BF800000003FC0
3FD000002FE000004FE10000008F80
0DF400002FE000000CF8000000DF30
06FC00002FE0000004FE100007FB00
00DF60002FE0000000CF70002EF300
004FE3001660000000365000CF9000
0007FD30000000000000001BFB0000
00009FE500000000000002CFC10000
000006FFB300000000018FFA100000
0000003CFFC8421236BFFE60000000
000000005CFFFFFFFFFD7100000000
0000000000268ABA97300000000000
ENDCHAR
STARTCHAR degree
ENCODING 176
SWIDTH 330 0
DWIDTH 12 0
BBX 10 11 1 27
BITMAP
0001331000
019EBBE800
0BA1432BA0
6C2DBCC2D4
B5A7009979
C4D3004B5B
A698009879
5C2CDDB2D4
0AB2222C90
007EDDD600
0000220000
ENDCHAR
STARTCHAR plusminus
ENCODING 177
SWIDTH 598 0
DWIDTH 22 0
BBX 20 22 1 1
BITMAP
00000690B45A0B400000
000007C0E56D0D600000
000007C0E56D0D600000
000007C0E56D0D600000
000007C0E56D0D600000
8BBBBDC0E56D0DDBBBB3
68888BC0E56D0DB88882
233339C0E56D0D833331
BFFFFFC0E56D0DFFFFF4
111118C0E56D0D611110
7AAAACC0E56D0DCAAAA3
69999CC0E56D0DB99992
000007C0E56D0D600000
000007C0E56D0D600000
000007C0E56D0D600000
000007C0E56D0D600000
00000580934809400000
00000000000000000000
08FFFFFFFFFFFFFFFF60
02444444444444444410
04888888888888888830
06CCCCCCCCCCCCCCCC50
ENDCHAR
STARTCHAR uni00B2
ENCODING 178
SWIDTH 435 0
DWIDTH 16 0
BBX 14 24 1 6
BITMAP
00000010000000
159CEFFFEC8200
4DA7533347CF60
002478997308F3
0BFFDCBBCF90D9
0430000006F1AB
0000000006E0BA
000000001D83F4
000000009D1CB0
00000005F37E20
0000002E73F500
000000BB1D9000
000008E1AD1000
00004F46F30000
0001E83E700000
000BB1DB000000
007E19D1000000
04F45F40000000
1D82E700000000
34234222222210
EFFFFFFFFFFF90
22222222222210
89999999999950
AAAAAAAAAAAA60
ENDCHAR
STARTCHAR uni00B3
ENCODING 179
SWIDTH 515 0
DWIDTH 19 0
BBX 17 26 1 4
BITMAP
000000100000000000
69CEFFFFDA50000000
DB8654346AFC300000
00367787511AF40000
7FFDCCBCEE807E3000
2410000006EB0BB000
07ADEFFEA32E63F200
0A865445BE28C0E500
000000000E65E0C700
000000000B46D0D600
0001AAAA985471F400
000199999BEE82B000
000022222005DD2000
0002FFFFFEB40AD100
0000222235BF80BA00
000199998614F63F20
0001AAAAAEE28C0D60
0000000000D64F0C80
0231000004F56E0C70
07FFFEEEFF90BA1E50
000234554119E26E10
0DCA876679ED42E700
057ABCDDDA613DA000
36420000014AF90000
6DFFFEDDEFFA400000
001345665410000000
ENDCHAR
STARTCHAR acute
ENCODING 180
SWIDTH 472 0
DWIDTH 17 0
BBX 15 9 1 25
BITMAP
00000000006D8000
000000006DE81100
0000006DE8118E90
00017DE7129ED600
017EE7129FD50000
5EE7129FC5000000
1612AFC500000000
006FC40000000000
0003000000000000
ENDCHAR
STARTCHAR uni00B5
ENCODING 181
SWIDTH 802 0
DWIDTH 29 0
BBX 27 30 1 -4
BITMAP
1404215033000000024042240420
5E0C74F0B800000007C0E56D0D60
5E0C74F0B800000007C0E56D0D60
5E0C74F0B800000007C0E56D0D60
5E0C74F0B800000007C0E56D0D60
5E0C74F0B800000007C0E56D0D60
5E0C74F0B800000007C0E56D0D60
5E0C74F0B800000007C0E56D0D60
5E0C74F0B800000007C0E56D0D60
5E0C74F0B800000007C0E56D0D60
5E0C74F0B800000007C0E56D0D60
5E0C74F0B800000007C0E56D0D60
5E0C74F0B800000007C0E56D0D60
5E0C74F0B800000007C0E56D0D60
5E0C74F0B800000007C0E56D0D60
5E0C74F0B800000008B0F46D0D60
5E0C74F0B80000001D73F29B0F40
5E0C74F0B8000001BD19C0D73F10
5E0C74F0B8ABA9BEC24F44F28C00
5E0C74F0B8489A9505E81D90D700
5E0C74F0B8432125BF70AD17D000
5E0C74F0B8AFFFFEA31BE33F5000
5E0C74F0B801332016EC22E90000
5E0C74F0B89A889BEE804EB00000
5E0C74F0B859ABA85129F8000000
5E0C74F0B83210126AFC40000000
5E0C74F0B8BFFFFFE94000000000
5E0C74F0B8123431000000000000
5E0C74F0B8000000000000000000
4B0963C097000000000000000000
ENDCHAR
STARTCHAR paragraph
ENCODING 182
SWIDTH 676 0
DWIDTH 24 0
BBX 22 30 1 -4
BITMAP
0000000023555555555553
0000018DFFEEEEEEEEEEFA
00007EC62000000000009A
000AF6038BCCCCCCCCC29A
009E32BFC877777778F29A
05F43EC30244444422F29A
0D81DA06DFFFFFFF92F29A
4F19D08F7200000A92F29A
9B0E54F428BBBB1A92F29A
B83F19A0DC889F1A92F29A
C74F0B83F1003F1A92F29A
B83F1AA1EA778F1A92F29A
9A1E55E24BCCDF1A92F29A
5E1AB0BD51003F1A92F29A
1F72E719FFEEEF1A92F29A
08E34F9114557F1A92F29A
01DD23DEA7667F1A92F29A
002EE405ACDDDF1A92F29A
0001BFB510003F1A92F29A
000004BFFEDDDF1A92F29A
0000000145668F1A92F29A
0000000000003F1A92F29A
0000000000003F1A92F29A
0000000000003F1A92F29A
0000000000003F1A92F29A
0000000000003F1A92F29A
0000000000003F1A92F29A
0000000000003F1A92F29A
0000000000003F8C92F8CA
0000000000002CCC71CCC8
ENDCHAR
STARTCHAR periodcentered
ENCODING 183
SWIDTH 260 0
DWIDTH 9 0
BBX 7 8 1 13
BITMAP
24444430
7FFFFFD0
00000000
5BBBBB90
48888870
13333320
7FFFFFD0
11111110
ENDCHAR
STARTCHAR cedilla
ENCODING 184
SWIDTH 321 0
DWIDTH 12 0
BBX 9 13 1 -14
BITMAP
0000010110
00000F47C0
0039CF47C0
05FB6417C0
0E80267BC0
3F25FDCC90
5E0B900000
5E0C700000
4F09D54430
2F31ADFFC0
0BD3000000
01AFECBB90
0002678860
ENDCHAR
STARTCHAR uni00B9
ENCODING 185
SWIDTH 359 0
DWIDTH 13 0
BBX 11 22 1 8
BITMAP
222222222210
FFFFFFFFFF50
222222222210
899999999930
AAAAFCCEAF50
0000F47C0E50
0000F47C0E50
0000F47C0E50
0000F47C0E50
0000F47C0E50
0000F47C0E50
0000F47C0E50
0000F47C0E50
0000F47C0E50
0000F47C0E50
0000F47C0E50
0000F47C0E50
0000F47C0E50
0000F47C0E50
0000F47C0E50
0000F47C0E50
000021120210
ENDCHAR
STARTCHAR ordmasculine
ENCODING 186
SWIDTH 835 0
DWIDTH 30 0
BBX 28 29 1 -2
BITMAP
0000000000157887520000000000
000000006CFEDBBDEFC600000000
0000004CE9400000038ED5000000
000008F9116BDFFEB7218EA00000
0000BE418EE964458DF913DC1000
0009E23DD5025776204CE41DB000
006F33EA14BFECCEFC409F52E800
01E71DA07FA3000029F808E35F20
08D0AC08E506CEEC713EA0BC0CA0
0E63F35F42CE8558DD33E62F54F1
5F19B0D81DB100001AE26E19B0E6
8B0E65F19D10000000BA0D74F1AA
B92F29B0E5000000004F29B0F47D
C74F0B83F1000000000E56D0E66E
D65E0C74F0000000000E56E0D65F
C83F1B92F2000000001F47D0E56E
A91F38C0D7000000006E1AA1F37C
7D0C73F36E30000002E81E56E0B9
3F27D0BB0AE500004DC09D0B91F5
0D81E62E808FDA9CFA16F34F26E0
05E27E24F91279A7308F61D91E70
00CA0BD13DE832137DE41BC18D10
003E71CD317CFFFFD712DD25F400
0005F609FA301331039FB14E7000
00006F803BFDA99ADFC407F80000
000004ED50269AA97204CE500000
00000018ED94211248DF91000000
0000000017CFFFFFFC8200000000
0000000000003443100000000000
ENDCHAR
STARTCHAR guillemotright
ENCODING 187
SWIDTH 912 0
DWIDTH 33 0
BBX 31 18 1 4
BITMAP
7A400000000000006B50000000000000
3AFD82000000000029EE820000000000
2117DFB5000000002116CFB500000000
8E9304AFE82000007E93039EE8200000
16CFC6116CFB500016CFC6116CFB5000
44039EE93039EE4044028EE93039EE50
6FD7116CFC6116405FD7105BFC711650
027DFA4028EE9300017DFA4028EFA400
00004AFD7105BF6000004AFD8205BF70
00049527DFA4023000039627DFB50230
17DFB50234AFD81016CFB50134AFE820
8D8205BFD302CF607E8204AFD401BF70
1028EFA4039EE9201027DFA4028EE920
3BFC7116CFC610003BFD7115BFC61000
793039EE930000006A4039EE93000000
016CFB5000000000016CFC6100000000
5EE82000000000005EE9300000000000
55000000000000004500000000000000
ENDCHAR
STARTCHAR onequarter
ENCODING 188
SWIDTH 1236 0
DWIDTH 45 0
BBX 44 34 0 -4
BITMAP
02222222222000000000110101100000000000000000
2FFFFFFFFFF300000000D74F19A00000000000000000
02222222222000000002F37C0D700000000000000000
19999999999200000006E0B92F300000000000000000
1AAABFBDDBF30000000AA0F55E000000000000000000
00002F29A1F30000000D74F19A000000000000000000
00002F29A1F30000002F37C0D7000000161260350000
00002F29A1F30000006E0B82F30000009D0BB0D90000
00002F29A1F3000000AA0F55E0000001E63F45F20000
00002F29A1F3000000D74F19A0000008D0AC0CA00000
00002F29A1F3000002F38C0D7000001E72F54F300000
00002F29A1F3000006E0B82F3000007E19C0BB000000
00002F29A1F300000AA0F55E000001E81F53F4000000
00002F29A1F300000D74F19A000006E18D0AC0000000
00002F29A1F300002F38C0D600000D91E62F50000000
00002F29A1F300006E0B82F300005F27E19D00824600
00002F29A1F30000AA0F56E00000DA1E71F601F38B00
00002F29A1F30000D74F19A00005F37E18E001F38B00
00002F29A1F30002F38C0D60000CA0D81E7001F38B00
00002F29A1F30006E0B82F3000053353353222634521
00002F29A1F3000AA0F56E00001FFFFFFFFFFFFFFFFA
000002011020000D74F19A0000022222222222222221
000000000000002F38C0D60000199999999999999996
000000000000006E0B82F300001AAAAAAAAAAAAAAAA7
00000000000000AA0F46E00000011111111111111111
00000000000000D64F19A000001FFFFFFFFFFFFFFFFA
00000000000002F38C0D600000033333333333534532
00000000000006E0B82F300000000000000001F38B00
0000000000000AA1F46E000000000000000001F38B00
0000000000000D64F19A000000000000000001F38B00
0000000000002F38C0D6000000000000000000000000
0000000000006E0B82F2000000000000000000000000
000000000000AA1F46E0000000000000000000000000
00000000000053161340000000000000000000000000
ENDCHAR
STARTCHAR onehalf
ENCODING 189
SWIDTH 1154 0
DWIDTH 42 0
BBX 41 34 0 -4
BITMAP
022222222220000000001101011000000000000000
2FFFFFFFFFF300000000D74F19A000000000000000
02222222222000000002F37C0D7000000000000000
19999999999200000006E0B92F3000000000000000
1AAABFBDDBF30000000AA0F55E0000000000000000
00002F29A1F30000000D74F19A0000000000000000
00002F29A1F30000002F37C0D70000000000000000
00002F29A1F30000006E0B82F300258ABCB9730000
00002F29A1F3000000AA0F55E006FEB98779CFB100
00002F29A1F3000000D74F19A0012002444203DC00
00002F29A1F3000002F38C0D7000ADFFFFFFD33F50
00002F29A1F3000006E0B82F300087421002BC0D80
00002F29A1F300000AA0F55E0000000000007D0D80
00002F29A1F300000D74F19A000000000000D83F40
00002F29A1F300002F38C0D6000000000008E1BB00
00002F29A1F300006E0B82F300000000004F46E200
00002F29A1F30000AA0F56E00000000001E82E6000
00002F29A1F30000D74F19A0000000000BC1CA0000
00002F29A1F30002F38C0D60000000007E29D10000
00002F29A1F30006E0B82F3000000003F55F400000
00002F29A1F3000AA0F56E000000001D82E8000000
000002011020000D74F19A00000000AC1CB0000000
000000000000002F38C0D600000006E28E20000000
000000000000006E0B82F30000003F54F400000000
00000000000000AA0F46E0000001D92E8000000000
00000000000000D64F19A000000370470000000000
00000000000002F38C0D6000001CCCCCCCCCCCC600
00000000000006E0B82F3000001777777777777300
0000000000000AA1F46E0000000444444444444200
0000000000000D64F19A0000002FFFFFFFFFFFF700
0000000000002F38C0D60000000000000000000000
0000000000006E0B82F20000000000000000000000
000000000000AA1F46E00000000000000000000000
000000000000531613400000000000000000000000
ENDCHAR
STARTCHAR threequarters
ENCODING 190
SWIDTH 1345 0
DWIDTH 48 0
BBX 48 34 0 -4
BITMAP
000000010000000000000000011010110000000000000000
169CEFFFFD940000000000000D64F19A0000000000000000
0EB8654346AFC300000000002F38C0D60000000000000000
000367887512AE30000000006E0B92F30000000000000000
07FFDCBBCEE708E200000000AA1F56E00000000000000000
03410000016EA0BA00000000D64F19A00000000000000000
017ADEFFEA23F54F10000002F38C0D600000261360450000
00A864445BE19B0F40000006E0B82F300000AC0C90E70000
0000000000F56D0D6000000AA1F56E000002F54F26E10000
0000000000C37C0E5000000D64F19A000009D0BA0D900000
00002AAAA985562F3000002F38C0D600002F63F35F200000
0000299999BEE73A0000006E0B82F300008D0AB0CA000000
0000022222005DC2000000AA1F56E00001E72F44F3000000
00003FFFFFEA31AC100000D64F19A00008E19C0BB0000000
00000222235BF70C900002F38C0D60001E72F53F40000000
0000299998515F54F10006E0B82F20007E19D0AC01815500
00002AAAABED19B0E5000AA1F56E0000D81E62F502F29A00
00000000001E56D0D6000D64F1AA0006F28E09D002F29A00
00231000005F47D0D6002F38C0D6000D91E71F6002F29A00
008FFFEEEFE80C91F3006E0B82F200153353353223634421
000024455411AE27D000AA1F56E0003FFFFFFFFFFFFFFFF9
01DC987667AED33E6000D64F1AA000022222222222222221
0158ABCDDCA504E90002F38C0D6000299999999999999995
046410000014AF800006E0B82F20002AAAAAAAAAAAAAAAA6
07EFFFEDDEFEA300000AA1F46E0000011111111111111111
0001345665300000000D64F1AA00003FFFFFFFFFFFFFFFF9
0000000000000000002F28C0D60000033333333333534532
0000000000000000006E0B82F20000000000000002F29A00
000000000000000000AA1F46E00000000000000002F29A00
000000000000000000D64F1AA00000000000000002F29A00
000000000000000002F28C0D600000000000000000000000
000000000000000006E0B82F200000000000000000000000
00000000000000000AA1F46D000000000000000000000000
000000000000000005316134000000000000000000000000
ENDCHAR
STARTCHAR questiondown
ENCODING 191
SWIDTH 693 0
DWIDTH 25 0
BBX 24 31 0 0
BITMAP
000000002455531000000000
000005AEFFFEEFFC82000000
0006DEA631000037CFA20000
02CE71148ABCBA8303CE5000
1DB129EEB98779CFD507F500
0207FB50034442028FA07F20
001A506BFFFFFFE812DA0BB0
00001CE94200026CE42E72F3
0000041279BBA9408E26E0C8
0000001DC9878AEB0B91F38B
000000000000002F47C0E56D
000000000000001F46C0E66D
00004123041445CE1AA1F47C
0001F38B0F4CEC923F45E1A9
0001F38B0F400017E90C91F5
0001F38B0F4DDEFD609D18E1
0001F38B0F4554302BE33E60
0001F38B0F46779CFA12DA00
0001F38B0F4CCB97206EB100
0001F38B0F4000137DE70000
0001F38B0F4EFFFFC8100000
0001F38B0F43332100000000
0001F38B0F40000000000000
000161340610000000000000
000455555550000000000000
000BEEEEEED0000000000000
000000000000000000000000
000ACCCCCCB0000000000000
000577777760000000000000
000344444440000000000000
000CFFFFFFE0000000000000
ENDCHAR
STARTCHAR Agrave
ENCODING 192
SWIDTH 936 0
DWIDTH 34 0
BBX 33 41 0 0
BITMAP
00000007D6000000000000000000000000
000000117ED60000000000000000000000
000008F9217EE710000000000000000000
0000005DF9217EE7100000000000000000
000000005CF9217DE71000000000000000
00000000005CFA306DE600000000000000
0000000000004BFA306100000000000000
000000000000004BF70000000000000000
0000000000000000300000000000000000
0000000000000000000000000000000000
0000000000000000000000000000000000
0000000000002102011011000000000000
000000000002FB0E63F27D000000000000
000000000008EF28C0C82F400000000000
00000000000E6D72F36E0BA00000000000
00000000005E17D0B91E55F10000000000
0000000000B912F46E19B0E70000000000
0000000002F465AA1E64F28D0000000000
0000000008D0C84F19C0D82F4000000000
000000000E73F20D73F37D0BA000000000
000000005F19B067D0C91F45E100000000
00000000BA1E54E2F46E1AA0E600000000
00000002F46E0AA0BA1E64F28C00000000
00000008D0C91F425F19B0D72F30000000
0000000D73F37D0B2D73F27D0B90000000
0000004F19C0D82F38D0C81F45E1000000
000000AA1E64F28C02F46E0AA0E6000000
000001F45E1AB0E700BA1E54F19C000000
000007D0B91F55F1005E19B0D73F300000
00000D72F36E0BA0000E63F27D0C900000
00004F28C0C82F400008C0D82F46E10000
0000AB0E63F28D6CCCC5F37E0AA1E60000
0001F55E19B0D7577773B91F55F19C0000
0007E0B91E54F34444446E1AB0D73F3000
000D82F36E0AA9FFFFFF6E64F28D0C9000
004F28C0C91F4000000008C0D82F36E000
00AB0E63F37D5BBBBBBBB5F37D0B91E500
01F55F19C0D75888888883C91F55E19B00
07E0BA1E64F200000000006E1AA0E63F20
0C82F46E1AB000000000001E64F28C0C80
3F27D0C91F50000000000009C0D72F37E0
ENDCHAR
STARTCHAR Aacute
ENCODING 193
SWIDTH 936 0
DWIDTH 34 0
BBX 33 41 0 0
BITMAP
0000000000000000000000018E30000000
00000000000000000000029FD501000000
000000000000000000029FC504BF400000
0000000000000000029FC504BFA3000000
0000000000000002AFC404CFA300000000
00000000000000AFB405CFA20000000000
000000000000004405CF92000000000000
0000000000000000BF9200000000000000
0000000000000000220000000000000000
0000000000000000000000000000000000
0000000000000000000000000000000000
0000000000002102011011000000000000
000000000002FB0E63F27D000000000000
000000000008EF28C0C82F400000000000
00000000000E6D72F36E0BA00000000000
00000000005E17D0B91E55F10000000000
0000000000B912F46E19B0E70000000000
0000000002F465AA1E64F28D0000000000
0000000008D0C84F19C0D82F4000000000
000000000E73F20D73F37D0BA000000000
000000005F19B067D0C91F45E100000000
00000000BA1E54E2F46E1AA0E600000000
00000002F46E0AA0BA1E64F28C00000000
00000008D0C91F425F19B0D72F30000000
0000000D73F37D0B2D73F27D0B90000000
0000004F19C0D82F38D0C81F45E1000000
000000AA1E64F28C02F46E0AA0E6000000
000001F45E1AB0E700BA1E54F19C000000
000007D0B91F55F1005E19B0D73F300000
00000D72F36E0BA0000E63F27D0C900000
00004F28C0C82F400008C0D82F46E10000
0000AB0E63F28D6CCCC5F37E0AA1E60000
0001F55E19B0D7577773B91F55F19C0000
0007E0B91E54F34444446E1AB0D73F3000
000D82F36E0AA9FFFFFF6E64F28D0C9000
004F28C0C91F4000000008C0D82F36E000
00AB0E63F37D5BBBBBBBB5F37D0B91E500
01F55F19C0D75888888883C91F55E19B00
07E0BA1E64F200000000006E1AA0E63F20
0C82F46E1AB000000000001E64F28C0C80
3F27D0C91F50000000000009C0D72F37E0
ENDCHAR
STARTCHAR Acircumflex
ENCODING 194
SWIDTH 936 0
DWIDTH 34 0
BBX 33 41 0 0
BITMAP
000000000000003B43B100000000000000
00000000000000AFA1E600000000000000
00000000000001F9F19C00000000000000
00000000000007D0D73F30000000000000
0000000000000D708D0C90000000000000
0000000000004F262F46E0000000000000
0000000000009B0E4BA1E5000000000000
000000000001E55F15F19B000000000000
000000000005C09900C53D200000000000
0000000000000000000000000000000000
0000000000000000000000000000000000
0000000000002102011011000000000000
000000000002FB0E63F27D000000000000
000000000008EF28C0C82F400000000000
00000000000E6D72F36E0BA00000000000
00000000005E17D0B91E55F10000000000
0000000000B912F46E19B0E70000000000
0000000002F465AA1E64F28D0000000000
0000000008D0C84F19C0D82F4000000000
000000000E73F20D73F37D0BA000000000
000000005F19B067D0C91F45E100000000
00000000BA1E54E2F46E1AA0E600000000
00000002F46E0AA0BA1E64F28C00000000
00000008D0C91F425F19B0D72F30000000
0000000D73F37D0B2D73F27D0B90000000
0000004F19C0D82F38D0C81F45E1000000
000000AA1E64F28C02F46E0AA0E6000000
000001F45E1AB0E700BA1E54F19C000000
000007D0B91F55F1005E19B0D73F300000
00000D72F36E0BA0000E63F27D0C900000
00004F28C0C82F400008C0D82F46E10000
0000AB0E63F28D6CCCC5F37E0AA1E60000
0001F55E19B0D7577773B91F55F19C0000
0007E0B91E54F34444446E1AB0D73F3000
000D82F36E0AA9FFFFFF6E64F28D0C9000
004F28C0C91F4000000008C0D82F36E000
00AB0E63F37D5BBBBBBBB5F37D0B91E500
01F55F19C0D75888888883C91F55E19B00
07E0BA1E64F200000000006E1AA0E63F20
0C82F46E1AB000000000001E64F28C0C80
3F27D0C91F50000000000009C0D72F37E0
ENDCHAR
STARTCHAR Atilde
ENCODING 195
SWIDTH 936 0
DWIDTH 34 0
BBX 33 39 0 0
BITMAP
0000000004789999999992029065000000
00000002CFCBAAAAAAAAA305E0B8000000
0000001DB10011111111113CA0D6000000
0000006E12BFFFFFFFFFFFFC13F2000000
000000A90DB43333333333201CB0000000
000000C73F1048888888888AEC10000000
000000A44B007BBBBBBBBBB95000000000
0000000000000000000000000000000000
0000000000000000000000000000000000
0000000000002102011011000000000000
000000000002FB0E63F27D000000000000
000000000008EF28C0C82F400000000000
00000000000E6D72F36E0BA00000000000
00000000005E17D0B91E55F10000000000
0000000000B912F46E19B0E70000000000
0000000002F465AA1E64F28D0000000000
0000000008D0C84F19C0D82F4000000000
000000000E73F20D73F37D0BA000000000
000000005F19B067D0C91F45E100000000
00000000BA1E54E2F46E1AA0E600000000
00000002F46E0AA0BA1E64F28C00000000
00000008D0C91F425F19B0D72F30000000
0000000D73F37D0B2D73F27D0B90000000
0000004F19C0D82F38D0C81F45E1000000
000000AA1E64F28C02F46E0AA0E6000000
000001F45E1AB0E700BA1E54F19C000000
000007D0B91F55F1005E19B0D73F300000
00000D72F36E0BA0000E63F27D0C900000
00004F28C0C82F400008C0D82F46E10000
0000AB0E63F28D6CCCC5F37E0AA1E60000
0001F55E19B0D7577773B91F55F19C0000
0007E0B91E54F34444446E1AB0D73F3000
000D82F36E0AA9FFFFFF6E64F28D0C9000
004F28C0C91F4000000008C0D82F36E000
00AB0E63F37D5BBBBBBBB5F37D0B91E500
01F55F19C0D75888888883C91F55E19B00
07E0BA1E64F200000000006E1AA0E63F20
0C82F46E1AB000000000001E64F28C0C80
3F27D0C91F50000000000009C0D72F37E0
ENDCHAR
STARTCHAR Adieresis
ENCODING 196
SWIDTH 936 0
DWIDTH 34 0
BBX 33 37 0 0
BITMAP
0000000064181550000733707300000000
00000000B83F1A90000E56D0D600000000
00000000B83F1A90000E56D0D600000000
00000000B83F1A90000E56D0D600000000
0000000053160440000622605300000000
0000000000000000000000000000000000
0000000000000000000000000000000000
0000000000002102011011000000000000
000000000002FB0E63F27D000000000000
000000000008EF28C0C82F400000000000
00000000000E6D72F36E0BA00000000000
00000000005E17D0B91E55F10000000000
0000000000B912F46E19B0E70000000000
0000000002F465AA1E64F28D0000000000
0000000008D0C84F19C0D82F4000000000
000000000E73F20D73F37D0BA000000000
000000005F19B067D0C91F45E100000000
00000000BA1E54E2F46E1AA0E600000000
00000002F46E0AA0BA1E64F28C00000000
00000008D0C91F425F19B0D72F30000000
0000000D73F37D0B2D73F27D0B90000000
0000004F19C0D82F38D0C81F45E1000000
000000AA1E64F28C02F46E0AA0E6000000
000001F45E1AB0E700BA1E54F19C000000
000007D0B91F55F1005E19B0D73F300000
00000D72F36E0BA0000E63F27D0C900000
00004F28C0C82F400008C0D82F46E10000
0000AB0E63F28D6CCCC5F37E0AA1E60000
0001F55E19B0D7577773B91F55F19C0000
0007E0B91E54F34444446E1AB0D73F3000
000D82F36E0AA9FFFFFF6E64F28D0C9000
004F28C0C91F4000000008C0D82F36E000
00AB0E63F37D5BBBBBBBB5F37D0B91E500
01F55F19C0D75888888883C91F55E19B00
07E0BA1E64F200000000006E1AA0E63F20
0C82F46E1AB000000000001E64F28C0C80
3F27D0C91F50000000000009C0D72F37E0
ENDCHAR
STARTCHAR Aring
ENCODING 197
SWIDTH 936 0
DWIDTH 34 0
BBX 33 40 0 0
BITMAP
0000000000000001330000000000000000
00000000000001AEBCE700000000000000
0000000000001C91432C90000000000000
0000000000007A3DBCB2E3000000000000
000000000000C4B600A788000000000000
000000000000E2E2006A69000000000000
000000000000C4B700B788000000000000
0000000000007B2CCDA2E2000000000000
0000000000000BA2213D70000000000000
000000000000008EDDD500000000000000
0000000000002102221011000000000000
000000000002FB0E63F27D000000000000
000000000008EF28C0C82F400000000000
00000000000E6D72F36E0BA00000000000
00000000005E17D0B91E55F10000000000
0000000000B912F46E19B0E70000000000
0000000002F465AA1E64F28D0000000000
0000000008D0C84F19C0D82F4000000000
000000000E73F20D73F37D0BA000000000
000000005F19B067D0C91F45E100000000
00000000BA1E54E2F46E1AA0E600000000
00000002F46E0AA0BA1E64F28C00000000
00000008D0C91F425F19B0D72F30000000
0000000D73F37D0B2D73F27D0B90000000
0000004F19C0D82F38D0C81F45E1000000
000000AA1E64F28C02F46E0AA0E6000000
000001F45E1AB0E700BA1E54F19C000000
000007D0B91F55F1005E19B0D73F300000
00000D72F36E0BA0000E63F27D0C900000
00004F28C0C82F400008C0D82F46E10000
0000AB0E63F28D6CCCC5F37E0AA1E60000
0001F55E19B0D7577773B91F55F19C0000
0007E0B91E54F34444446E1AB0D73F3000
000D82F36E0AA9FFFFFF6E64F28D0C9000
004F28C0C91F4000000008C0D82F36E000
00AB0E63F37D5BBBBBBBB5F37D0B91E500
01F55F19C0D75888888883C91F55E19B00
07E0BA1E64F200000000006E1AA0E63F20
0C82F46E1AB000000000001E64F28C0C80
3F27D0C91F50000000000009C0D72F37E0
ENDCHAR
STARTCHAR AE
ENCODING 198
SWIDTH 1198 0
DWIDTH 43 0
BBX 42 30 0 0
BITMAP
000000000000110201201222222222222222222221
000000000002FB0E63F26FFFFFFFFFFFFFFFFFFFFC
000000000008EF28C0C81F72222222222222222222
00000000000E7D82F36E0AC9999999999999999997
00000000005F17D0B91E54FBAAAAAAAAAAAAAAAAA8
0000000000BA11F55E19B0D7111111111111111111
0000000002F465AA0E63F27FFFFFFFFFFFFFFFFFFC
0000000008D0C84F28C0C82F733333333333333333
000000000D73F20D72F36E0BA00000000000000000
000000004F19C077D0B91F55F10000000000000000
00000000AA1E64E1F45E1AB0E70000000000000000
00000002F46E1AB0AA1E64F28D0000000000000000
00000007D0C91F524F19C0D82FBBBBBBBBBBBBB700
0000000D72F37E0B2D73F37D0CD888888888888500
0000004F28C0D82F38D0C91F46E333333333333200
000000AA0E63F28D02F46E0AA1EFFFFFFFFFFFF900
000001F55E19B0D700BA1E54F29C11111111111100
000007D0B91E55F1005F19B0D73FAAAAAAAAAAA600
00000D82F36E0AA0000E73F27D0DC9999999999600
00004F28C0C82F400008D0C81F47C0000000000000
0000AB0E63F27D5CCCC5F36E0AA1F3000000000000
0001F55E19C0D7577773B91E54F1A9000000000000
0007E0BA1E64F34444446E19B0D74E100000000000
000D82F46E1AA8FFFFFF6E64F27D0D955555555554
003F28D0C91F4000000008C0D82F48FEEEEEEEEEEB
009B0D73F37D5BBBBBBBB5F37E0BA2F40000000000
01E54F19C0D85888888884B91F55F1BECCCCCCCCC9
06E0AA0E64F200000000005E1AB0D65F8777777775
0C81F45E1AB000000000001E64F28C1E8444444443
3F27D0B91F50000000000009C0D82F39FFFFFFFFFC
ENDCHAR
STARTCHAR Ccedilla
ENCODING 199
SWIDTH 852 0
DWIDTH 31 0
BBX 29 44 1 -13
BITMAP
000000000000035554200000000000
00000000016BFFEEEFFEA500000000
000000017EE841000026AFD5000000
0000004ED60269BCCB85018FB20000
000007F814BFEA8778BFE812CE3000
00009E519FB4013442016DE509E400
0006F42DD406CFFFFFEA307F909E20
003F62DB14DE8410025BF914E90B90
00CA0CC07FA116ABA9404DD23F7100
05F28E16F608ED989BFD41BD153000
0C81F63F71CE50000019F61C600000
3F28D0BB0BD2000000005F40000000
7C0D83F36E20000000000410000000
B82F38C0D800000000000000000000
D65F0B82F200000000000000000000
F46D0D65E000000000000000000000
F47C0E56D000000000000000000000
F46D0D65E000000000000000000000
D65F0B82F200000000000000000000
B92F38C0C800000000000000000000
7D0D82F35F30000000000610000000
3F37D1AC0AD2000000007F41000000
0C91E72E80AE7100003BE51D600000
04F27E25F806EEB9ACFB22CC164000
00BB0BD15FB2158A97205EC15F5210
003E71DC23CFA521237CF805F80C90
0005F51CE504AEFFFFD8219F70AE10
00007F608FC6102321027ED41BE300
000006F9129EFCA89ADFD714DD2000
0000003DE71158ABA97303AFA10000
000000006DEA63101247CFB4000000
00000000005AEFFFFFFC8300000000
00000000000002F7CD000000000000
0000000000049CF38B000000000000
00000000007FA6418B000000000000
0000000001E70367CB000000000000
0000000004F17FDCC8000000000000
0000000006D0D80000000000000000
0000000007C0E60000000000000000
0000000006D0BC5443000000000000
0000000003F22ADFFB000000000000
0000000000CC300000000000000000
00000000002BFECBB8000000000000
000000000000367886000000000000
ENDCHAR
STARTCHAR Egrave
ENCODING 200
SWIDTH 706 0
DWIDTH 25 0
BBX 23 41 1 0
BITMAP
008D60000000000000000000
0118ED600000000000000000
9E8118ED6000000000000000
06DF9217EE71000000000000
0005DF9217EE710000000000
000005CF9217EE5000000000
00000005CFA2061000000000
0000000004CF600000000000
000000000003000000000000
000000000000000000000000
000000000000000000000000
110110201222222222222220
5E0C74F0CFFFFFFFFFFFFFE0
5E0C74F0C922222222222220
5E0C74F0CC99999999999980
5E0C74F0CDAAAAAAAAAAAAA0
5E0C74F0C811111111111110
5E0C74F0CFFFFFFFFFFFFFE0
5E0C74F0C933333333333330
5E0C74F0C800000000000000
5E0C74F0C800000000000000
5E0C74F0C800000000000000
5E0C74F0C800000000000000
5E0C74F0CDBBBBBB40000000
5E0C74F0CC88888830000000
5E0C74F0C933333310000000
5E0C74F0CFFFFFFF60000000
5E0C74F0C811111100000000
5E0C74F0CCAAAAAA40000000
5E0C74F0CC99999940000000
5E0C74F0C800000000000000
5E0C74F0C800000000000000
5E0C74F0C800000000000000
5E0C74F0C800000000000000
5E0C74F0CA55555555555550
5E0C74F0CFEEEEEEEEEEEED0
5E0C74F0C800000000000000
5E0C74F0CECCCCCCCCCCCCB0
5E0C74F0CB77777777777770
5E0C74F0CA44444444444440
5E0C74F0CFFFFFFFFFFFFFE0
ENDCHAR
STARTCHAR Eacute
ENCODING 201
SWIDTH 706 0
DWIDTH 25 0
BBX 24 41 1 0
BITMAP
00000000000000000029D300
000000000000000029FC5010
0000000000000029FC504BF3
0000000000003AFC404CFA30
00000000003AFB405CFA2000
000000000AFB405CF9200000
0000000004305DF920000000
00000000000CE82000000000
000000000002100000000000
000000000000000000000000
000000000000000000000000
110110201222222222222220
5E0C74F0CFFFFFFFFFFFFFE0
5E0C74F0C922222222222220
5E0C74F0CC99999999999980
5E0C74F0CDAAAAAAAAAAAAA0
5E0C74F0C811111111111110
5E0C74F0CFFFFFFFFFFFFFE0
5E0C74F0C933333333333330
5E0C74F0C800000000000000
5E0C74F0C800000000000000
5E0C74F0C800000000000000
5E0C74F0C800000000000000
5E0C74F0CDBBBBBB40000000
5E0C74F0CC88888830000000
5E0C74F0C933333310000000
5E0C74F0CFFFFFFF60000000
5E0C74F0C811111100000000
5E0C74F0CCAAAAAA40000000
5E0C74F0CC99999940000000
5E0C74F0C800000000000000
5E0C74F0C800000000000000
5E0C74F0C800000000000000
5E0C74F0C800000000000000
5E0C74F0CA55555555555550
5E0C74F0CFEEEEEEEEEEEED0
5E0C74F0C800000000000000
5E0C74F0CECCCCCCCCCCCCB0
5E0C74F0CB77777777777770
5E0C74F0CA44444444444440
5E0C74F0CFFFFFFFFFFFFFE0
ENDCHAR
STARTCHAR Ecircumflex
ENCODING 202
SWIDTH 706 0
DWIDTH 25 0
BBX 23 41 1 0
BITMAP
0000000004B34A0000000000
000000000BF91F5000000000
000000002F9E1AB000000000
000000008C0E64F200000000
00000000D708C0D800000000
00000004F163F37D00000000
0000000AA1E3C91F40000000
0000002F46E16E1AA0000000
0000006B0A801C54D1000000
000000000000000000000000
000000000000000000000000
110110201222222222222220
5E0C74F0CFFFFFFFFFFFFFE0
5E0C74F0C922222222222220
5E0C74F0CC99999999999980
5E0C74F0CDAAAAAAAAAAAAA0
5E0C74F0C811111111111110
5E0C74F0CFFFFFFFFFFFFFE0
5E0C74F0C933333333333330
5E0C74F0C800000000000000
5E0C74F0C800000000000000
5E0C74F0C800000000000000
5E0C74F0C800000000000000
5E0C74F0CDBBBBBB40000000
5E0C74F0CC88888830000000
5E0C74F0C933333310000000
5E0C74F0CFFFFFFF60000000
5E0C74F0C811111100000000
5E0C74F0CCAAAAAA40000000
5E0C74F0CC99999940000000
5E0C74F0C800000000000000
5E0C74F0C800000000000000
5E0C74F0C800000000000000
5E0C74F0C800000000000000
5E0C74F0CA55555555555550
5E0C74F0CFEEEEEEEEEEEED0
5E0C74F0C800000000000000
5E0C74F0CECCCCCCCCCCCCB0
5E0C74F0CB77777777777770
5E0C74F0CA44444444444440
5E0C74F0CFFFFFFFFFFFFFE0
ENDCHAR
STARTCHAR Edieresis
ENCODING 203
SWIDTH 706 0
DWIDTH 25 0
BBX 23 37 1 0
BITMAP
000642806400008236073000
000C74F0B80000F47C0E5000
000C74F0B80000F47C0E5000
000C74F0B80000F47C0E5000
000532605300006235062000
000000000000000000000000
000000000000000000000000
110110201222222222222220
5E0C74F0CFFFFFFFFFFFFFE0
5E0C74F0C922222222222220
5E0C74F0CC99999999999980
5E0C74F0CDAAAAAAAAAAAAA0
5E0C74F0C811111111111110
5E0C74F0CFFFFFFFFFFFFFE0
5E0C74F0C933333333333330
5E0C74F0C800000000000000
5E0C74F0C800000000000000
5E0C74F0C800000000000000
5E0C74F0C800000000000000
5E0C74F0CDBBBBBB40000000
5E0C74F0CC88888830000000
5E0C74F0C933333310000000
5E0C74F0CFFFFFFF60000000
5E0C74F0C811111100000000
5E0C74F0CCAAAAAA40000000
5E0C74F0CC99999940000000
5E0C74F0C800000000000000
5E0C74F0C800000000000000
5E0C74F0C800000000000000
5E0C74F0C800000000000000
5E0C74F0CA55555555555550
5E0C74F0CFEEEEEEEEEEEED0
5E0C74F0C800000000000000
5E0C74F0CECCCCCCCCCCCCB0
5E0C74F0CB77777777777770
5E0C74F0CA44444444444440
5E0C74F0CFFFFFFFFFFFFFE0
ENDCHAR
STARTCHAR Igrave
ENCODING 204
SWIDTH 338 0
DWIDTH 12 0
BBX 17 41 -6 0
BITMAP
004E81000000000000
0106DE810000000000
5FA306DE8100000000
04BFB305DF92000000
0003BFB405CF920000
000003AFB405CF9000
00000003AFC4043000
0000000002AFA00000
000000000002100000
000000000000000000
000000000000000000
000000011011020110
00000005E0C74F0C80
00000005E0C74F0C80
00000005E0C74F0C80
00000005E0C74F0C80
00000005E0C74F0C80
00000005E0C74F0C80
00000005E0C74F0C80
00000005E0C74F0C80
00000005E0C74F0C80
00000005E0C74F0C80
00000005E0C74F0C80
00000005E0C74F0C80
00000005E0C74F0C80
00000005E0C74F0C80
00000005E0C74F0C80
00000005E0C74F0C80
00000005E0C74F0C80
00000005E0C74F0C80
00000005E0C74F0C80
00000005E0C74F0C80
00000005E0C74F0C80
00000005E0C74F0C80
00000005E0C74F0C80
00000005E0C74F0C80
00000005E0C74F0C80
00000005E0C74F0C80
00000005E0C74F0C80
00000005E0C74F0C80
00000005E0C74F0C80
ENDCHAR
STARTCHAR Iacute
ENCODING 205
SWIDTH 338 0
DWIDTH 12 0
BBX 17 41 1 0
BITMAP
0000000000017D6000
00000000017EE71100
000000018ED7129F60
0000018ED603AFC500
00018ED603AFC40000
007FD603AFB4000000
002503BFB300000000
00008FA30000000000
000013000000000000
000000000000000000
000000000000000000
110110201100000000
5E0C74F0C800000000
5E0C74F0C800000000
5E0C74F0C800000000
5E0C74F0C800000000
5E0C74F0C800000000
5E0C74F0C800000000
5E0C74F0C800000000
5E0C74F0C800000000
5E0C74F0C800000000
5E0C74F0C800000000
5E0C74F0C800000000
5E0C74F0C800000000
5E0C74F0C800000000
5E0C74F0C800000000
5E0C74F0C800000000
5E0C74F0C800000000
5E0C74F0C800000000
5E0C74F0C800000000
5E0C74F0C800000000
5E0C74F0C800000000
5E0C74F0C800000000
5E0C74F0C800000000
5E0C74F0C800000000
5E0C74F0C800000000
5E0C74F0C800000000
5E0C74F0C800000000
5E0C74F0C800000000
5E0C74F0C800000000
5E0C74F0C800000000
ENDCHAR
STARTCHAR Icircumflex
ENCODING 206
SWIDTH 338 0
DWIDTH 12 0
BBX 12 41 0 0
BITMAP
0001B61B3000
0007FD0C9000
000D9F46E100
004F2AA1E600
00AB04F19C00
01F552D73F30
06D0B78D0C80
0C82F42F46E0
2D26B00A81D4
000000000000
000000000000
011011020110
05E0C74F0C80
05E0C74F0C80
05E0C74F0C80
05E0C74F0C80
05E0C74F0C80
05E0C74F0C80
05E0C74F0C80
05E0C74F0C80
05E0C74F0C80
05E0C74F0C80
05E0C74F0C80
05E0C74F0C80
05E0C74F0C80
05E0C74F0C80
05E0C74F0C80
05E0C74F0C80
05E0C74F0C80
05E0C74F0C80
05E0C74F0C80
05E0C74F0C80
05E0C74F0C80
05E0C74F0C80
05E0C74F0C80
05E0C74F0C80
05E0C74F0C80
05E0C74F0C80
05E0C74F0C80
05E0C74F0C80
05E0C74F0C80
ENDCHAR
STARTCHAR Idieresis
ENCODING 207
SWIDTH 338 0
DWIDTH 12 0
BBX 18 37 -3 0
BITMAP
460823600006418155
8B0F47C0000B83F1A9
8B0F47C0000B83F1A9
8B0F47C0000B83F1A9
350623500005316044
000000000000000000
000000000000000000
000011011020110000
00005E0C74F0C80000
00005E0C74F0C80000
00005E0C74F0C80000
00005E0C74F0C80000
00005E0C74F0C80000
00005E0C74F0C80000
00005E0C74F0C80000
00005E0C74F0C80000
00005E0C74F0C80000
00005E0C74F0C80000
00005E0C74F0C80000
00005E0C74F0C80000
00005E0C74F0C80000
00005E0C74F0C80000
00005E0C74F0C80000
00005E0C74F0C80000
00005E0C74F0C80000
00005E0C74F0C80000
00005E0C74F0C80000
00005E0C74F0C80000
00005E0C74F0C80000
00005E0C74F0C80000
00005E0C74F0C80000
00005E0C74F0C80000
00005E0C74F0C80000
00005E0C74F0C80000
00005E0C74F0C80000
00005E0C74F0C80000
00005E0C74F0C80000
ENDCHAR
STARTCHAR Eth
ENCODING 208
SWIDTH 905 0
DWIDTH 33 0
BBX 31 30 1 0
BITMAP
01222222222222222100000000000000
0BFFFFFFFFFFFFFFFFFEA50000000000
0B922222222222222236AED600000000
0B829999999999999975119FA1000000
0B83FBAAAAAAAAAAAACEE913DC100000
0B83F1011111111111005DE42DC00000
0B83F1AFFFFFFFFFFFEA408F52E90000
0B83F1AA33333333335AF907F35F3000
0B83F1A91888888887514EA0AD0BC000
0B83F1A92FCBBBBBBCED33E62E63F300
0B83F1A92F200000001AE27E18D0C900
07529166191000000000CA0E72F38D00
BBBBBBBBBBBBB20000004F29C0D73F10
888888888888820000000E65F0AA1F40
333333333333310000000C83F28B0F50
FFFFFFFFFFFFF30000000B92F38C0E60
111111111111100000000C83F28B0F50
AAAAAAAAAAAAA20000000E55F0A91F40
999999999999920000005F19B0D74F10
0862C1872C1000000001D91E63F38D00
0B83F1A92F200000001BD18E19C0C800
0B83F1A92FDDDDDDDDFC24F52F54F200
0B83F1A91666666666405E80BC0BA000
0B83F1AB55555555557BF709E26F3000
0B83F19EEEEEEEEEEED931AE42E70000
0B83F1000000000000017ED32DB00000
0B83FCCCCCCCCCCCCCDFE714EB100000
0B81777777777777776302AF90000000
0BA44444444444444457BFC300000000
0BFFFFFFFFFFFFFFFFEC940000000000
ENDCHAR
STARTCHAR Ntilde
ENCODING 209
SWIDTH 877 0
DWIDTH 32 0
BBX 29 39 1 0
BITMAP
000000047899999999920380740000
000003DFCBAAAAAAAAA207D0C60000
00001EA10011111111113D90E50000
00007D03CFFFFFFFFFFFFB14F10000
0000B81EA43333333333202D900000
0000D55F1058888888888AFB100000
0000B35A007BBBBBBBBBB940000000
000000000000000000000000000000
000000000000000000000000000000
120120120120000000002011011110
5F81E71E72E600000000E56D0D65E0
5FF26E26E27E10000000E56D0D65E0
5EBB0CA0CA0CA0000000E56D0D65E0
5E2F53F43F53F4000000E56D0D65E0
5E08E18D19D19D000000E56D0D65E0
5E01D91D81E81E700000E56D0D65E0
5E085F35F25F36E20000E56D0D65E0
5E0C4AC0BB0BB0CB0000E56D0D65E0
5E0C72E62F62F63F5000E56D0D65E0
5E0C707E17E18E18D100E56D0D65E0
5E0C743CA0D91D91D800E56D0D65E0
5E0C74B3F44F34F35F30E56D0D65E0
5E0C74F09D0AC0AC0BC0E56D0D65E0
5E0C74F01E71E72E72E6956D0D65E0
5E0C74F056E26E27E27E236D0D65E0
5E0C74F0B3BB0CA0CA0D906D0D65E0
5E0C74F0C83F53F43F44F46D0D65E0
5E0C74F0C808D19D19D1AC3C0D65E0
5E0C74F0C801D81E81E81E760D65E0
5E0C74F0C8005F35F26F26E20D65E0
5E0C74F0C8000AC0BB0BB0CA0D65E0
5E0C74F0C80002E62F63F53F5A65E0
5E0C74F0C800007E17E18E19D355E0
5E0C74F0C800000C90D91D91E805E0
5E0C74F0C8000004F34F35F35F25E0
5E0C74F0C80000009C0AC0AC0BB5E0
5E0C74F0C80000001E71E72E62FBE0
5E0C74F0C800000006E26E27E18FE0
5E0C74F0C800000000CA0CA0DA1DE0
ENDCHAR
STARTCHAR Ograve
ENCODING 210
SWIDTH 933 0
DWIDTH 34 0
BBX 32 43 1 -2
BITMAP
0000008D600000000000000000000000
00000118ED6000000000000000000000
00009E8217ED60000000000000000000
000006DF9217EE710000000000000000
00000005CF9217EE7100000000000000
0000000005CF9217DE60000000000000
000000000004CFA30610000000000000
00000000000004BF6000000000000000
00000000000000030000000000000000
00000000000000000000000000000000
00000000000013555420000000000000
00000000016BFFEEEFFE940000000000
000000017EE841000026AFC400000000
0000004ED60269BCCB85029FB1000000
000007F814BFEA8779BFE812CD300000
00009E519FB4013442016DE60AE30000
0006F42DD406CFFFFFEA307F909D2000
003F62DB14DE8410025BFA14E90BC000
00CA0CC07FA116ABB9403DD23F71E600
05F28E16F608ED988BFD41BD26F27D00
0C81F63F71CE50000019F71DB0CA1E60
3F28D0BB0BD2000000005F53F54F28C0
7C0D83F36E200000000007E19C0D73F1
B82F38C0D8000000000000D73F29B0E5
D65F0B82F20000000000008B0E65E0C7
F46D0D65E00000000000005E0C84F0A9
F47C0E56D00000000000004F0B83F1A9
F46D0D65E00000000000005E0C74F0A9
D65F0B82F20000000000008B0E56E0C7
B92F38C0C8000000000001E63F29B0E5
7D0D82F35F300000000009D09C0E74F1
3F37D1AC0AD2000000007F43F45F29B0
0C91E72E80AE7000002AF51DA0D91E60
04F27E25F806EEB9ACFB32CD17E28D00
00BB0BD15FB2158A97305EC24F52F500
003E71DC23CFA521237CF815F81CB000
0005F51CE505AEFFFFD8219F70AD1000
00007F608FC6102321038ED41BE20000
000006F9129EFCA89BDFD704DC200000
0000003DE71158ABA97303BF91000000
000000006DEA63100247CFB300000000
00000000005AEFFFFFFC830000000000
00000000000001343200000000000000
ENDCHAR
STARTCHAR Oacute
ENCODING 211
SWIDTH 933 0
DWIDTH 34 0
BBX 32 43 1 -2
BITMAP
000000000000000000000029D3000000
0000000000000000000029FC50100000
00000000000000000029FC504BF30000
00000000000000003AFC404CFA300000
000000000000003AFB405CFA20000000
0000000000000AFB405CF92000000000
00000000000004305DF9200000000000
000000000000000CE820000000000000
00000000000000021000000000000000
00000000000000000000000000000000
00000000000013555420000000000000
00000000016BFFEEEFFE940000000000
000000017EE841000026AFC400000000
0000004ED60269BCCB85029FB1000000
000007F814BFEA8779BFE812CD300000
00009E519FB4013442016DE60AE30000
0006F42DD406CFFFFFEA307F909D2000
003F62DB14DE8410025BFA14E90BC000
00CA0CC07FA116ABB9403DD23F71E600
05F28E16F608ED988BFD41BD26F27D00
0C81F63F71CE50000019F71DB0CA1E60
3F28D0BB0BD2000000005F53F54F28C0
7C0D83F36E200000000007E19C0D73F1
B82F38C0D8000000000000D73F29B0E5
D65F0B82F20000000000008B0E65E0C7
F46D0D65E00000000000005E0C84F0A9
F47C0E56D00000000000004F0B83F1A9
F46D0D65E00000000000005E0C74F0A9
D65F0B82F20000000000008B0E56E0C7
B92F38C0C8000000000001E63F29B0E5
7D0D82F35F300000000009D09C0E74F1
3F37D1AC0AD2000000007F43F45F29B0
0C91E72E80AE7000002AF51DA0D91E60
04F27E25F806EEB9ACFB32CD17E28D00
00BB0BD15FB2158A97305EC24F52F500
003E71DC23CFA521237CF815F81CB000
0005F51CE505AEFFFFD8219F70AD1000
00007F608FC6102321038ED41BE20000
000006F9129EFCA89BDFD704DC200000
0000003DE71158ABA97303BF91000000
000000006DEA63100247CFB300000000
00000000005AEFFFFFFC830000000000
00000000000001343200000000000000
ENDCHAR
STARTCHAR Ocircumflex
ENCODING 212
SWIDTH 933 0
DWIDTH 34 0
BBX 32 43 1 -2
BITMAP
00000000000004B34A00000000000000
0000000000000BF91F50000000000000
0000000000002F9E1AB0000000000000
0000000000008C0E64F2000000000000
000000000000D708C0D8000000000000
000000000004F163F37D000000000000
00000000000AA1E3C91F400000000000
00000000002F46E16E1AA00000000000
00000000006B0A801C54D10000000000
00000000000000000000000000000000
00000000000013555420000000000000
00000000016BFFEEEFFE940000000000
000000017EE841000026AFC400000000
0000004ED60269BCCB85029FB1000000
000007F814BFEA8779BFE812CD300000
00009E519FB4013442016DE60AE30000
0006F42DD406CFFFFFEA307F909D2000
003F62DB14DE8410025BFA14E90BC000
00CA0CC07FA116ABB9403DD23F71E600
05F28E16F608ED988BFD41BD26F27D00
0C81F63F71CE50000019F71DB0CA1E60
3F28D0BB0BD2000000005F53F54F28C0
7C0D83F36E200000000007E19C0D73F1
B82F38C0D8000000000000D73F29B0E5
D65F0B82F20000000000008B0E65E0C7
F46D0D65E00000000000005E0C84F0A9
F47C0E56D00000000000004F0B83F1A9
F46D0D65E00000000000005E0C74F0A9
D65F0B82F20000000000008B0E56E0C7
B92F38C0C8000000000001E63F29B0E5
7D0D82F35F300000000009D09C0E74F1
3F37D1AC0AD2000000007F43F45F29B0
0C91E72E80AE7000002AF51DA0D91E60
04F27E25F806EEB9ACFB32CD17E28D00
00BB0BD15FB2158A97305EC24F52F500
003E71DC23CFA521237CF815F81CB000
0005F51CE505AEFFFFD8219F70AD1000
00007F608FC6102321038ED41BE20000
000006F9129EFCA89BDFD704DC200000
0000003DE71158ABA97303BF91000000
000000006DEA63100247CFB300000000
00000000005AEFFFFFFC830000000000
00000000000001343200000000000000
ENDCHAR
STARTCHAR Otilde
ENCODING 213
SWIDTH 933 0
DWIDTH 34 0
BBX 32 41 1 -2
BITMAP
00000000478999999999202906500000
0000003DFCBAAAAAAAAA206E0C700000
000001DB10011111111113D90E500000
000007E13BFFFFFFFFFFFFB13F200000
00000B90DB43333333333202DA000000
00000D64F1058888888888AEC1000000
00000A44A007BBBBBBBBBB9500000000
00000000000000000000000000000000
00000000000013555420000000000000
00000000016BFFEEEFFE940000000000
000000017EE841000026AFC400000000
0000004ED60269BCCB85029FB1000000
000007F814BFEA8779BFE812CD300000
00009E519FB4013442016DE60AE30000
0006F42DD406CFFFFFEA307F909D2000
003F62DB14DE8410025BFA14E90BC000
00CA0CC07FA116ABB9403DD23F71E600
05F28E16F608ED988BFD41BD26F27D00
0C81F63F71CE50000019F71DB0CA1E60
3F28D0BB0BD2000000005F53F54F28C0
7C0D83F36E200000000007E19C0D73F1
B82F38C0D8000000000000D73F29B0E5
D65F0B82F20000000000008B0E65E0C7
F46D0D65E00000000000005E0C84F0A9
F47C0E56D00000000000004F0B83F1A9
F46D0D65E00000000000005E0C74F0A9
D65F0B82F20000000000008B0E56E0C7
B92F38C0C8000000000001E63F29B0E5
7D0D82F35F300000000009D09C0E74F1
3F37D1AC0AD2000000007F43F45F29B0
0C91E72E80AE7000002AF51DA0D91E60
04F27E25F806EEB9ACFB32CD17E28D00
00BB0BD15FB2158A97305EC24F52F500
003E71DC23CFA521237CF815F81CB000
0005F51CE505AEFFFFD8219F70AD1000
00007F608FC6102321038ED41BE20000
000006F9129EFCA89BDFD704DC200000
0000003DE71158ABA97303BF91000000
000000006DEA63100247CFB300000000
00000000005AEFFFFFFC830000000000
00000000000001343200000000000000
ENDCHAR
STARTCHAR Odieresis
ENCODING 214
SWIDTH 933 0
DWIDTH 34 0
BBX 32 39 1 -2
BITMAP
00000006428064000082360730000000
0000000C74F0B80000F47C0E50000000
0000000C74F0B80000F47C0E50000000
0000000C74F0B80000F47C0E50000000
00000005326053000062350620000000
00000000000000000000000000000000
00000000000013555420000000000000
00000000016BFFEEEFFE940000000000
000000017EE841000026AFC400000000
0000004ED60269BCCB85029FB1000000
000007F814BFEA8779BFE812CD300000
00009E519FB4013442016DE60AE30000
0006F42DD406CFFFFFEA307F909D2000
003F62DB14DE8410025BFA14E90BC000
00CA0CC07FA116ABB9403DD23F71E600
05F28E16F608ED988BFD41BD26F27D00
0C81F63F71CE50000019F71DB0CA1E60
3F28D0BB0BD2000000005F53F54F28C0
7C0D83F36E200000000007E19C0D73F1
B82F38C0D8000000000000D73F29B0E5
D65F0B82F20000000000008B0E65E0C7
F46D0D65E00000000000005E0C84F0A9
F47C0E56D00000000000004F0B83F1A9
F46D0D65E00000000000005E0C74F0A9
D65F0B82F20000000000008B0E56E0C7
B92F38C0C8000000000001E63F29B0E5
7D0D82F35F300000000009D09C0E74F1
3F37D1AC0AD2000000007F43F45F29B0
0C91E72E80AE7000002AF51DA0D91E60
04F27E25F806EEB9ACFB32CD17E28D00
00BB0BD15FB2158A97305EC24F52F500
003E71DC23CFA521237CF815F81CB000
0005F51CE505AEFFFFD8219F70AD1000
00007F608FC6102321038ED41BE20000
000006F9129EFCA89BDFD704DC200000
0000003DE71158ABA97303BF91000000
000000006DEA63100247CFB300000000
00000000005AEFFFFFFC830000000000
00000000000001343200000000000000
ENDCHAR
STARTCHAR multiply
ENCODING 215
SWIDTH 790 0
DWIDTH 28 0
BBX 28 26 0 0
BITMAP
1520520530430000151152052043
0CB0AD08E17F2000AD09E17E25F4
03F61E81DA0CC005F43F52E71D90
008E16F34F43F61E90CB0BC09D10
000DA0BC0AD1889E17E25F34F500
0004F52F61E914F52F71E80DA000
00009D17E25F2DA0BC0AD18E2000
00001E90CB058E26F34F43F60000
000005F33F53F61E81DA0CC00000
000000BD095CC0AD08E16F200000
0000002E806F25F43F52E7000000
00000006E2E71D90CB0BD0000000
000000004BD09E17E25F30000000
000000005F33F52E71E900000000
00000001E90DA0BC09D560000000
00000009D18E26F34F57E2000000
0000004F52F61E81DA30DB000000
000001DA0CC0AD08E3F34F500000
000008E16F34F43F60BD09E10000
00003F62E81D90CB762E71D90000
0000CB0AD09E17F28E17F25F4000
0007F25F43F52E751DA0CB0AD000
002E71E90CB0BC4F34F43F61E800
00BC09D17E26F30BC09D18E26F30
05F34F52F61E9002F71E80DA0BC0
1E80DA0BC0AD10007E25F34F52F6
ENDCHAR
STARTCHAR Oslash
ENCODING 216
SWIDTH 938 0
DWIDTH 34 0
BBX 32 41 1 -6
BITMAP
00000000000000000000001000000000
0000000000000000000001E500000000
0000000000000000000007E198000000
000000000000000000001E62F4490000
000000000000135554204C0AC0C90000
00000000016BFFEEEFFE940C45F20000
000000017ED841000026BFC40C900000
0000005ED60269BCCB85029FB4100000
000007F804BFEA8779BFE812CD300000
00009E51AFB4013442016DE51AE30000
0006F32DD306CFFFFFEA307F809D1000
003F62EB14DE8410025BFA14E90CC000
00C90CC07F9116ABB9404DD24F61E600
05E28D16F608FD988BFC41BD16E28D00
0D82F63F71CD50000019F71DB0CA1E60
3F28D0BB0BD2000000006F53F54F28C0
8C0D73F26E200000000008E19C0E73F1
B82F38C0D7000000000000D63F29B0E5
D65E0C83F20000000000008B0E56E0C7
F47D0E55E00000000000005E0C74F0B8
F47C0E56D00000000000004F0B83F1A9
F47D0E55E00000000000005E0C74F0B8
D65E0B82F20000000000009B0E56E0C7
B92F38C0C8000000000001E64F2AB0F4
7C0D83F35F300000000009D0AB0E64F1
3F27D0BC0AD2000000007F44F45F19B0
0C91E72E81AE6000002AF51DA0D91E50
04F27E25F706EEB9ACFB32CC18E18D00
00BA0BC15FB2158A97305EC15F52F500
003E71DC23CFA521237CF806F71DB000
0005F41CE505AEFFFFD8219F70AD1000
00007F608FC5102321038ED41BE20000
000006F912AEFCA89BDFD604DC200000
0000043DE71158ABA97303BF91000000
00002F416EEA63100247CFB300000000
00009C0B715AEFFFFFFC830000000000
0002F44F37C001343200000000000000
0009C0CA1E7000000000000000000000
000125F27E1000000000000000000000
00000251E70000000000000000000000
00000001800000000000000000000000
ENDCHAR
STARTCHAR Ugrave
ENCODING 217
SWIDTH 905 0
DWIDTH 33 0
BBX 30 43 1 -2
BITMAP
000002D92000000000000000000000
0000105CF920000000000000000000
0003FB404CFA200000000000000000
00003AFC404BFA3000000000000000
00000029FC504BFA30000000000000
0000000029FC503BFA000000000000
000000000029FD6034000000000000
00000000000018EC00000000000000
000000000000001200000000000000
000000000000000000000000000000
000000000000000000000000000000
110201102000000000000111101102
8B0F47C0E500000000000D65E0C74F
8B0F47C0E500000000000D65E0C74F
8B0F47C0E500000000000D65E0C74F
8B0F47C0E500000000000D65E0C74F
8B0F47C0E500000000000D65E0C74F
8B0F47C0E500000000000D65E0C74F
8B0F47C0E500000000000D65E0C74F
8B0F47C0E500000000000D65E0C74F
8B0F47C0E500000000000D65E0C74F
8B0F47C0E500000000000D65E0C74F
8B0F47C0E500000000000D65E0C74F
8B0F47C0E500000000000D65E0C74F
8B0F47C0E500000000000D65E0C74F
8B0F47C0E500000000000D65E0C74F
8B0F47C0E500000000000D65E0C74F
8B0F47C0E500000000000D65E0C74F
8B0F47C0E500000000000E55D0D64E
7C0D55E0C800000000001F37C0E56D
5E0B82F37D10000000008D0B82F38C
2F37D0C91DA000000004F53F36D0C8
0C82F44F43EC3000017F81CA0D82F4
07E19C09E32BFCA9BEE50AE26E18D0
01E81E90AF70379A8502CE33E62F60
006F33E807ED732125AFB23E90BC00
000AE24EA117CFFFFEA406EA09E200
0001CD22CE8201231015CE608F4000
00001BE505CFDA989CEE812BE40000
0000008FC40269AB984018FC200000
00000003BFD84200136AFD60000000
00000000028CFFFFFFEA5000000000
000000000000023431000000000000
ENDCHAR
STARTCHAR Uacute
ENCODING 218
SWIDTH 905 0
DWIDTH 33 0
BBX 30 43 1 -2
BITMAP
00000000000000000000006D800000
000000000000000000006DE8110000
0000000000000000006DE8118E9000
00000000000000017EE7129FD60000
000000000000017EE7129FD5000000
0000000000005EE7129FC500000000
0000000000001602AFC50000000000
000000000000006FC4000000000000
000000000000000300000000000000
000000000000000000000000000000
000000000000000000000000000000
110201102000000000000111101102
8B0F47C0E500000000000D65E0C74F
8B0F47C0E500000000000D65E0C74F
8B0F47C0E500000000000D65E0C74F
8B0F47C0E500000000000D65E0C74F
8B0F47C0E500000000000D65E0C74F
8B0F47C0E500000000000D65E0C74F
8B0F47C0E500000000000D65E0C74F
8B0F47C0E500000000000D65E0C74F
8B0F47C0E500000000000D65E0C74F
8B0F47C0E500000000000D65E0C74F
8B0F47C0E500000000000D65E0C74F
8B0F47C0E500000000000D65E0C74F
8B0F47C0E500000000000D65E0C74F
8B0F47C0E500000000000D65E0C74F
8B0F47C0E500000000000D65E0C74F
8B0F47C0E500000000000D65E0C74F
8B0F47C0E500000000000E55D0D64E
7C0D55E0C800000000001F37C0E56D
5E0B82F37D10000000008D0B82F38C
2F37D0C91DA000000004F53F36D0C8
0C82F44F43EC3000017F81CA0D82F4
07E19C09E32BFCA9BEE50AE26E18D0
01E81E90AF70379A8502CE33E62F60
006F33E807ED732125AFB23E90BC00
000AE24EA117CFFFFEA406EA09E200
0001CD22CE8201231015CE608F4000
00001BE505CFDA989CEE812BE40000
0000008FC40269AB984018FC200000
00000003BFD84200136AFD60000000
00000000028CFFFFFFEA5000000000
000000000000023431000000000000
ENDCHAR
STARTCHAR Ucircumflex
ENCODING 219
SWIDTH 905 0
DWIDTH 33 0
BBX 30 43 1 -2
BITMAP
0000000000000A80A4000000000000
0000000000004FF19B000000000000
000000000000AAE73F200000000000
000000000002F48D0C800000000000
000000000007D02F36E00000000000
00000000000D734B91F50000000000
00000000004F19A5E1AB0000000000
0000000000AA0E60E64F2000000000
0000000001D44D108A0B6000000000
000000000000000000000000000000
000000000000000000000000000000
110201102000000000000111101102
8B0F47C0E500000000000D65E0C74F
8B0F47C0E500000000000D65E0C74F
8B0F47C0E500000000000D65E0C74F
8B0F47C0E500000000000D65E0C74F
8B0F47C0E500000000000D65E0C74F
8B0F47C0E500000000000D65E0C74F
8B0F47C0E500000000000D65E0C74F
8B0F47C0E500000000000D65E0C74F
8B0F47C0E500000000000D65E0C74F
8B0F47C0E500000000000D65E0C74F
8B0F47C0E500000000000D65E0C74F
8B0F47C0E500000000000D65E0C74F
8B0F47C0E500000000000D65E0C74F
8B0F47C0E500000000000D65E0C74F
8B0F47C0E500000000000D65E0C74F
8B0F47C0E500000000000D65E0C74F
8B0F47C0E500000000000E55D0D64E
7C0D55E0C800000000001F37C0E56D
5E0B82F37D10000000008D0B82F38C
2F37D0C91DA000000004F53F36D0C8
0C82F44F43EC3000017F81CA0D82F4
07E19C09E32BFCA9BEE50AE26E18D0
01E81E90AF70379A8502CE33E62F60
006F33E807ED732125AFB23E90BC00
000AE24EA117CFFFFEA406EA09E200
0001CD22CE8201231015CE608F4000
00001BE505CFDA989CEE812BE40000
0000008FC40269AB984018FC200000
00000003BFD84200136AFD60000000
00000000028CFFFFFFEA5000000000
000000000000023431000000000000
ENDCHAR
STARTCHAR Udieresis
ENCODING 220
SWIDTH 905 0
DWIDTH 33 0
BBX 30 39 1 -2
BITMAP
000000370632700004508246000000
0000005E0C74F00008B0F48C000000
0000005E0C74F00008B0F48C000000
0000005E0C74F00008B0F48C000000
000000260532600004406135000000
000000000000000000000000000000
000000000000000000000000000000
110201102000000000000111101102
8B0F47C0E500000000000D65E0C74F
8B0F47C0E500000000000D65E0C74F
8B0F47C0E500000000000D65E0C74F
8B0F47C0E500000000000D65E0C74F
8B0F47C0E500000000000D65E0C74F
8B0F47C0E500000000000D65E0C74F
8B0F47C0E500000000000D65E0C74F
8B0F47C0E500000000000D65E0C74F
8B0F47C0E500000000000D65E0C74F
8B0F47C0E500000000000D65E0C74F
8B0F47C0E500000000000D65E0C74F
8B0F47C0E500000000000D65E0C74F
8B0F47C0E500000000000D65E0C74F
8B0F47C0E500000000000D65E0C74F
8B0F47C0E500000000000D65E0C74F
8B0F47C0E500000000000D65E0C74F
8B0F47C0E500000000000E55D0D64E
7C0D55E0C800000000001F37C0E56D
5E0B82F37D10000000008D0B82F38C
2F37D0C91DA000000004F53F36D0C8
0C82F44F43EC3000017F81CA0D82F4
07E19C09E32BFCA9BEE50AE26E18D0
01E81E90AF70379A8502CE33E62F60
006F33E807ED732125AFB23E90BC00
000AE24EA117CFFFFEA406EA09E200
0001CD22CE8201231015CE608F4000
00001BE505CFDA989CEE812BE40000
0000008FC40269AB984018FC200000
00000003BFD84200136AFD60000000
00000000028CFFFFFFEA5000000000
000000000000023431000000000000
ENDCHAR
STARTCHAR Yacute
ENCODING 221
SWIDTH 789 0
DWIDTH 28 0
BBX 28 41 0 0
BITMAP
0000000000000000000006D80000
00000000000000000006DE811000
000000000000000016DE8128E900
0000000000000017EE7129FD6000
00000000000017EE7129FC500000
000000000006ED7129FC50000000
000000000001603AFC4000000000
00000000000006FB400000000000
0000000000000030000000000000
0000000000000000000000000000
0000000000000000000000000000
1101102011000000000201102011
2F29A1E38C000000005D0C74E1B8
09A2F38B1E40000000C74E1B83E1
02F29A1F38B0000005E1C74E1B80
00A92F29A1E400000C74E1B83F20
003F1A92F38B00004E1B83F2A900
000B83F29A1E4000B83F1A92F200
0004E1A92F38B003F1A92F29A000
0000C73F1AA1F40A92F29A2F3000
00005E1B83F29B2F29A2F38B0000
00000C74E1A9289A2F38B1E40000
000005D0C83F22F39B1E38B00000
000000D65E1B89A1E38B1E400000
0000006D0C744E38B1E47C000000
0000000D55E18B1E47C0E5000000
00000007C0D5E47C0E56D0000000
00000001E447C0E56D0D60000000
000000007B1E56D0D65D00000000
000000001EAD0D65D0C700000000
0000000008F65D0C75E100000000
0000000003F1A92F29A000000000
0000000003F1A92F29A000000000
0000000003F1A92F29A000000000
0000000003F1A92F29A000000000
0000000003F1A92F29A000000000
0000000003F1A92F29A000000000
0000000003F1A92F29A000000000
0000000003F1A92F29A000000000
0000000003F1A92F29A000000000
0000000003F1A92F29A000000000
ENDCHAR
STARTCHAR Thorn
ENCODING 222
SWIDTH 798 0
DWIDTH 29 0
BBX 27 34 1 -3
BITMAP
2505326043000000000000000000
5E0C74F0B8000000000000000000
5E0C74F0B8000000000000000000
5E0C74F0B8122210000000000000
5E0C74F0BFFFFFFFD94000000000
5E0C74F0B93322347BFC40000000
5E0C74F0BC889997402AF9000000
5E0C74F0BDBBAAACFE814EB10000
5E0C74F0B800111016DD32DA0000
5E0C74F0BFFFFFFEA31AE43E7000
5E0C74F0BA433336BF809D17E100
5E0C74F0BB78888504E90CB0D800
5E0C74F0BEDCBBCFD23F63F37D00
5E0C74F0B8000001BE18D0B92F30
5E0C74F0B80000000D81F37C0E50
5E0C74F0B800000007D0D65E0C70
5E0C74F0B800000005E0C74F0B80
5E0C74F0B800000008C0E65E0C60
5E0C74F0B80000002E73F28C0E50
5E0C74F0B8100004DB0AC0D73F10
5E0C74F0B8EFFFFF916F35F28C00
5E0C74F0B834444118F61E81E600
5E0C74F0B8777779EE51CC08D000
5E0C74F0B8ACCCCA613DD25F4000
5E0C74F0B80000014AFA14E70000
5E0C74F0B8DEEEEFFB407F800000
5E0C74F0B8455554105CE5000000
5E0C74F0B8666667AEF910000000
5E0C74F0B8CDDDDB951000000000
5E0C74F0B8000000000000000000
5E0C74F0B8000000000000000000
5E0C74F0B8000000000000000000
5E0C74F0B8000000000000000000
3706428064000000000000000000
ENDCHAR
STARTCHAR germandbls
ENCODING 223
SWIDTH 826 0
DWIDTH 30 0
BBX 28 34 1 -3
BITMAP
0000000014566666552000000000
0000005BFFEDDDDDEEFE82000000
00002BE9410000000026CE600000
0004EB216ACDDDDDDB8306F90000
002E906ED976666678BFB13E8000
01DB09F6014555554303CE34F500
07E17E32AFFEEEEEFFD50AD18D00
0D72F52EC4000000028F81D91E50
3F29C0CB06BCCCCCB924F45F1AA0
6D0C73F27E9777778CD1AA0F46D0
7C0E56D0C700000000E46D0D65E0
7C0E56D0D600000002F47C0E56D0
7C0E56D0D6BCCCCCCEC0B92F28B0
7C0E56D0D67777777506F27C0D70
7C0E56D0D634444446BF53E36E10
7C0E56D0D6EFFFFFFFF907D19B00
7C0E56D0D6000000015CD27C1D60
7C0E56D0D6BCCCCCCA61BD1D65E1
7C0E56D0D667777779E81F57D0E6
7C0E56D0D6000000006E0B83F1A9
7C0E56D0D6000000004F0B82F1A9
7C0E56D0D600000001AD0D64F0B9
7C0E56D0D6CDDDDDDFE34F28C0E6
7C0E56D0D66666666414E81E64F2
7C0E56D0D655555556BF80BC0AC0
7C0E56D0D6DEEEEEED931AE25F50
7C0E56D0D60000000017DC33EA00
7C0E56D0D6BCCCCCCEFE805EC100
7C0E56D0D6677777763029FB1000
7C0E56D0D6444444457BFE600000
7C0E56D0D6EFFFFFFECA50000000
7C0E56D0D6000000000000000000
7C0E56D0D6000000000000000000
4608237073000000000000000000
ENDCHAR
STARTCHAR agrave
ENCODING 224
SWIDTH 832 0
DWIDTH 30 0
BBX 28 38 1 -1
BITMAP
0000BB4000000000000000000000
00102AFB40000000000000000000
00CD6029FC400000000000000000
0018EE7129FC5000000000000000
000017EE7129FC50000000000000
00000017EE7129FD300000000000
0000000006DE8116000000000000
000000000006DE30000000000000
0000000000000300000000000000
0000000000000000000000000000
0000000000000000000000000000
0000000027BDFFEDB73000000000
0000002AFD9644458CFC50000000
000008FB401567753028EC200000
0001AE604BFECCCEFD812BE40000
000AE32BF930000027DE609E3000
008E33EC217BDFEC8307F90AD100
02F52EA06ED96558CFA13E81D900
0AB0CC08F702566303DD24F44F20
2F45E26F41AFEDDFD51BC09C0C80
7D0C81E71DD400029F61E72F37D0
B91F37D0AD10000006F27D0C82F2
D65E0B82F400000000C82F38B0E5
F46C0D65E0000000008C0E56D0D6
F47C0E56D0000000006D0D65E0C7
E56D0D65E0000000006D0D65E0C7
D74F0B92F3000000006D0D65E0C7
AA1F46E0AC100000006D0D65E0C7
6E0AA1E71DC40000466D0D65E0C7
1E63F36F519EECDFE66D0D65E0C7
08D19C17F9114553026D0D65E0C7
01E91CC14CFB8679DA6D0D65E0C7
004F71BE5048ACB9516D0D65E0C7
0006F807ED841013776D0D65E0C7
00005EB217CFFFFFC56D0D65E0C7
000003BF93002321026D0D65E0C7
00000005BFEB989AEA6D0D65E0C7
0000000001589A98410000000000
ENDCHAR
STARTCHAR aacute
ENCODING 225
SWIDTH 832 0
DWIDTH 30 0
BBX 28 38 1 -1
BITMAP
000000000000000000003BC10000
0000000000000000004BFA301000
00000000000000004BFA306DD100
000000000000004CFA206DE81000
0000000000005CF9217EE8100000
00000000002CF9217EE710000000
000000000006217EE71000000000
0000000000002ED6100000000000
0000000000000300000000000000
0000000000000000000000000000
0000000000000000000000000000
0000000027BDFFEDB73000000000
0000002AFD9644458CFC50000000
000008FB401567753028EC200000
0001AE604BFECCCEFD812BE40000
000AE32BF930000027DE609E3000
008E33EC217BDFEC8307F90AD100
02F52EA06ED96558CFA13E81D900
0AB0CC08F702566303DD24F44F20
2F45E26F41AFEDDFD51BC09C0C80
7D0C81E71DD400029F61E72F37D0
B91F37D0AD10000006F27D0C82F2
D65E0B82F400000000C82F38B0E5
F46C0D65E0000000008C0E56D0D6
F47C0E56D0000000006D0D65E0C7
E56D0D65E0000000006D0D65E0C7
D74F0B92F3000000006D0D65E0C7
AA1F46E0AC100000006D0D65E0C7
6E0AA1E71DC40000466D0D65E0C7
1E63F36F519EECDFE66D0D65E0C7
08D19C17F9114553026D0D65E0C7
01E91CC14CFB8679DA6D0D65E0C7
004F71BE5048ACB9516D0D65E0C7
0006F807ED841013776D0D65E0C7
00005EB217CFFFFFC56D0D65E0C7
000003BF93002321026D0D65E0C7
00000005BFEB989AEA6D0D65E0C7
0000000001589A98410000000000
ENDCHAR
STARTCHAR acircumflex
ENCODING 226
SWIDTH 832 0
DWIDTH 30 0
BBX 28 38 1 -1
BITMAP
000000000007A078000000000000
00000000001EF55F100000000000
00000000006EAB0D700000000000
0000000000C83F28D00000000000
0000000003F30C82F40000000000
0000000008C067E0BA0000000000
000000000E64E1F55F1000000000
000000005E1AB0AB0E6000000000
00000000981C504D17A000000000
0000000000000000000000000000
0000000000000000000000000000
0000000027BDFFEDB73000000000
0000002AFD9644458CFC50000000
000008FB401567753028EC200000
0001AE604BFECCCEFD812BE40000
000AE32BF930000027DE609E3000
008E33EC217BDFEC8307F90AD100
02F52EA06ED96558CFA13E81D900
0AB0CC08F702566303DD24F44F20
2F45E26F41AFEDDFD51BC09C0C80
7D0C81E71DD400029F61E72F37D0
B91F37D0AD10000006F27D0C82F2
D65E0B82F400000000C82F38B0E5
F46C0D65E0000000008C0E56D0D6
F47C0E56D0000000006D0D65E0C7
E56D0D65E0000000006D0D65E0C7
D74F0B92F3000000006D0D65E0C7
AA1F46E0AC100000006D0D65E0C7
6E0AA1E71DC40000466D0D65E0C7
1E63F36F519EECDFE66D0D65E0C7
08D19C17F9114553026D0D65E0C7
01E91CC14CFB8679DA6D0D65E0C7
004F71BE5048ACB9516D0D65E0C7
0006F807ED841013776D0D65E0C7
00005EB217CFFFFFC56D0D65E0C7
000003BF93002321026D0D65E0C7
00000005BFEB989AEA6D0D65E0C7
0000000001589A98410000000000
ENDCHAR
STARTCHAR atilde
ENCODING 227
SWIDTH 832 0
DWIDTH 30 0
BBX 28 36 1 -1
BITMAP
0000015889999999980056092000
00005EEBAAAAAAAAAA00A91F3000
0004F700011111111115F53F1000
000BA05DFFFFFFFFFFFF908D0000
000E43F843333333333104F60000
002F28C0078888888889BF900000
002B17700ABBBBBBBBBA83000000
0000000000000000000000000000
0000000000000000000000000000
0000000027BDFFEDB73000000000
0000002AFD9644458CFC50000000
000008FB401567753028EC200000
0001AE604BFECCCEFD812BE40000
000AE32BF930000027DE609E3000
008E33EC217BDFEC8307F90AD100
02F52EA06ED96558CFA13E81D900
0AB0CC08F702566303DD24F44F20
2F45E26F41AFEDDFD51BC09C0C80
7D0C81E71DD400029F61E72F37D0
B91F37D0AD10000006F27D0C82F2
D65E0B82F400000000C82F38B0E5
F46C0D65E0000000008C0E56D0D6
F47C0E56D0000000006D0D65E0C7
E56D0D65E0000000006D0D65E0C7
D74F0B92F3000000006D0D65E0C7
AA1F46E0AC100000006D0D65E0C7
6E0AA1E71DC40000466D0D65E0C7
1E63F36F519EECDFE66D0D65E0C7
08D19C17F9114553026D0D65E0C7
01E91CC14CFB8679DA6D0D65E0C7
004F71BE5048ACB9516D0D65E0C7
0006F807ED841013776D0D65E0C7
00005EB217CFFFFFC56D0D65E0C7
000003BF93002321026D0D65E0C7
00000005BFEB989AEA6D0D65E0C7
0000000001589A98410000000000
ENDCHAR
STARTCHAR adieresis
ENCODING 228
SWIDTH 832 0
DWIDTH 30 0
BBX 28 34 1 -1
BITMAP
0000082460820002806418100000
00001F38B0F40004F0B83F100000
00001F38B0F40004F0B83F100000
00001F38B0F40004F0B83F100000
0000061350620002605316000000
0000000000000000000000000000
0000000000000000000000000000
0000000027BDFFEDB73000000000
0000002AFD9644458CFC50000000
000008FB401567753028EC200000
0001AE604BFECCCEFD812BE40000
000AE32BF930000027DE609E3000
008E33EC217BDFEC8307F90AD100
02F52EA06ED96558CFA13E81D900
0AB0CC08F702566303DD24F44F20
2F45E26F41AFEDDFD51BC09C0C80
7D0C81E71DD400029F61E72F37D0
B91F37D0AD10000006F27D0C82F2
D65E0B82F400000000C82F38B0E5
F46C0D65E0000000008C0E56D0D6
F47C0E56D0000000006D0D65E0C7
E56D0D65E0000000006D0D65E0C7
D74F0B92F3000000006D0D65E0C7
AA1F46E0AC100000006D0D65E0C7
6E0AA1E71DC40000466D0D65E0C7
1E63F36F519EECDFE66D0D65E0C7
08D19C17F9114553026D0D65E0C7
01E91CC14CFB8679DA6D0D65E0C7
004F71BE5048ACB9516D0D65E0C7
0006F807ED841013776D0D65E0C7
00005EB217CFFFFFC56D0D65E0C7
000003BF93002321026D0D65E0C7
00000005BFEB989AEA6D0D65E0C7
0000000001589A98410000000000
ENDCHAR
STARTCHAR aring
ENCODING 229
SWIDTH 832 0
DWIDTH 30 0
BBX 28 40 1 -1
BITMAP
0000000000002430000000000000
00000000002BEBCD500000000000
0000000002D71433D60000000000
000000000A84EAD92E1000000000
000000000E2E300C5A6000000000
000000001F1E0008897000000000
000000000E2D501D4B5000000000
000000000993DCE83E1000000000
0000000001D81214E50000000000
000000000019EDEC400000000000
0000000000000210000000000000
0000000000000000000000000000
0000000000000000000000000000
0000000027BDFFEDB73000000000
0000002AFD9644458CFC50000000
000008FB401567753028EC200000
0001AE604BFECCCEFD812BE40000
000AE32BF930000027DE609E3000
008E33EC217BDFEC8307F90AD100
02F52EA06ED96558CFA13E81D900
0AB0CC08F702566303DD24F44F20
2F45E26F41AFEDDFD51BC09C0C80
7D0C81E71DD400029F61E72F37D0
B91F37D0AD10000006F27D0C82F2
D65E0B82F400000000C82F38B0E5
F46C0D65E0000000008C0E56D0D6
F47C0E56D0000000006D0D65E0C7
E56D0D65E0000000006D0D65E0C7
D74F0B92F3000000006D0D65E0C7
AA1F46E0AC100000006D0D65E0C7
6E0AA1E71DC40000466D0D65E0C7
1E63F36F519EECDFE66D0D65E0C7
08D19C17F9114553026D0D65E0C7
01E91CC14CFB8679DA6D0D65E0C7
004F71BE5048ACB9516D0D65E0C7
0006F807ED841013776D0D65E0C7
00005EB217CFFFFFC56D0D65E0C7
000003BF93002321026D0D65E0C7
00000005BFEB989AEA6D0D65E0C7
0000000001589A98410000000000
ENDCHAR
STARTCHAR ae
ENCODING 230
SWIDTH 1166 0
DWIDTH 42 0
BBX 40 27 1 -1
BITMAP
0000000027BDFFFEB83004214045555555555553
0000002AFD9644458CFD6765E0CFEEEEEEEEEEE8
000008FB401567753028EC25E0C7000000000000
0001AE604BFECCCEFD812BE5C0CDCCCCCCCCCCC7
000AE32BF930000027DE609F50CB777777777774
008E33EC217BDFEC8307F90AE1C9444444444442
02F52EA06ED96558CFA13E81D9CFFFFFFFFFFFF9
0AB0CC08F702566303DD24F44FE7000000000000
2F45E26F41AFEDDFD51BC09C0CF7000000000000
7D0C81E71DD400029F61E72F37F7000000000000
B91F37D0AD10000006F27D0C82FEDDDDDDDDDDB0
D65E0B82F400000000C82F38B0EB666666666660
F46C0D65E0000000008C0E56D0DA555555555540
F47C0E56D0000000006D0D65E0CFEEEEEEEEEED0
E56D0D65E0000000006D0D65E0C7000000000000
D74F0B92F3000000006D0D65E0CDCCCCCCCCCCA0
AA1F46E0AC100000006D0D65E0CB777777777760
6E0AA1E71DC40000466D0D65E0C7000000000000
1E63F36F519EECDFE66D0D65E0C7000000000000
08D19C17F9114553026D0D65E0CA555555555553
01E91CC14CFB8679DA6D0D65E0CFEEEEEEEEEEE8
004F71BE5048ACB9516D0D65E0C7000000000000
0006F807ED841013776D0D65E0CDCCCCCCCCCCC7
00005EB217CFFFFFC56D0D65E0CB777777777774
000003BF93002321026D0D65E0C9444444444442
00000005BFEB989AEA6D0D65E0CFFFFFFFFFFFF9
0000000001589A98410000000000000000000000
ENDCHAR
STARTCHAR ccedilla
ENCODING 231
SWIDTH 736 0
DWIDTH 27 0
BBX 25 40 1 -13
BITMAP
00000000002578875100000000
000000017DFECBBCEFC6000000
0000006DE8300000039ED40000
00001AE7127CEFFEB711AF8000
0001CD229FD854459DF804EA00
000BC14EC4036775105ED23E70
008E25F805DFDCCEFB31BE2310
02F43F709F9200004BF70A6000
0AB0CA0BD318CEEB605F700000
2F36E17E23ED7558EC14200000
7D0C82F52E9000001C80000000
B92F37D0BB0000000000000000
D65E0B82F30000000000000000
F56D0E65E00000000000000000
F47C0E56D00000000000000000
F56D0D65E00000000000000000
D74F1A91F50000000000000000
AA1E56E19D1000000310000000
6E1AA0D81CD300005E80000000
1E53F34F51AFC9ADF808500000
08D0AD17F7038A9721AE320000
01E71DB15ED731249EC32D7000
005F42DC218DFFFFB605EB0630
0008E41BF920132003AF907F50
00008F605CFDA98ADFB319F600
000006FC40279AB96205EE4000
00000029FD84210248DF910000
0000000028CFFFFFFC71000000
000000000001F8AF0000000000
00000000039CF47C0000000000
000000005FB6417C0000000000
00000000E80267BC0000000000
00000003F25FDCC90000000000
00000005E0B900000000000000
00000005E0C700000000000000
00000004F09D54430000000000
00000002F31ADFFC0000000000
00000000BD3000000000000000
000000001AFECBB90000000000
00000000002678860000000000
ENDCHAR
STARTCHAR egrave
ENCODING 232
SWIDTH 666 0
DWIDTH 24 0
BBX 23 37 0 0
BITMAP
004E81000000000000000000
0106DE810000000000000000
4FB305DF9200000000000000
03BFB405CF92000000000000
0003AFB405CF920000000000
000003AFC404CF9000000000
00000002AFC5043000000000
00000000029FB00000000000
000000000002200000000000
000000000000000000000000
000000000000000000000000
024042150455555555555530
05E0C74F0CFEEEEEEEEEEE90
05E0C74F0C80000000000000
05E0C74F0CDCCCCCCCCCCC70
05E0C74F0CB7777777777740
05E0C74F0C94444444444420
05E0C74F0CFFFFFFFFFFFF90
05E0C74F0C80000000000000
05E0C74F0C80000000000000
05E0C74F0C80000000000000
05E0C74F0CEDDDDDDDDDDB00
05E0C74F0CB6666666666600
05E0C74F0CA5555555555400
05E0C74F0CFEEEEEEEEEED00
05E0C74F0C80000000000000
05E0C74F0CDCCCCCCCCCCB00
05E0C74F0CB7777777777700
05E0C74F0C80000000000000
05E0C74F0C80000000000000
05E0C74F0CA5555555555530
05E0C74F0CFEEEEEEEEEEE90
05E0C74F0C80000000000000
05E0C74F0CECCCCCCCCCCC70
05E0C74F0CB7777777777740
05E0C74F0CA4444444444420
05E0C74F0CFFFFFFFFFFFF90
ENDCHAR
STARTCHAR eacute
ENCODING 233
SWIDTH 666 0
DWIDTH 24 0
BBX 23 37 1 0
BITMAP
0000000000000000006D6000
00000000000000017EE71100
000000000000017EE7129F70
0000000000018ED7129FC500
00000000018ED603AFC50000
000000007ED603AFB4000000
000000002503AFB400000000
00000000008FB30000000000
000000000013000000000000
000000000000000000000000
000000000000000000000000
240421504555555555555300
5E0C74F0CFEEEEEEEEEEE900
5E0C74F0C800000000000000
5E0C74F0CDCCCCCCCCCCC700
5E0C74F0CB77777777777400
5E0C74F0C944444444444200
5E0C74F0CFFFFFFFFFFFF900
5E0C74F0C800000000000000
5E0C74F0C800000000000000
5E0C74F0C800000000000000
5E0C74F0CEDDDDDDDDDDB000
5E0C74F0CB66666666666000
5E0C74F0CA55555555554000
5E0C74F0CFEEEEEEEEEED000
5E0C74F0C800000000000000
5E0C74F0CDCCCCCCCCCCB000
5E0C74F0CB77777777777000
5E0C74F0C800000000000000
5E0C74F0C800000000000000
5E0C74F0CA55555555555300
5E0C74F0CFEEEEEEEEEEE900
5E0C74F0C800000000000000
5E0C74F0CECCCCCCCCCCC700
5E0C74F0CB77777777777400
5E0C74F0CA44444444444200
5E0C74F0CFFFFFFFFFFFF900
ENDCHAR
STARTCHAR ecircumflex
ENCODING 234
SWIDTH 666 0
DWIDTH 24 0
BBX 22 37 1 0
BITMAP
000000001B71B300000000
000000006FE0BA00000000
00000000C9E55F10000000
00000003F29B0E70000000
00000009B04F28D0000000
0000001E643D82F3000000
0000005E1A87E0B9000000
000000B91F51F55E100000
000002D35C00990C500000
0000000000000000000000
0000000000000000000000
2404215045555555555553
5E0C74F0CFEEEEEEEEEEE9
5E0C74F0C8000000000000
5E0C74F0CDCCCCCCCCCCC7
5E0C74F0CB777777777774
5E0C74F0C9444444444442
5E0C74F0CFFFFFFFFFFFF9
5E0C74F0C8000000000000
5E0C74F0C8000000000000
5E0C74F0C8000000000000
5E0C74F0CEDDDDDDDDDDB0
5E0C74F0CB666666666660
5E0C74F0CA555555555540
5E0C74F0CFEEEEEEEEEED0
5E0C74F0C8000000000000
5E0C74F0CDCCCCCCCCCCB0
5E0C74F0CB777777777770
5E0C74F0C8000000000000
5E0C74F0C8000000000000
5E0C74F0CA555555555553
5E0C74F0CFEEEEEEEEEEE9
5E0C74F0C8000000000000
5E0C74F0CECCCCCCCCCCC7
5E0C74F0CB777777777774
5E0C74F0CA444444444442
5E0C74F0CFFFFFFFFFFFF9
ENDCHAR
STARTCHAR edieresis
ENCODING 235
SWIDTH 666 0
DWIDTH 24 0
BBX 22 33 1 0
BITMAP
0046073370000551815500
007C0E56D0000A92F29A00
007C0E56D0000A92F29A00
007C0E56D0000A92F29A00
0035062350000441614400
0000000000000000000000
0000000000000000000000
2404215045555555555553
5E0C74F0CFEEEEEEEEEEE9
5E0C74F0C8000000000000
5E0C74F0CDCCCCCCCCCCC7
5E0C74F0CB777777777774
5E0C74F0C9444444444442
5E0C74F0CFFFFFFFFFFFF9
5E0C74F0C8000000000000
5E0C74F0C8000000000000
5E0C74F0C8000000000000
5E0C74F0CEDDDDDDDDDDB0
5E0C74F0CB666666666660
5E0C74F0CA555555555540
5E0C74F0CFEEEEEEEEEED0
5E0C74F0C8000000000000
5E0C74F0CDCCCCCCCCCCB0
5E0C74F0CB777777777770
5E0C74F0C8000000000000
5E0C74F0C8000000000000
5E0C74F0CA555555555553
5E0C74F0CFEEEEEEEEEEE9
5E0C74F0C8000000000000
5E0C74F0CECCCCCCCCCCC7
5E0C74F0CB777777777774
5E0C74F0CA444444444442
5E0C74F0CFFFFFFFFFFFF9
ENDCHAR
STARTCHAR igrave
ENCODING 236
SWIDTH 337 0
DWIDTH 12 0
BBX 17 37 -6 0
BITMAP
004E81000000000000
0106DE810000000000
5FA306DE8100000000
04BFB305DF92000000
0003BFB405CF920000
000003AFB405CF9000
00000003AFC4043000
0000000002AFA00000
000000000002100000
000000000000000000
000000000000000000
000000024042150420
00000005E0C74F0C80
00000005E0C74F0C80
00000005E0C74F0C80
00000005E0C74F0C80
00000005E0C74F0C80
00000005E0C74F0C80
00000005E0C74F0C80
00000005E0C74F0C80
00000005E0C74F0C80
00000005E0C74F0C80
00000005E0C74F0C80
00000005E0C74F0C80
00000005E0C74F0C80
00000005E0C74F0C80
00000005E0C74F0C80
00000005E0C74F0C80
00000005E0C74F0C80
00000005E0C74F0C80
00000005E0C74F0C80
00000005E0C74F0C80
00000005E0C74F0C80
00000005E0C74F0C80
00000005E0C74F0C80
00000005E0C74F0C80
00000005E0C74F0C80
ENDCHAR
STARTCHAR iacute
ENCODING 237
SWIDTH 337 0
DWIDTH 12 0
BBX 17 37 1 0
BITMAP
0000000000017D6000
00000000017EE71100
000000018ED7129F60
0000018ED603AFC500
00018ED603AFC40000
007FD603AFB4000000
002503BFB300000000
00008FA30000000000
000013000000000000
000000000000000000
000000000000000000
240421504200000000
5E0C74F0C800000000
5E0C74F0C800000000
5E0C74F0C800000000
5E0C74F0C800000000
5E0C74F0C800000000
5E0C74F0C800000000
5E0C74F0C800000000
5E0C74F0C800000000
5E0C74F0C800000000
5E0C74F0C800000000
5E0C74F0C800000000
5E0C74F0C800000000
5E0C74F0C800000000
5E0C74F0C800000000
5E0C74F0C800000000
5E0C74F0C800000000
5E0C74F0C800000000
5E0C74F0C800000000
5E0C74F0C800000000
5E0C74F0C800000000
5E0C74F0C800000000
5E0C74F0C800000000
5E0C74F0C800000000
5E0C74F0C800000000
5E0C74F0C800000000
ENDCHAR
STARTCHAR icircumflex
ENCODING 238
SWIDTH 337 0
DWIDTH 12 0
BBX 12 37 0 0
BITMAP
0001B61B3000
0007FD0C9000
000D9F46E100
004F2AA1E600
00AB04F19C00
01F552D73F30
06D0B78D0C80
0C82F42F46E0
2D26B00A81D4
000000000000
000000000000
024042150420
05E0C74F0C80
05E0C74F0C80
05E0C74F0C80
05E0C74F0C80
05E0C74F0C80
05E0C74F0C80
05E0C74F0C80
05E0C74F0C80
05E0C74F0C80
05E0C74F0C80
05E0C74F0C80
05E0C74F0C80
05E0C74F0C80
05E0C74F0C80
05E0C74F0C80
05E0C74F0C80
05E0C74F0C80
05E0C74F0C80
05E0C74F0C80
05E0C74F0C80
05E0C74F0C80
05E0C74F0C80
05E0C74F0C80
05E0C74F0C80
05E0C74F0C80
ENDCHAR
STARTCHAR idieresis
ENCODING 239
SWIDTH 337 0
DWIDTH 12 0
BBX 18 33 -3 0
BITMAP
460823600006418155
8B0F47C0000B83F1A9
8B0F47C0000B83F1A9
8B0F47C0000B83F1A9
350623500005316044
000000000000000000
000000000000000000
000024042150420000
00005E0C74F0C80000
00005E0C74F0C80000
00005E0C74F0C80000
00005E0C74F0C80000
00005E0C74F0C80000
00005E0C74F0C80000
00005E0C74F0C80000
00005E0C74F0C80000
00005E0C74F0C80000
00005E0C74F0C80000
00005E0C74F0C80000
00005E0C74F0C80000
00005E0C74F0C80000
00005E0C74F0C80000
00005E0C74F0C80000
00005E0C74F0C80000
00005E0C74F0C80000
00005E0C74F0C80000
00005E0C74F0C80000
00005E0C74F0C80000
00005E0C74F0C80000
00005E0C74F0C80000
00005E0C74F0C80000
00005E0C74F0C80000
00005E0C74F0C80000
ENDCHAR
STARTCHAR eth
ENCODING 240
SWIDTH 783 0
DWIDTH 28 0
BBX 27 33 0 -2
BITMAP
0000000000245543100000000000
00000005AEFFFEEFFC8200000000
000006DEA631000137BFB2000000
0002CE71148ABCCA7403AE600000
001EA139FEB97779CFD605E70000
000207FB50034432028EC24F6000
00001A506BFFFFFFD922CD16E100
0000001DE94200026DE51CB0C900
00000004127ABCB8308F43F55F10
000000001DC9879BFA18E1AA0E50
00000000000000003D91E65E0B90
000000000000000005F1A92F29B0
000000000124432001F38B0F38C0
00000017CFFEEFFFC1F38B0F47C0
000018FD7300000241F38B0F47C0
0002DD5048BCCBB971F38B0F47C0
002DB13CFB87677891F38B0F47C0
00BC16E81145655421F38B0F47C0
04F35E419EFDCDEEF1F38B0F47C0
0AA1E62DC500000001F38B0F47C0
0E55E0AB06CEFFEEC1F38B0F47C0
1F38B0F55E73333444F1A92F28B0
1F39A0F47D1000002DA0E64F1A90
0F47D0C81DEBA9ACFB17E19B0E60
0C83F35F60489A97307F52E54F20
07D0AC16FD7421248DE51CB0BA00
01E71DC129DFFFFFC712CC16E200
005F41CE82012320039FA15F6000
0008F506DFDA999BEFB407F70000
00007FB30379AAA85204CE600000
000002BFC842101358DF92000000
000000028CFFFFFFEB7100000000
0000000000023321000000000000
ENDCHAR
STARTCHAR ntilde
ENCODING 241
SWIDTH 787 0
DWIDTH 28 0
BBX 26 35 1 0
BITMAP
00000268999999999500833800
0000AFDBAAAAAAAAA601F47C00
0009D300111111111129E09A00
002F419EFFFFFFFFFFFE40D700
006E09D533333333333009E100
008B0E60288888888889DE4000
00780B303BBBBBBBBBBA610000
00000000000000000000000000
00000000000000000000000000
25115115125100000003315133
5F91D81D81E80000000A92F29A
5FF35F25F26F2000000A92F29A
5EBB0BB0CB0CA000000A92F29A
5E2F53F43F44F400000A92F29A
5E09D19D09D0AC00000A92F29A
5E03E71E71E72E60000A92F29A
5E096E27E17E18E1000A92F29A
5E0C5CA0D90D91D8000A92F29A
5E0C74F34F35F35F200A92F29A
5E0C70AC0BB0BB0CB00A92F29A
5E0C743F62F53F53F40A92F29A
5E0C7498E18D19D19D0A92F29A
5E0C74E1D81E81E81E7992F29A
5E0C74F05F26E26E27E392F29A
5E0C74F00CA0CA0DA0D932F29A
5E0C74F003F44F44F45F32F29A
5E0C74F0009C0AC0AC0BB2F29A
5E0C74F0001E62E62F63F5C29A
5E0C74F00007E18E18E19D429A
5E0C74F00000D91D81E81E809A
5E0C74F000005F25F26F26E29A
5E0C74F000000BB0BB0CB0DA9A
5E0C74F0000003F53F43F44FCA
5E0C74F00000009D09D0AD0AFA
5E0C74F00000001E71E72E72FA
ENDCHAR
STARTCHAR ograve
ENCODING 242
SWIDTH 833 0
DWIDTH 30 0
BBX 28 39 1 -2
BITMAP
00006D6000000000000000000000
000117EE71000000000000000000
007F9217EE710000000000000000
0005CF9217EE7100000000000000
000005CFA206DE81000000000000
00000004CFA306DE600000000000
0000000004BFA306200000000000
000000000004BF70000000000000
0000000000000310000000000000
0000000000000000000000000000
0000000000257887510000000000
000000017DFECBBDEFB500000000
0000006DE8300000049EC4000000
00001AE7127CEFFDB6129F800000
0001CD229FD854469EE714EA0000
000BC14EC4036775206DD23E8000
008E25F805DFDCCEFB31BE34F500
02F43F709F9200003AF60AD18D00
0AB0CA0BD318CEEB605F71D91E70
2F36E17E23ED7558EC25F44F27D0
7D0C82F52E9000001CC19D0C82F4
B92F37D0BB00000001D81F47D0C8
D65E0B82F3000000006E0B83F1AA
F56D0E65E0000000002F29A1F38C
F47C0E56D0000000001F38B0F47C
F56D0D65E0000000003F19A1F29B
D74F1A91F5000000008C0D74F1A9
AA1E56E19D10000003F53F28C0E6
6E1AA0D81CD300005E90CB0D73F2
1E53F34F51AFC9ADF809E27E19C0
08D0AD17F7038A9721AE43E62F40
01E71DB15ED731248ED22DA0AB00
005F42DC218DFFFFC604EB17E200
0008E41BF920133103AF906F5000
00008F605CFDA99AEFB309F60000
000006FC40279AA96106DE300000
00000029FD84211249EE81000000
0000000028CFFFFFFC7100000000
0000000000013442000000000000
ENDCHAR
STARTCHAR oacute
ENCODING 243
SWIDTH 833 0
DWIDTH 30 0
BBX 28 39 1 -2
BITMAP
0000000000000000000018E40000
00000000000000000028ED601000
000000000000000029FC503BF400
0000000000000029FC504BFB3000
00000000000029FC504BFA300000
000000000009FC404CFA30000000
000000000003405CF92000000000
0000000000000BF9200000000000
0000000000000220000000000000
0000000000000000000000000000
0000000000257887510000000000
000000017DFECBBDEFB500000000
0000006DE8300000049EC4000000
00001AE7127CEFFDB6129F800000
0001CD229FD854469EE714EA0000
000BC14EC4036775206DD23E8000
008E25F805DFDCCEFB31BE34F500
02F43F709F9200003AF60AD18D00
0AB0CA0BD318CEEB605F71D91E70
2F36E17E23ED7558EC25F44F27D0
7D0C82F52E9000001CC19D0C82F4
B92F37D0BB00000001D81F47D0C8
D65E0B82F3000000006E0B83F1AA
F56D0E65E0000000002F29A1F38C
F47C0E56D0000000001F38B0F47C
F56D0D65E0000000003F19A1F29B
D74F1A91F5000000008C0D74F1A9
AA1E56E19D10000003F53F28C0E6
6E1AA0D81CD300005E90CB0D73F2
1E53F34F51AFC9ADF809E27E19C0
08D0AD17F7038A9721AE43E62F40
01E71DB15ED731248ED22DA0AB00
005F42DC218DFFFFC604EB17E200
0008E41BF920133103AF906F5000
00008F605CFDA99AEFB309F60000
000006FC40279AA96106DE300000
00000029FD84211249EE81000000
0000000028CFFFFFFC7100000000
0000000000013442000000000000
ENDCHAR
STARTCHAR ocircumflex
ENCODING 244
SWIDTH 833 0
DWIDTH 30 0
BBX 28 39 1 -2
BITMAP
000000000003B43B100000000000
000000000009FB0E600000000000
00000000001E9F28C00000000000
00000000006E0D82F30000000000
0000000000C807D0B90000000000
0000000003F262F45E1000000000
0000000009B0D5AA0E6000000000
000000001E54F14F29C000000000
000000005C09900C63D200000000
0000000000000000000000000000
0000000000257887510000000000
000000017DFECBBDEFB500000000
0000006DE8300000049EC4000000
00001AE7127CEFFDB6129F800000
0001CD229FD854469EE714EA0000
000BC14EC4036775206DD23E8000
008E25F805DFDCCEFB31BE34F500
02F43F709F9200003AF60AD18D00
0AB0CA0BD318CEEB605F71D91E70
2F36E17E23ED7558EC25F44F27D0
7D0C82F52E9000001CC19D0C82F4
B92F37D0BB00000001D81F47D0C8
D65E0B82F3000000006E0B83F1AA
F56D0E65E0000000002F29A1F38C
F47C0E56D0000000001F38B0F47C
F56D0D65E0000000003F19A1F29B
D74F1A91F5000000008C0D74F1A9
AA1E56E19D10000003F53F28C0E6
6E1AA0D81CD300005E90CB0D73F2
1E53F34F51AFC9ADF809E27E19C0
08D0AD17F7038A9721AE43E62F40
01E71DB15ED731248ED22DA0AB00
005F42DC218DFFFFC604EB17E200
0008E41BF920133103AF906F5000
00008F605CFDA99AEFB309F60000
000006FC40279AA96106DE300000
00000029FD84211249EE81000000
0000000028CFFFFFFC7100000000
0000000000013442000000000000
ENDCHAR
STARTCHAR otilde
ENCODING 245
SWIDTH 833 0
DWIDTH 30 0
BBX 28 37 1 -2
BITMAP
0000004789999999993029065000
00002CFCBAAAAAAAAA305F0B8000
0000DB20011111111113CA0D6000
0006E12BFFFFFFFFFFFFC23F3000
000AA0DB43333333333201CB0000
000C73F2048888888888AEC10000
000A53B006BBBBBBBBBB95000000
0000000000000000000000000000
0000000000257887510000000000
000000017DFECBBDEFB500000000
0000006DE8300000049EC4000000
00001AE7127CEFFDB6129F800000
0001CD229FD854469EE714EA0000
000BC14EC4036775206DD23E8000
008E25F805DFDCCEFB31BE34F500
02F43F709F9200003AF60AD18D00
0AB0CA0BD318CEEB605F71D91E70
2F36E17E23ED7558EC25F44F27D0
7D0C82F52E9000001CC19D0C82F4
B92F37D0BB00000001D81F47D0C8
D65E0B82F3000000006E0B83F1AA
F56D0E65E0000000002F29A1F38C
F47C0E56D0000000001F38B0F47C
F56D0D65E0000000003F19A1F29B
D74F1A91F5000000008C0D74F1A9
AA1E56E19D10000003F53F28C0E6
6E1AA0D81CD300005E90CB0D73F2
1E53F34F51AFC9ADF809E27E19C0
08D0AD17F7038A9721AE43E62F40
01E71DB15ED731248ED22DA0AB00
005F42DC218DFFFFC604EB17E200
0008E41BF920133103AF906F5000
00008F605CFDA99AEFB309F60000
000006FC40279AA96106DE300000
00000029FD84211249EE81000000
0000000028CFFFFFFC7100000000
0000000000013442000000000000
ENDCHAR
STARTCHAR odieresis
ENCODING 246
SWIDTH 833 0
DWIDTH 30 0
BBX 28 35 1 -2
BITMAP
0000054181550000733706300000
00000A92F29A0000D65E0C700000
00000A92F29A0000D65E0C700000
00000A92F29A0000D65E0C700000
0000044161440000622605300000
0000000000000000000000000000
0000000000257887510000000000
000000017DFECBBDEFB500000000
0000006DE8300000049EC4000000
00001AE7127CEFFDB6129F800000
0001CD229FD854469EE714EA0000
000BC14EC4036775206DD23E8000
008E25F805DFDCCEFB31BE34F500
02F43F709F9200003AF60AD18D00
0AB0CA0BD318CEEB605F71D91E70
2F36E17E23ED7558EC25F44F27D0
7D0C82F52E9000001CC19D0C82F4
B92F37D0BB00000001D81F47D0C8
D65E0B82F3000000006E0B83F1AA
F56D0E65E0000000002F29A1F38C
F47C0E56D0000000001F38B0F47C
F56D0D65E0000000003F19A1F29B
D74F1A91F5000000008C0D74F1A9
AA1E56E19D10000003F53F28C0E6
6E1AA0D81CD300005E90CB0D73F2
1E53F34F51AFC9ADF809E27E19C0
08D0AD17F7038A9721AE43E62F40
01E71DB15ED731248ED22DA0AB00
005F42DC218DFFFFC604EB17E200
0008E41BF920133103AF906F5000
00008F605CFDA99AEFB309F60000
000006FC40279AA96106DE300000
00000029FD84211249EE81000000
0000000028CFFFFFFC7100000000
0000000000013442000000000000
ENDCHAR
STARTCHAR divide
ENCODING 247
SWIDTH 260 0
DWIDTH 9 0
BBX 13 22 -2 1
BITMAP
00024052250000
0007C0E56D0000
0007C0E56D0000
0007C0E56D0000
0007C0E56D0000
0007C0E56D0000
0006C0D55D0000
00000000000000
00000000000000
1EEEEEEEEEEE50
05555555555520
06666666666620
1DDDDDDDDDDD50
00000000000000
00000000000000
0006C0D56D0000
0007C0E56D0000
0007C0E56D0000
0007C0E56D0000
0007C0E56D0000
0007C0E56D0000
00024052250000
ENDCHAR
STARTCHAR oslash
ENCODING 248
SWIDTH 832 0
DWIDTH 30 0
BBX 29 34 0 -4
BITMAP
000000000000000000001000000000
00000000000000000000A900000000
00000000000000000003F44A000000
0000000000025788751690D9170000
0000000017DFECBBDEFB53D18E1000
00000006ED8300000049FC42F50000
000001AE7127CEFFDB6129F8600000
00001CD22AFD854469EE715EA00000
0000BC14EC4036775106DC23E80000
0009D25F805DFDCCEFB31BE24F5000
003F43F70AF9200003BF60BD18D000
00BB0DA0BD318CEEB606F71D91E700
02F36E18E24ED7558EC15F45F27D00
07D0C82F53E9000001CC19C0C82F40
0B92F38D0CB00000001D82F47D0C70
0E65E0C83F3000000006E0C83F1AA0
0F57D0E56D0000000002F29A1F38B0
1F47C0E56D0000000001F38B0F47C0
0F56D0D65E0000000003F1A92F29B0
0D74F1B91F5000000008C0D74F1A90
0AA1F56E19D10000003F54F29B0E60
06E0AA1D81CD300005E90CA1E73F20
01E53F35F51AFC9ADF809E27E19C00
008D0AC17F7038A9721AE43E62F400
001E71DB15ED731248ED32DA0BB000
0005F42DC218DFFFFC604EB18E2000
00008E31BF820132104BF806F40000
000009F605CFDA99AEFB309F500000
0000376FC40279AA96106DD3000000
0000CA04AFC84211259EE710000000
0002D27E148DFFFFFFC71000000000
000000E72E50134420000000000000
00000020AC00000000000000000000
000000005300000000000000000000
ENDCHAR
STARTCHAR ugrave
ENCODING 249
SWIDTH 795 0
DWIDTH 29 0
BBX 27 39 1 -2
BITMAP
0002D92000000000000000000000
00104CFA20000000000000000000
02EC404BFA300000000000000000
002AFC504BFA3000000000000000
000029FC503BFB30000000000000
00000029FD603BFB100000000000
0000000018ED6035000000000000
000000000018ED10000000000000
0000000000001300000000000000
0000000000000000000000000000
0000000000000000000000000000
3305124051000000042150331500
8B0F48C0F40000000B83F1A92F20
8B0F48C0F40000000B83F1A92F20
8B0F48C0F40000000B83F1A92F20
8B0F48C0F40000000B83F1A92F20
8B0F48C0F40000000B83F1A92F20
8B0F48C0F40000000B83F1A92F20
8B0F48C0F40000000B83F1A92F20
8B0F48C0F40000000B83F1A92F20
8B0F48C0F40000000B83F1A92F20
8B0F48C0F40000000B83F1A92F20
8B0F48C0F40000000B83F1A92F20
8B0F48C0F40000000B83F1A92F20
8B0F48C0F40000000B83F1A92F20
8B0F47C0F40000000B83F1A92F20
8B0F47D0D60000000D74F0B83F10
6D0D64F19C0000004F27C0D65E00
4F19B0E72EA10004E90D72F38C00
0E64F27E33DEA9CF909E19C0D700
09C0CB0AE3069A8309F43F54F200
02E52E809FA52137DE41E90C9000
007E24F914BFFFFD814DC08E1000
000BC13DD500231028F916F40000
0001CD319FEB989CFD507F600000
00001AF81159ABA7304CE4000000
0000005DE95210137CF920000000
000000005AEFFFFFC82000000000
0000000000013421000000000000
ENDCHAR
STARTCHAR uacute
ENCODING 250
SWIDTH 795 0
DWIDTH 29 0
BBX 27 39 1 -2
BITMAP
000000000000000000005D900000
0000000000000000006DE8110000
00000000000000006DE8118EA000
000000000000006DE8118ED60000
0000000000017EE7129FD6000000
00000000005EE7129FD500000000
000000000016129FC50000000000
0000000000006FC5000000000000
0000000000000300000000000000
0000000000000000000000000000
0000000000000000000000000000
3305124051000000042150331500
8B0F48C0F40000000B83F1A92F20
8B0F48C0F40000000B83F1A92F20
8B0F48C0F40000000B83F1A92F20
8B0F48C0F40000000B83F1A92F20
8B0F48C0F40000000B83F1A92F20
8B0F48C0F40000000B83F1A92F20
8B0F48C0F40000000B83F1A92F20
8B0F48C0F40000000B83F1A92F20
8B0F48C0F40000000B83F1A92F20
8B0F48C0F40000000B83F1A92F20
8B0F48C0F40000000B83F1A92F20
8B0F48C0F40000000B83F1A92F20
8B0F48C0F40000000B83F1A92F20
8B0F47C0F40000000B83F1A92F20
8B0F47D0D60000000D74F0B83F10
6D0D64F19C0000004F27C0D65E00
4F19B0E72EA10004E90D72F38C00
0E64F27E33DEA9CF909E19C0D700
09C0CB0AE3069A8309F43F54F200
02E52E809FA52137DE41E90C9000
007E24F914BFFFFD814DC08E1000
000BC13DD500231028F916F40000
0001CD319FEB989CFD507F600000
00001AF81159ABA7304CE4000000
0000005DE95210137CF920000000
000000005AEFFFFFC82000000000
0000000000013421000000000000
ENDCHAR
STARTCHAR ucircumflex
ENCODING 251
SWIDTH 795 0
DWIDTH 29 0
BBX 27 39 1 -2
BITMAP
00000000000A80A5000000000000
00000000004FF29C000000000000
0000000000ABD73F300000000000
0000000001F47D0C900000000000
0000000007D02F46E10000000000
000000000C824BA1E60000000000
000000003F28A5F19C0000000000
000000009B0E70D73F2000000000
00000000C54D107B0B7000000000
0000000000000000000000000000
0000000000000000000000000000
3305124051000000042150331500
8B0F48C0F40000000B83F1A92F20
8B0F48C0F40000000B83F1A92F20
8B0F48C0F40000000B83F1A92F20
8B0F48C0F40000000B83F1A92F20
8B0F48C0F40000000B83F1A92F20
8B0F48C0F40000000B83F1A92F20
8B0F48C0F40000000B83F1A92F20
8B0F48C0F40000000B83F1A92F20
8B0F48C0F40000000B83F1A92F20
8B0F48C0F40000000B83F1A92F20
8B0F48C0F40000000B83F1A92F20
8B0F48C0F40000000B83F1A92F20
8B0F48C0F40000000B83F1A92F20
8B0F47C0F40000000B83F1A92F20
8B0F47D0D60000000D74F0B83F10
6D0D64F19C0000004F27C0D65E00
4F19B0E72EA10004E90D72F38C00
0E64F27E33DEA9CF909E19C0D700
09C0CB0AE3069A8309F43F54F200
02E52E809FA52137DE41E90C9000
007E24F914BFFFFD814DC08E1000
000BC13DD500231028F916F40000
0001CD319FEB989CFD507F600000
00001AF81159ABA7304CE4000000
0000005DE95210137CF920000000
000000005AEFFFFFC82000000000
0000000000013421000000000000
ENDCHAR
STARTCHAR udieresis
ENCODING 252
SWIDTH 795 0
DWIDTH 29 0
BBX 27 35 1 -2
BITMAP
0000270642800004608236000000
00005E0C74F00008B0F47C000000
00005E0C74F00008B0F47C000000
00005E0C74F00008B0F47C000000
0000260532600003506235000000
0000000000000000000000000000
0000000000000000000000000000
3305124051000000042150331500
8B0F48C0F40000000B83F1A92F20
8B0F48C0F40000000B83F1A92F20
8B0F48C0F40000000B83F1A92F20
8B0F48C0F40000000B83F1A92F20
8B0F48C0F40000000B83F1A92F20
8B0F48C0F40000000B83F1A92F20
8B0F48C0F40000000B83F1A92F20
8B0F48C0F40000000B83F1A92F20
8B0F48C0F40000000B83F1A92F20
8B0F48C0F40000000B83F1A92F20
8B0F48C0F40000000B83F1A92F20
8B0F48C0F40000000B83F1A92F20
8B0F48C0F40000000B83F1A92F20
8B0F47C0F40000000B83F1A92F20
8B0F47D0D60000000D74F0B83F10
6D0D64F19C0000004F27C0D65E00
4F19B0E72EA10004E90D72F38C00
0E64F27E33DEA9CF909E19C0D700
09C0CB0AE3069A8309F43F54F200
02E52E809FA52137DE41E90C9000
007E24F914BFFFFD814DC08E1000
000BC13DD500231028F916F40000
0001CD319FEB989CFD507F600000
00001AF81159ABA7304CE4000000
0000005DE95210137CF920000000
000000005AEFFFFFC82000000000
0000000000013421000000000000
ENDCHAR
STARTCHAR yacute
ENCODING 253
SWIDTH 733 0
DWIDTH 26 0
BBX 26 37 0 0
BITMAP
000000000000000000006D8000
0000000000000000006DE81100
00000000000000006DE8118E90
000000000000017EE7129FD600
0000000000017EE7129FD50000
00000000005EE7129FC5000000
00000000001602AFC500000000
0000000000006FC40000000000
00000000000003000000000000
00000000000000000000000000
00000000000000000000000000
24042150330000000512305124
1E47C1D55D1000006D0D65E1C7
08B1E56D0C800000D65E1C74E1
01E47D0D73F20005E0C74E1B80
008B0D65E1AA000C74E1B83F10
001E46D0C82F404E1B83E1A900
0007C0D64F28C0B83E1A92F200
0001E45E1BA1D4E1A92F29A000
00007C0D73F32A93F2A92F2000
00001E45E1AB3F2A92F29A0000
000007C0C829A92F29A1F30000
000001E54E12F29A1F38B00000
0000007C0C89A1F38B1E400000
0000001E545F38B1E47C000000
00000007C08B1E47C1E5000000
00000001E6E47C1E57C0000000
000000007FB1E47C0D50000000
000000000F56D0D65E00000000
000000000E56D0D65E00000000
000000000E56D0D65E00000000
000000000E56D0D65E00000000
000000000E56D0D65E00000000
000000000E56D0D65E00000000
000000000E56D0D65E00000000
000000000E56D0D65E00000000
000000000E56D0D65E00000000
ENDCHAR
STARTCHAR thorn
ENCODING 254
SWIDTH 833 0
DWIDTH 30 0
BBX 28 34 1 -4
BITMAP
1101102011000000000000000000
5E0C74F0B8000000000000000000
5E0C74F0B8000000000000000000
5E0C74F0B8000000000000000000
5E0C74F0B8000000000000000000
5E0C74F0B8000000000000000000
5E0C74F0B8000000000000000000
5E0C74F0B8000000000000000000
5E0C74F0B8577777776510000000
5E0C74F0B88CCCCCCCDEFC500000
5E0C74F0B8000000000039FC2000
5E0C74F0B8AEEEEEEEDB613DE200
5E0C74F0B83555555569EE41DD10
5E0C74F0B8566666665218F52E80
5E0C74F0B89DDDDDDDFF917E27F1
5E0C74F0B80000000004DB0BA1E5
5E0C74F0B8ADDDDDDDC42E55E1A9
5E0C74F0B846666666AE1AA1F38B
5E0C74F0B8000000002F38B0F47C
5E0C74F0B87999999ADC0B92F38A
5E0C74F0B87AAAAAA9716F36E0B8
5E0C74F0B81111111139F71D81F3
5E0C74F0B8BFFFFFFFFC41BD19C0
5E0C74F0B823333332104CD25F40
5E0C74F0B868888889ADFA14E800
5E0C74F0B88BBBBBBA97207F8000
5E0C74F0B800000000137DE50000
5E0C74F0B8BFFFFFFFFFC7100000
5E0C74F0B8333333332100000000
5E0C74F0B8000000000000000000
5E0C74F0B8000000000000000000
5E0C74F0B8000000000000000000
5E0C74F0B8000000000000000000
4B0A53C096000000000000000000
ENDCHAR
STARTCHAR ydieresis
ENCODING 255
SWIDTH 733 0
DWIDTH 26 0
BBX 26 33 0 0
BITMAP
00003706327000045082460000
00005E0C74F00008B0F48C0000
00005E0C74F00008B0F48C0000
00005E0C74F00008B0F48C0000
00002605326000044061350000
00000000000000000000000000
00000000000000000000000000
24042150330000000512305124
1E47C1D55D1000006D0D65E1C7
08B1E56D0C800000D65E1C74E1
01E47D0D73F20005E0C74E1B80
008B0D65E1AA000C74E1B83F10
001E46D0C82F404E1B83E1A900
0007C0D64F28C0B83E1A92F200
0001E45E1BA1D4E1A92F29A000
00007C0D73F32A93F2A92F2000
00001E45E1AB3F2A92F29A0000
000007C0C829A92F29A1F30000
000001E54E12F29A1F38B00000
0000007C0C89A1F38B1E400000
0000001E545F38B1E47C000000
00000007C08B1E47C1E5000000
00000001E6E47C1E57C0000000
000000007FB1E47C0D50000000
000000000F56D0D65E00000000
000000000E56D0D65E00000000
000000000E56D0D65E00000000
000000000E56D0D65E00000000
000000000E56D0D65E00000000
000000000E56D0D65E00000000
000000000E56D0D65E00000000
000000000E56D0D65E00000000
000000000E56D0D65E00000000
ENDCHAR
STARTCHAR Amacron
ENCODING 256
SWIDTH 936 0
DWIDTH 34 0
BBX 33 30 0 0
BITMAP
0000000000002102011011000000000000
000000000002FB0E63F27D000000000000
000000000008EF28C0C82F400000000000
00000000000E6D72F36E0BA00000000000
00000000005E17D0B91E55F10000000000
0000000000B912F46E19B0E70000000000
0000000002F465AA1E64F28D0000000000
0000000008D0C84F19C0D82F4000000000
000000000E73F20D73F37D0BA000000000
000000005F19B067D0C91F45E100000000
00000000BA1E54E2F46E1AA0E600000000
00000002F46E0AA0BA1E64F28C00000000
00000008D0C91F425F19B0D72F30000000
0000000D73F37D0B2D73F27D0B90000000
0000004F19C0D82F38D0C81F45E1000000
000000AA1E64F28C02F46E0AA0E6000000
000001F45E1AB0E700BA1E54F19C000000
000007D0B91F55F1005E19B0D73F300000
00000D72F36E0BA0000E63F27D0C900000
00004F28C0C82F400008C0D82F46E10000
0000AB0E63F28D6CCCC5F37E0AA1E60000
0001F55E19B0D7577773B91F55F19C0000
0007E0B91E54F34444446E1AB0D73F3000
000D82F36E0AA9FFFFFF6E64F28D0C9000
004F28C0C91F4000000008C0D82F36E000
00AB0E63F37D5BBBBBBBB5F37D0B91E500
01F55F19C0D75888888883C91F55E19B00
07E0BA1E64F200000000006E1AA0E63F20
0C82F46E1AB000000000001E64F28C0C80
3F27D0C91F50000000000009C0D72F37E0
ENDCHAR
STARTCHAR amacron
ENCODING 257
SWIDTH 832 0
DWIDTH 30 0
BBX 28 27 1 -1
BITMAP
0000000027BDFFEDB73000000000
0000002AFD9644458CFC50000000
000008FB401567753028EC200000
0001AE604BFECCCEFD812BE40000
000AE32BF930000027DE609E3000
008E33EC217BDFEC8307F90AD100
02F52EA06ED96558CFA13E81D900
0AB0CC08F702566303DD24F44F20
2F45E26F41AFEDDFD51BC09C0C80
7D0C81E71DD400029F61E72F37D0
B91F37D0AD10000006F27D0C82F2
D65E0B82F400000000C82F38B0E5
F46C0D65E0000000008C0E56D0D6
F47C0E56D0000000006D0D65E0C7
E56D0D65E0000000006D0D65E0C7
D74F0B92F3000000006D0D65E0C7
AA1F46E0AC100000006D0D65E0C7
6E0AA1E71DC40000466D0D65E0C7
1E63F36F519EECDFE66D0D65E0C7
08D19C17F9114553026D0D65E0C7
01E91CC14CFB8679DA6D0D65E0C7
004F71BE5048ACB9516D0D65E0C7
0006F807ED841013776D0D65E0C7
00005EB217CFFFFFC56D0D65E0C7
000003BF93002321026D0D65E0C7
00000005BFEB989AEA6D0D65E0C7
0000000001589A98410000000000
ENDCHAR
STARTCHAR Abreve
ENCODING 258
SWIDTH 936 0
DWIDTH 34 0
BBX 33 37 0 0
BITMAP
0000000000035450000718100000000000
000000000004C2E6238C2E100000000000
000000000000C839CC82B8000000000000
0000000000001CC6347E90000000000000
000000000000005ACB9300000000000000
0000000000000000000000000000000000
0000000000000000000000000000000000
0000000000002102011011000000000000
000000000002FB0E63F27D000000000000
000000000008EF28C0C82F400000000000
00000000000E6D72F36E0BA00000000000
00000000005E17D0B91E55F10000000000
0000000000B912F46E19B0E70000000000
0000000002F465AA1E64F28D0000000000
0000000008D0C84F19C0D82F4000000000
000000000E73F20D73F37D0BA000000000
000000005F19B067D0C91F45E100000000
00000000BA1E54E2F46E1AA0E600000000
00000002F46E0AA0BA1E64F28C00000000
00000008D0C91F425F19B0D72F30000000
0000000D73F37D0B2D73F27D0B90000000
0000004F19C0D82F38D0C81F45E1000000
000000AA1E64F28C02F46E0AA0E6000000
000001F45E1AB0E700BA1E54F19C000000
000007D0B91F55F1005E19B0D73F300000
00000D72F36E0BA0000E63F27D0C900000
00004F28C0C82F400008C0D82F46E10000
0000AB0E63F28D6CCCC5F37E0AA1E60000
0001F55E19B0D7577773B91F55F19C0000
0007E0B91E54F34444446E1AB0D73F3000
000D82F36E0AA9FFFFFF6E64F28D0C9000
004F28C0C91F4000000008C0D82F36E000
00AB0E63F37D5BBBBBBBB5F37D0B91E500
01F55F19C0D75888888883C91F55E19B00
07E0BA1E64F200000000006E1AA0E63F20
0C82F46E1AB000000000001E64F28C0C80
3F27D0C91F50000000000009C0D72F37E0
ENDCHAR
STARTCHAR abreve
ENCODING 259
SWIDTH 832 0
DWIDTH 30 0
BBX 28 34 1 -1
BITMAP
0000000062620002727000000000
00000000986C424C76A000000000
000000002E45BDB53E3000000000
0000000004E95359E50000000000
000000000017BCB7100000000000
0000000000000000000000000000
0000000000000000000000000000
0000000027BDFFEDB73000000000
0000002AFD9644458CFC50000000
000008FB401567753028EC200000
0001AE604BFECCCEFD812BE40000
000AE32BF930000027DE609E3000
008E33EC217BDFEC8307F90AD100
02F52EA06ED96558CFA13E81D900
0AB0CC08F702566303DD24F44F20
2F45E26F41AFEDDFD51BC09C0C80
7D0C81E71DD400029F61E72F37D0
B91F37D0AD10000006F27D0C82F2
D65E0B82F400000000C82F38B0E5
F46C0D65E0000000008C0E56D0D6
F47C0E56D0000000006D0D65E0C7
E56D0D65E0000000006D0D65E0C7
D74F0B92F3000000006D0D65E0C7
AA1F46E0AC100000006D0D65E0C7
6E0AA1E71DC40000466D0D65E0C7
1E63F36F519EECDFE66D0D65E0C7
08D19C17F9114553026D0D65E0C7
01E91CC14CFB8679DA6D0D65E0C7
004F71BE5048ACB9516D0D65E0C7
0006F807ED841013776D0D65E0C7
00005EB217CFFFFFC56D0D65E0C7
000003BF93002321026D0D65E0C7
00000005BFEB989AEA6D0D65E0C7
0000000001589A98410000000000
ENDCHAR
STARTCHAR Aogonek
ENCODING 260
SWIDTH 937 0
DWIDTH 34 0
BBX 34 42 0 -12
BITMAP
0000000000001101102011000000000000
000000000000DE0AA0E64F200000000000
000000000004FE55F19C0D800000000000
00000000000AA9B0D73F37D00000000000
00000000002F43F28D0C91F50000000000
00000000007D01C82F46E0AA0000000000
0000000000D7396E0BA1E54F2000000000
0000000004F28C1F55F19B0D7000000000
000000000AA0E60AB0E63F27D000000000
000000001F55E174F28C0C81F400000000
000000007D0B91E2D82F36E0AA00000000
00000000D82F36E07D0B91E54F10000000
00000004F28C0C812F55E19B0D70000000
0000000AB0E63F275AA0E63F28D0000000
0000001F55E19B0D74F28C0C82F4000000
0000007E0BA1E64F10D73F36E0BA000000
000000D82F46E1AA007D0C91E55F100000
000003F28D0C91F4001F46E1AB0E700000
000009B0D73F37D0000AA1E64F28D00000
00001E54F19C0D800004F19C0D82F40000
00006E0AA1E64F4CCCC6D73F37D0B90000
0000C82F45E1AB3777758D0C91F45E1000
0003F27D0B91F54444443F46E0AA0E6000
0009C0D72F37E5FFFFFF9BA1E54F18C000
001E64F18C0C8000000005F19B0D72F300
006E1AA0E63F4BBBBBBBB5E73F27D0B900
00C91F45F19B38888888858D0C81F46E10
03F37D0BA1E500000000002F36E0AA1E60
09C0D72F46E000000000000B91F54F19C0
1E64F28D0C80000230000005E1AB0D73F3
0000000000003AEFE00000000000000000
000000000004FB42000000000000000000
00000000000D9038900000000000000000
00000000003F24FC800000000000000000
00000000005E0BA0000000000000000000
00000000006D0D60000000000000000000
00000000006D0D65D00000000000000000
00000000006D0D65E00000000000000000
00000000006D0D65E00000000000000000
00000000006D0D65E00000000000000000
00000000006D0D65E00000000000000000
0000000000120211200000000000000000
ENDCHAR
STARTCHAR aogonek
ENCODING 261
SWIDTH 832 0
DWIDTH 30 0
BBX 28 39 1 -13
BITMAP
0000000027BDFFEDB73000000000
0000002AFD9644458CFC50000000
000008FB401567753028EC200000
0001AE604BFECCCEFD812BE40000
000AE32BF930000027DE609E3000
008E33EC217BDFEC8307F90AD100
02F52EA06ED96558CFA13E81D900
0AB0CC08F702566303DD24F44F20
2F45E26F41AFEDDFD51BC09C0C80
7D0C81E71DD400029F61E72F37D0
B91F37D0AD10000006F27D0C82F2
D65E0B82F400000000C82F38B0E5
F46C0D65E0000000008C0E56D0D6
F47C0E56D0000000006D0D65E0C7
E56D0D65E0000000006D0D65E0C7
D74F0B92F3000000006D0D65E0C7
AA1F46E0AC100000006D0D65E0C7
6E0AA1E71DC40000466D0D65E0C7
1E63F36F519EECDFE66D0D65E0C7
08D19C17F9114553026D0D65E0C7
01E91CC14CFB8679DA6D0D65E0C7
004F71BE5048ACB9516D0D65E0C7
0006F807ED841013776D0D65E0C7
00005EB217CFFFFFC56D0D65E0C7
000003BF93002321026D0D65E0C7
00000005BFEB989AEA6D0D65E0C7
000000000159CC98410000000000
0000000005CFFA00000000000000
000000008F831000000000000000
00000002F5059700000000000000
00000007C07FB500000000000000
00000009A0E60000000000000000
0000000A92F20000000000000000
0000000A92F29900000000000000
0000000A92F29A00000000000000
0000000A92F29A00000000000000
0000000A92F29A00000000000000
0000000A92F29A00000000000000
0000000110201100000000000000
ENDCHAR
STARTCHAR Cacute
ENCODING 262
SWIDTH 852 0
DWIDTH 31 0
BBX 29 43 1 -2
BITMAP
000000000000000000000029D30000
0000000000000000000029FC501000
00000000000000000029FC504BF300
00000000000000003AFC404CFA3000
000000000000003AFB405CFA200000
0000000000000AFB405CF920000000
00000000000004305DF92000000000
000000000000000CE8200000000000
000000000000000210000000000000
000000000000000000000000000000
000000000000035554200000000000
00000000016BFFEEEFFEA500000000
000000017EE841000026AFD5000000
0000004ED60269BCCB85018FB20000
000007F814BFEA8778BFE812CE3000
00009E519FB4013442016DE509E400
0006F42DD406CFFFFFEA307F909E20
003F62DB14DE8410025BF914E90B90
00CA0CC07FA116ABA9404DD23F7100
05F28E16F608ED989BFD41BD153000
0C81F63F71CE50000019F61C600000
3F28D0BB0BD2000000005F40000000
7C0D83F36E20000000000410000000
B82F38C0D800000000000000000000
D65F0B82F200000000000000000000
F46D0D65E000000000000000000000
F47C0E56D000000000000000000000
F46D0D65E000000000000000000000
D65F0B82F200000000000000000000
B92F38C0C800000000000000000000
7D0D82F35F30000000000610000000
3F37D1AC0AD2000000007F41000000
0C91E72E80AE7100003BE51D600000
04F27E25F806EEB9ACFB22CC164000
00BB0BD15FB2158A97205EC15F5210
003E71DC23CFA521237CF805F80C90
0005F51CE504AEFFFFD8219F70AE10
00007F608FC6102321027ED41BE300
000006F9129EFCA89ADFD714DD2000
0000003DE71158ABA97303AFA10000
000000006DEA63101247CFB4000000
00000000005AEFFFFFFC8300000000
000000000000013432000000000000
ENDCHAR
STARTCHAR cacute
ENCODING 263
SWIDTH 736 0
DWIDTH 27 0
BBX 26 39 1 -2
BITMAP
0000000000000000000018E400
00000000000000000028ED6010
000000000000000029FC503BF4
0000000000000029FC504BFB30
00000000000029FC504BFA3000
000000000009FC404CFA300000
000000000003405CF920000000
0000000000000BF92000000000
00000000000002200000000000
00000000000000000000000000
00000000002578875100000000
000000017DFECBBCEFC6000000
0000006DE8300000039ED40000
00001AE7127CEFFEB711AF8000
0001CD229FD854459DF804EA00
000BC14EC4036775105ED23E70
008E25F805DFDCCEFB31BE2310
02F43F709F9200004BF70A6000
0AB0CA0BD318CEEB605F700000
2F36E17E23ED7558EC14200000
7D0C82F52E9000001C80000000
B92F37D0BB0000000000000000
D65E0B82F30000000000000000
F56D0E65E00000000000000000
F47C0E56D00000000000000000
F56D0D65E00000000000000000
D74F1A91F50000000000000000
AA1E56E19D1000000310000000
6E1AA0D81CD300005E80000000
1E53F34F51AFC9ADF808500000
08D0AD17F7038A9721AE320000
01E71DB15ED731249EC32D7000
005F42DC218DFFFFB605EB0630
0008E41BF920132003AF907F50
00008F605CFDA98ADFB319F600
000006FC40279AB96205EE4000
00000029FD84210248DF910000
0000000028CFFFFFFC71000000
00000000000134420000000000
ENDCHAR
STARTCHAR Cdotaccent
ENCODING 266
SWIDTH 852 0
DWIDTH 31 0
BBX 29 41 1 -2
BITMAP
000000000000122222200000000000
0000000000005FFFFFF00000000000
000000000000122222200000000000
000000000000399999800000000000
0000000000004AAAAAA00000000000
000000000000011111100000000000
0000000000005FFFFFF00000000000
000000000000133333300000000000
000000000000035554200000000000
00000000016BFFEEEFFEA500000000
000000017EE841000026AFD5000000
0000004ED60269BCCB85018FB20000
000007F814BFEA8778BFE812CE3000
00009E519FB4013442016DE509E400
0006F42DD406CFFFFFEA307F909E20
003F62DB14DE8410025BF914E90B90
00CA0CC07FA116ABA9404DD23F7100
05F28E16F608ED989BFD41BD153000
0C81F63F71CE50000019F61C600000
3F28D0BB0BD2000000005F40000000
7C0D83F36E20000000000410000000
B82F38C0D800000000000000000000
D65F0B82F200000000000000000000
F46D0D65E000000000000000000000
F47C0E56D000000000000000000000
F46D0D65E000000000000000000000
D65F0B82F200000000000000000000
B92F38C0C800000000000000000000
7D0D82F35F30000000000610000000
3F37D1AC0AD2000000007F41000000
0C91E72E80AE7100003BE51D600000
04F27E25F806EEB9ACFB22CC164000
00BB0BD15FB2158A97205EC15F5210
003E71DC23CFA521237CF805F80C90
0005F51CE504AEFFFFD8219F70AE10
00007F608FC6102321027ED41BE300
000006F9129EFCA89ADFD714DD2000
0000003DE71158ABA97303AFA10000
000000006DEA63101247CFB4000000
00000000005AEFFFFFFC8300000000
000000000000013432000000000000
ENDCHAR
STARTCHAR cdotaccent
ENCODING 267
SWIDTH 736 0
DWIDTH 27 0
BBX 25 38 1 -2
BITMAP
00000000000222222000000000
00000000004FFFFFF100000000
00000000001222222000000000
00000000002999999000000000
00000000003AAAAAA000000000
00000000000111111000000000
00000000004FFFFFF100000000
00000000001333333000000000
00000000000000000000000000
00000000002578875100000000
000000017DFECBBCEFC6000000
0000006DE8300000039ED40000
00001AE7127CEFFEB711AF8000
0001CD229FD854459DF804EA00
000BC14EC4036775105ED23E70
008E25F805DFDCCEFB31BE2310
02F43F709F9200004BF70A6000
0AB0CA0BD318CEEB605F700000
2F36E17E23ED7558EC14200000
7D0C82F52E9000001C80000000
B92F37D0BB0000000000000000
D65E0B82F30000000000000000
F56D0E65E00000000000000000
F47C0E56D00000000000000000
F56D0D65E00000000000000000
D74F1A91F50000000000000000
AA1E56E19D1000000310000000
6E1AA0D81CD300005E80000000
1E53F34F51AFC9ADF808500000
08D0AD17F7038A9721AE320000
01E71DB15ED731249EC32D7000
005F42DC218DFFFFB605EB0630
0008E41BF920132003AF907F50
00008F605CFDA98ADFB319F600
000006FC40279AB96205EE4000
00000029FD84210248DF910000
0000000028CFFFFFFC71000000
00000000000134420000000000
ENDCHAR
STARTCHAR Ccaron
ENCODING 268
SWIDTH 852 0
DWIDTH 31 0
BBX 29 43 1 -2
BITMAP
00000000005808600942A100000000
00000000003F37D05F19C000000000
00000000000C91F3AA1E6000000000
000000000006E092F46E1000000000
000000000001E507D0C90000000000
0000000000009B0D72F30000000000
0000000000003F6F28C00000000000
0000000000000CFB0E600000000000
00000000000006E45D100000000000
000000000000000000000000000000
000000000000035554200000000000
00000000016BFFEEEFFEA500000000
000000017EE841000026AFD5000000
0000004ED60269BCCB85018FB20000
000007F814BFEA8778BFE812CE3000
00009E519FB4013442016DE509E400
0006F42DD406CFFFFFEA307F909E20
003F62DB14DE8410025BF914E90B90
00CA0CC07FA116ABA9404DD23F7100
05F28E16F608ED989BFD41BD153000
0C81F63F71CE50000019F61C600000
3F28D0BB0BD2000000005F40000000
7C0D83F36E20000000000410000000
B82F38C0D800000000000000000000
D65F0B82F200000000000000000000
F46D0D65E000000000000000000000
F47C0E56D000000000000000000000
F46D0D65E000000000000000000000
D65F0B82F200000000000000000000
B92F38C0C800000000000000000000
7D0D82F35F30000000000610000000
3F37D1AC0AD2000000007F41000000
0C91E72E80AE7100003BE51D600000
04F27E25F806EEB9ACFB22CC164000
00BB0BD15FB2158A97205EC15F5210
003E71DC23CFA521237CF805F80C90
0005F51CE504AEFFFFD8219F70AE10
00007F608FC6102321027ED41BE300
000006F9129EFCA89ADFD714DD2000
0000003DE71158ABA97303AFA10000
000000006DEA63101247CFB4000000
00000000005AEFFFFFFC8300000000
000000000000013432000000000000
ENDCHAR
STARTCHAR ccaron
ENCODING 269
SWIDTH 736 0
DWIDTH 27 0
BBX 25 39 1 -2
BITMAP
000000004907700952A2000000
000000001F46E13F27D0000000
000000000AA1E59C0D70000000
0000000004F182E64F10000000
0000000000D706E1AA00000000
00000000007D0C91F400000000
00000000002F6F37D000000000
00000000000BFC0D7000000000
000000000004E63E2000000000
00000000000000000000000000
00000000002578875100000000
000000017DFECBBCEFC6000000
0000006DE8300000039ED40000
00001AE7127CEFFEB711AF8000
0001CD229FD854459DF804EA00
000BC14EC4036775105ED23E70
008E25F805DFDCCEFB31BE2310
02F43F709F9200004BF70A6000
0AB0CA0BD318CEEB605F700000
2F36E17E23ED7558EC14200000
7D0C82F52E9000001C80000000
B92F37D0BB0000000000000000
D65E0B82F30000000000000000
F56D0E65E00000000000000000
F47C0E56D00000000000000000
F56D0D65E00000000000000000
D74F1A91F50000000000000000
AA1E56E19D1000000310000000
6E1AA0D81CD300005E80000000
1E53F34F51AFC9ADF808500000
08D0AD17F7038A9721AE320000
01E71DB15ED731249EC32D7000
005F42DC218DFFFFB605EB0630
0008E41BF920132003AF907F50
00008F605CFDA98ADFB319F600
000006FC40279AB96205EE4000
00000029FD84210248DF910000
0000000028CFFFFFFC71000000
00000000000134420000000000
ENDCHAR
STARTCHAR Dcaron
ENCODING 270
SWIDTH 886 0
DWIDTH 32 0
BBX 30 41 1 0
BITMAP
0000000001A2490068095000000000
0000000000C81F40D73F2000000000
00000000006E0A95F19C0000000000
00000000001E545BA1E60000000000
000000000009B02F46E10000000000
000000000003F27D0C900000000000
000000000000C8D73F300000000000
0000000000006FF28C000000000000
0000000000001DA0D6000000000000
000000000000000000000000000000
000000000000000000000000000000
122222222222222221000000000000
5FFFFFFFFFFFFFFFFFFC7200000000
5E222222222222222358DF91000000
5E07999999999999986205ED300000
5E0CCAAAAAAAAAAAABDFC41AF40000
5E0C7011111111111003AF809F3000
5E0C74FFFFFFFFFFFFC704EA0AD100
5E0C74F333333333348ED23E81D900
5E0C74F0688888888621BD25F35F20
5E0C74F0CDBBBBBBBDF71BC0AC0D90
5E0C74F0C8000000005F62F63F37E0
5E0C74F0C80000000007E19D0C82F4
5E0C74F0C80000000000D73F38C0D7
5E0C74F0C800000000009B0E65F0BA
5E0C74F0C800000000006D0D83F29B
5E0C74F0C800000000005E0B82F28B
5E0C74F0C800000000006D0C83F19B
5E0C74F0C800000000009B0E55F0B9
5E0C74F0C80000000001E63F28C0D7
5E0C74F0C80000000008E19C0C83F3
5E0C74F0C8000000007F52F53F37E0
5E0C74F0CEDDDDDDDEE61CB0BB0D80
5E0C74F0566666666512CD16F36E10
5E0C74F555555555569EB14F71E800
5E0C74EEEEEEEEEEEDB506F90BC000
5E0C7000000000000004BF70AE2000
5E0CDCCCCCCCCCCCCDFFA22BE30000
5E06777777777777764117EC200000
5E44444444444444446AEE70000000
5FFFFFFFFFFFFFFFFFDA6100000000
ENDCHAR
STARTCHAR dcaron
ENCODING 271
SWIDTH 1084 0
DWIDTH 39 0
BBX 37 27 1 0
BITMAP
00000000000000000000000000000034051240
2555555555555554310000000000008B0F47C0
5FEEEEEEEEEEEEEFFFD820000000008B0F47C0
5E00000000000000137CF9100000008B0F47C0
5E0ACCCCCCCCCCCBA8305DD30000008B0F47C0
5E0CB777777777789CFC31AE300000680F47C0
5E0C714444444443202AF60AE20000000F47C0
5E0C74FFFFFFFFFFFD706F80CB0000006F18B0
5E0C74F00000000137EC15F42F50006DF60C80
5E0C74F08BBBBBBA821CC19E19D00046206F20
5E0C74F0BC888889CE51D91E73F300246BF600
5E0C74F0B800000008F35F19C0D7008FD93000
5E0C74F0B800000000BA0E64F1AA0000000000
5E0C74F0B8000000006E0B82F28B0000000000
5E0C74F0B8000000005F0B92F38C0000000000
5E0C74F0B8000000007D0C83F28B0000000000
5E0C74F0B800000001D81F46E0B90000000000
5E0C74F0B80000002BD18D0AA0E60000000000
5E0C74F0BEDDDDDDFC24F62F44F10000000000
5E0C74F056666666305E90CB0BA00000000000
5E0C74F5555555557CF809E25F200000000000
5E0C74EEEEEEEEEEC821BE42E8000000000000
5E0C700000000000027ED22DB0000000000000
5E0CDCCCCCCCCCCCDFD714DB10000000000000
5E0677777777777763029F9000000000000000
5E4444444444444458BFB30000000000000000
5FFFFFFFFFFFFFFFDB83000000000000000000
ENDCHAR
STARTCHAR Dcroat
ENCODING 272
SWIDTH 888 0
DWIDTH 32 0
BBX 33 30 -2 0
BITMAP
0001222222222222222210000000000000
0005FFFFFFFFFFFFFFFFFFC72000000000
0005E222222222222222358DF910000000
0005E07999999999999986205DE4000000
0005E0CCAAAAAAAAAAAABDFC419F500000
0005E0C70111111111110039F808F40000
0005E0C74FFFFFFFFFFFFC714EA0AE1000
0005E0C74F333333333348ED23E81D9000
0005E0C74F0688888888621BD25F35F300
0005E0C74F0BDBBBBBBBDF70BC0AC0D900
0005E0C74F0B8000000005F62E63F36E00
0005E0C74F0B80000000006E18D0C92F40
ACB5E0C74F0B8ACCC500000D73F37D0D70
5765E0C74F0B857773000008B0E64F0AA0
3445E0C74F0B844442000006E0C83F29B0
BFD5E0C74F0B8CFFF6000005E0B82F28C0
0005E0C74F0B800000000006D0C83F29B0
9CA5E0C74F0B89CCC5000009B0E65F0B90
6875E0C74F0B86888300000E73F28C0D70
0005E0C74F0B80000000008E19C0C82F40
0005E0C74F0B8000000007F52F53F37E00
0005E0C74F0BEDDDDDDDEE61CB0BB0D800
0005E0C74F0566666666512CD26F36E100
0005E0C74F555555555569EC14E71E8000
0005E0C74EEEEEEEEEEEDB506E90BC0000
0005E0C7000000000000004BF70AE20000
0005E0CDCCCCCCCCCCCCDFFA21BE300000
0005E06777777777777765106EC2000000
0005E444444444444444469EE700000000
0005FFFFFFFFFFFFFFFFFDA61000000000
ENDCHAR
STARTCHAR dcroat
ENCODING 273
SWIDTH 833 0
DWIDTH 30 0
BBX 31 26 -2 0
BITMAP
00025555555555555543100000000000
0005FEEEEEEEEEEEEEFFFD8200000000
0005E00000000000000137CF91000000
0005E0ACCCCCCCCCCCBA7305DD300000
0005E0CB777777777789CFC31AE30000
0005E0C714444444443202AF60AE2000
0005E0C74FFFFFFFFFFFD607F70CB000
0005E0C74F00000000137EC15F42F500
0005E0C74F08BBBBBBA822CC19E19C00
0005E0C74F0CC888889CE51D81E63F30
0005E0C74F0C800000008E25F19C0D70
6985E0C74F0C879994000BA0E55F0AA0
7A95E0C74F0C88AAA40006E0C82F28B0
1115E0C74F0C8111100005E0B92F28C0
BFE5E0C74F0C8CFFF70007D0C73F29B0
2335E0C74F0C823331001D81F46E0B90
0005E0C74F0C80000002CD18D0BA0E50
0005E0C74F0CEDDDDDDFC24F52F45F10
0005E0C74F056666666305E90CB0BA00
0005E0C74F5555555557CF709E15F200
0005E0C74EEEEEEEEEEC821BE42E8000
0005E0C700000000000027ED22DB0000
0005E0CDCCCCCCCCCCCEFD714DB10000
0005E0677777777777763029F9000000
0005E4444444444444458CFB30000000
0005FFFFFFFFFFFFFFFDB73000000000
ENDCHAR
STARTCHAR Emacron
ENCODING 274
SWIDTH 706 0
DWIDTH 25 0
BBX 23 30 1 0
BITMAP
110110201222222222222220
5E0C74F0CFFFFFFFFFFFFFE0
5E0C74F0C922222222222220
5E0C74F0CC99999999999980
5E0C74F0CDAAAAAAAAAAAAA0
5E0C74F0C811111111111110
5E0C74F0CFFFFFFFFFFFFFE0
5E0C74F0C933333333333330
5E0C74F0C800000000000000
5E0C74F0C800000000000000
5E0C74F0C800000000000000
5E0C74F0C800000000000000
5E0C74F0CDBBBBBB40000000
5E0C74F0CC88888830000000
5E0C74F0C933333310000000
5E0C74F0CFFFFFFF60000000
5E0C74F0C811111100000000
5E0C74F0CCAAAAAA40000000
5E0C74F0CC99999940000000
5E0C74F0C800000000000000
5E0C74F0C800000000000000
5E0C74F0C800000000000000
5E0C74F0C800000000000000
5E0C74F0CA55555555555550
5E0C74F0CFEEEEEEEEEEEED0
5E0C74F0C800000000000000
5E0C74F0CECCCCCCCCCCCCB0
5E0C74F0CB77777777777770
5E0C74F0CA44444444444440
5E0C74F0CFFFFFFFFFFFFFE0
ENDCHAR
STARTCHAR emacron
ENCODING 275
SWIDTH 666 0
DWIDTH 24 0
BBX 22 26 1 0
BITMAP
2404215045555555555553
5E0C74F0CFEEEEEEEEEEE9
5E0C74F0C8000000000000
5E0C74F0CDCCCCCCCCCCC7
5E0C74F0CB777777777774
5E0C74F0C9444444444442
5E0C74F0CFFFFFFFFFFFF9
5E0C74F0C8000000000000
5E0C74F0C8000000000000
5E0C74F0C8000000000000
5E0C74F0CEDDDDDDDDDDB0
5E0C74F0CB666666666660
5E0C74F0CA555555555540
5E0C74F0CFEEEEEEEEEED0
5E0C74F0C8000000000000
5E0C74F0CDCCCCCCCCCCB0
5E0C74F0CB777777777770
5E0C74F0C8000000000000
5E0C74F0C8000000000000
5E0C74F0CA555555555553
5E0C74F0CFEEEEEEEEEEE9
5E0C74F0C8000000000000
5E0C74F0CECCCCCCCCCCC7
5E0C74F0CB777777777774
5E0C74F0CA444444444442
5E0C74F0CFFFFFFFFFFFF9
ENDCHAR
STARTCHAR Ebreve
ENCODING 276
SWIDTH 706 0
DWIDTH 25 0
BBX 23 37 1 0
BITMAP
000000454500008181000000
0000005C3E6239B2E0000000
0000000D73ACC72C70000000
00000002CC5347E800000000
0000000005ACB83000000000
000000000000000000000000
000000000000000000000000
110110201222222222222220
5E0C74F0CFFFFFFFFFFFFFE0
5E0C74F0C922222222222220
5E0C74F0CC99999999999980
5E0C74F0CDAAAAAAAAAAAAA0
5E0C74F0C811111111111110
5E0C74F0CFFFFFFFFFFFFFE0
5E0C74F0C933333333333330
5E0C74F0C800000000000000
5E0C74F0C800000000000000
5E0C74F0C800000000000000
5E0C74F0C800000000000000
5E0C74F0CDBBBBBB40000000
5E0C74F0CC88888830000000
5E0C74F0C933333310000000
5E0C74F0CFFFFFFF60000000
5E0C74F0C811111100000000
5E0C74F0CCAAAAAA40000000
5E0C74F0CC99999940000000
5E0C74F0C800000000000000
5E0C74F0C800000000000000
5E0C74F0C800000000000000
5E0C74F0C800000000000000
5E0C74F0CA55555555555550
5E0C74F0CFEEEEEEEEEEEED0
5E0C74F0C800000000000000
5E0C74F0CECCCCCCCCCCCCB0
5E0C74F0CB77777777777770
5E0C74F0CA44444444444440
5E0C74F0CFFFFFFFFFFFFFE0
ENDCHAR
STARTCHAR ebreve
ENCODING 277
SWIDTH 666 0
DWIDTH 24 0
BBX 22 33 1 0
BITMAP
0000018170000545300000
000001E2C8326D2C400000
0000008B28CC928C000000
00000009E7436CC1000000
0000000039BCA500000000
0000000000000000000000
0000000000000000000000
2404215045555555555553
5E0C74F0CFEEEEEEEEEEE9
5E0C74F0C8000000000000
5E0C74F0CDCCCCCCCCCCC7
5E0C74F0CB777777777774
5E0C74F0C9444444444442
5E0C74F0CFFFFFFFFFFFF9
5E0C74F0C8000000000000
5E0C74F0C8000000000000
5E0C74F0C8000000000000
5E0C74F0CEDDDDDDDDDDB0
5E0C74F0CB666666666660
5E0C74F0CA555555555540
5E0C74F0CFEEEEEEEEEED0
5E0C74F0C8000000000000
5E0C74F0CDCCCCCCCCCCB0
5E0C74F0CB777777777770
5E0C74F0C8000000000000
5E0C74F0C8000000000000
5E0C74F0CA555555555553
5E0C74F0CFEEEEEEEEEEE9
5E0C74F0C8000000000000
5E0C74F0CECCCCCCCCCCC7
5E0C74F0CB777777777774
5E0C74F0CA444444444442
5E0C74F0CFFFFFFFFFFFF9
ENDCHAR
STARTCHAR Edotaccent
ENCODING 278
SWIDTH 706 0
DWIDTH 25 0
BBX 23 39 1 0
BITMAP
000000001444444000000000
000000005FFFFFF000000000
000000000000000000000000
000000004BBBBBA000000000
000000003888888000000000
000000001333333000000000
000000005FFFFFF000000000
000000000111111000000000
000000000000000000000000
110110201222222222222220
5E0C74F0CFFFFFFFFFFFFFE0
5E0C74F0C922222222222220
5E0C74F0CC99999999999980
5E0C74F0CDAAAAAAAAAAAAA0
5E0C74F0C811111111111110
5E0C74F0CFFFFFFFFFFFFFE0
5E0C74F0C933333333333330
5E0C74F0C800000000000000
5E0C74F0C800000000000000
5E0C74F0C800000000000000
5E0C74F0C800000000000000
5E0C74F0CDBBBBBB40000000
5E0C74F0CC88888830000000
5E0C74F0C933333310000000
5E0C74F0CFFFFFFF60000000
5E0C74F0C811111100000000
5E0C74F0CCAAAAAA40000000
5E0C74F0CC99999940000000
5E0C74F0C800000000000000
5E0C74F0C800000000000000
5E0C74F0C800000000000000
5E0C74F0C800000000000000
5E0C74F0CA55555555555550
5E0C74F0CFEEEEEEEEEEEED0
5E0C74F0C800000000000000
5E0C74F0CECCCCCCCCCCCCB0
5E0C74F0CB77777777777770
5E0C74F0CA44444444444440
5E0C74F0CFFFFFFFFFFFFFE0
ENDCHAR
STARTCHAR edotaccent
ENCODING 279
SWIDTH 666 0
DWIDTH 24 0
BBX 22 35 1 0
BITMAP
0000000044444410000000
00000000FFFFFF40000000
0000000000000000000000
00000000BBBBBB30000000
0000000088888820000000
0000000033333310000000
00000000FFFFFF40000000
0000000011111100000000
0000000000000000000000
2404215045555555555553
5E0C74F0CFEEEEEEEEEEE9
5E0C74F0C8000000000000
5E0C74F0CDCCCCCCCCCCC7
5E0C74F0CB777777777774
5E0C74F0C9444444444442
5E0C74F0CFFFFFFFFFFFF9
5E0C74F0C8000000000000
5E0C74F0C8000000000000
5E0C74F0C8000000000000
5E0C74F0CEDDDDDDDDDDB0
5E0C74F0CB666666666660
5E0C74F0CA555555555540
5E0C74F0CFEEEEEEEEEED0
5E0C74F0C8000000000000
5E0C74F0CDCCCCCCCCCCB0
5E0C74F0CB777777777770
5E0C74F0C8000000000000
5E0C74F0C8000000000000
5E0C74F0CA555555555553
5E0C74F0CFEEEEEEEEEEE9
5E0C74F0C8000000000000
5E0C74F0CECCCCCCCCCCC7
5E0C74F0CB777777777774
5E0C74F0CA444444444442
5E0C74F0CFFFFFFFFFFFF9
ENDCHAR
STARTCHAR Eogonek
ENCODING 280
SWIDTH 706 0
DWIDTH 25 0
BBX 23 41 1 -11
BITMAP
110110201222222222222220
6D0D65E0CFFFFFFFFFFFFFE0
6D0D65E0C822222222222220
6D0D65E0CC99999999999980
6D0D65E0CDAAAAAAAAAAAAA0
6D0D65E0C811111111111110
6D0D65E0CFFFFFFFFFFFFFE0
6D0D65E0C933333333333330
6D0D65E0C700000000000000
6D0D65E0C700000000000000
6D0D65E0C700000000000000
6D0D65E0C700000000000000
6D0D65E0CDBBBBBB40000000
6D0D65E0CC88888830000000
6D0D65E0C933333310000000
6D0D65E0CFFFFFFF60000000
6D0D65E0C811111100000000
6D0D65E0CCAAAAAA40000000
6D0D65E0CC99999940000000
6D0D65E0C700000000000000
6D0D65E0C700000000000000
6D0D65E0C700000000000000
6D0D65E0C700000000000000
6D0D65E0CA55555555555550
6D0D65E0CFEEEEEEEEEEEED0
6D0D65E0C700000000000000
6D0D65E0CDCCCCCCCCCCCCB0
6D0D65E0CB77777777777770
6D0D65E0C944444444444670
6D0D65E0CFFFFFFFFFFFFFF0
000000000000000004FA4100
00000000000000000D903890
00000000000000003F14FC80
00000000000000006D0BA000
00000000000000007C0D6000
00000000000000007C0E55D0
00000000000000007C0E56D0
00000000000000007C0E56D0
00000000000000007C0E56D0
00000000000000007C0E56D0
000000000000000012021120
ENDCHAR
STARTCHAR eogonek
ENCODING 281
SWIDTH 666 0
DWIDTH 24 0
BBX 22 37 1 -11
BITMAP
2404215045555555555553
5E0C74F0CFEEEEEEEEEEE9
5E0C74F0C8000000000000
5E0C74F0CDCCCCCCCCCCC7
5E0C74F0CB777777777774
5E0C74F0C9444444444442
5E0C74F0CFFFFFFFFFFFF9
5E0C74F0C8000000000000
5E0C74F0C8000000000000
5E0C74F0C8000000000000
5E0C74F0CEDDDDDDDDDDB0
5E0C74F0CB666666666660
5E0C74F0CA555555555540
5E0C74F0CFEEEEEEEEEED0
5E0C74F0C8000000000000
5E0C74F0CDCCCCCCCCCCB0
5E0C74F0CB777777777770
5E0C74F0C8000000000000
5E0C74F0C8000000000000
5E0C74F0CA555555555553
5E0C74F0CFEEEEEEEEEEE9
5E0C74F0C8000000000000
5E0C74F0CECCCCCCCCCCC7
5E0C74F0CB777777777774
5E0C74F0CA444444444575
5E0C74F0CFFFFFFFFFFFFF
00000000000000008F8310
0000000000000003F40596
0000000000000008C08FA5
000000000000000A91F500
000000000000000B83F100
000000000000000B83F198
000000000000000B83F1A9
000000000000000B83F1A9
000000000000000B83F1A9
000000000000000B83F1A9
0000000000000001102011
ENDCHAR
STARTCHAR Ecaron
ENCODING 282
SWIDTH 706 0
DWIDTH 25 0
BBX 23 41 1 0
BITMAP
0000005808600942A1000000
0000003F37D05F19C0000000
0000000C91F3AA1E60000000
00000006E092F46E10000000
00000001E507D0C900000000
000000009B0D72F300000000
000000003F6F28C000000000
000000000CFB0E6000000000
0000000006E45D1000000000
000000000000000000000000
000000000000000000000000
110110201222222222222220
5E0C74F0CFFFFFFFFFFFFFE0
5E0C74F0C922222222222220
5E0C74F0CC99999999999980
5E0C74F0CDAAAAAAAAAAAAA0
5E0C74F0C811111111111110
5E0C74F0CFFFFFFFFFFFFFE0
5E0C74F0C933333333333330
5E0C74F0C800000000000000
5E0C74F0C800000000000000
5E0C74F0C800000000000000
5E0C74F0C800000000000000
5E0C74F0CDBBBBBB40000000
5E0C74F0CC88888830000000
5E0C74F0C933333310000000
5E0C74F0CFFFFFFF60000000
5E0C74F0C811111100000000
5E0C74F0CCAAAAAA40000000
5E0C74F0CC99999940000000
5E0C74F0C800000000000000
5E0C74F0C800000000000000
5E0C74F0C800000000000000
5E0C74F0C800000000000000
5E0C74F0CA55555555555550
5E0C74F0CFEEEEEEEEEEEED0
5E0C74F0C800000000000000
5E0C74F0CECCCCCCCCCCCCB0
5E0C74F0CB77777777777770
5E0C74F0CA44444444444440
5E0C74F0CFFFFFFFFFFFFFE0
ENDCHAR
STARTCHAR ecaron
ENCODING 283
SWIDTH 666 0
DWIDTH 24 0
BBX 22 37 1 0
BITMAP
000002A259007709400000
000000D72F31E64F200000
0000007D0B86E1AA000000
0000001F454C91F4000000
0000000AA03F37D0000000
00000004F19C0D80000000
00000000D7E64F20000000
000000007FE1AB00000000
000000002E91D500000000
0000000000000000000000
0000000000000000000000
2404215045555555555553
5E0C74F0CFEEEEEEEEEEE9
5E0C74F0C8000000000000
5E0C74F0CDCCCCCCCCCCC7
5E0C74F0CB777777777774
5E0C74F0C9444444444442
5E0C74F0CFFFFFFFFFFFF9
5E0C74F0C8000000000000
5E0C74F0C8000000000000
5E0C74F0C8000000000000
5E0C74F0CEDDDDDDDDDDB0
5E0C74F0CB666666666660
5E0C74F0CA555555555540
5E0C74F0CFEEEEEEEEEED0
5E0C74F0C8000000000000
5E0C74F0CDCCCCCCCCCCB0
5E0C74F0CB777777777770
5E0C74F0C8000000000000
5E0C74F0C8000000000000
5E0C74F0CA555555555553
5E0C74F0CFEEEEEEEEEEE9
5E0C74F0C8000000000000
5E0C74F0CECCCCCCCCCCC7
5E0C74F0CB777777777774
5E0C74F0CA444444444442
5E0C74F0CFFFFFFFFFFFF9
ENDCHAR
ENDFONT
